%TF.GenerationSoftware,Altium Limited,Altium Designer,25.1.2 (22)*%
G04 Layer_Color=128*
%FSLAX26Y26*%
%MOIN*%
%TF.SameCoordinates,8F76D372-DC6A-426B-9FC6-DDCF032C6804*%
%TF.FilePolarity,Positive*%
%TF.FileFunction,Paste,Bot*%
%TF.Part,Single*%
G01*
G75*
%TA.AperFunction,SMDPad,CuDef*%
%ADD15R,0.019685X0.019685*%
%ADD19R,0.057000X0.022000*%
%ADD28R,0.035000X0.022000*%
G04:AMPARAMS|DCode=44|XSize=57.874mil|YSize=18.898mil|CornerRadius=2.362mil|HoleSize=0mil|Usage=FLASHONLY|Rotation=90.000|XOffset=0mil|YOffset=0mil|HoleType=Round|Shape=RoundedRectangle|*
%AMROUNDEDRECTD44*
21,1,0.057874,0.014173,0,0,90.0*
21,1,0.053150,0.018898,0,0,90.0*
1,1,0.004724,0.007087,0.026575*
1,1,0.004724,0.007087,-0.026575*
1,1,0.004724,-0.007087,-0.026575*
1,1,0.004724,-0.007087,0.026575*
%
%ADD44ROUNDEDRECTD44*%
%ADD45R,0.015748X0.043307*%
G36*
X652874Y1214173D02*
X585945D01*
Y1229921D01*
X652874D01*
Y1214173D01*
D02*
G37*
G36*
Y1245787D02*
X560354D01*
Y1313071D01*
X652874D01*
Y1245787D01*
D02*
G37*
G36*
X1381378Y1214002D02*
X1314449D01*
Y1229750D01*
X1381378D01*
Y1214002D01*
D02*
G37*
G36*
Y1245616D02*
X1288858D01*
Y1312900D01*
X1381378D01*
Y1245616D01*
D02*
G37*
D15*
X1120000Y1018000D02*
D03*
Y1050000D02*
D03*
X380000Y1080000D02*
D03*
Y1048000D02*
D03*
D19*
X1020000Y1266500D02*
D03*
Y1173500D02*
D03*
X845000D02*
D03*
Y1266500D02*
D03*
D28*
X1099000Y1117000D02*
D03*
Y1190000D02*
D03*
X955000Y1266500D02*
D03*
Y1193500D02*
D03*
X910000Y1266500D02*
D03*
Y1193500D02*
D03*
X360000Y1208268D02*
D03*
Y1135268D02*
D03*
D44*
X1245000Y1166000D02*
D03*
X1219409D02*
D03*
X1193819D02*
D03*
X1168228D02*
D03*
Y996709D02*
D03*
X1193819D02*
D03*
X1219409D02*
D03*
X1245000D02*
D03*
X500000Y1038976D02*
D03*
X474409D02*
D03*
X448819D02*
D03*
X423228D02*
D03*
Y1208268D02*
D03*
X448819D02*
D03*
X474409D02*
D03*
X500000D02*
D03*
D45*
X1373504Y1208097D02*
D03*
X1347913D02*
D03*
X1322323D02*
D03*
X1296732D02*
D03*
Y1322270D02*
D03*
X1322323D02*
D03*
X1347913D02*
D03*
X1373504D02*
D03*
X645000Y1322441D02*
D03*
X619409D02*
D03*
X593819D02*
D03*
X568228D02*
D03*
Y1208268D02*
D03*
X593819D02*
D03*
X619409D02*
D03*
X645000D02*
D03*
%TF.MD5,a1ef03642621f097875cfa9a8ba32ff2*%
M02*
