%TF.GenerationSoftware,Altium Limited,Altium Designer,25.1.2 (22)*%
G04 Layer_Physical_Order=3*
G04 Layer_Color=128*
%FSLAX26Y26*%
%MOIN*%
%TF.SameCoordinates,8F76D372-DC6A-426B-9FC6-DDCF032C6804*%
%TF.FilePolarity,Negative*%
%TF.FileFunction,Copper,L3,Inr,Plane*%
%TF.Part,Single*%
G01*
G75*
%TA.AperFunction,NonConductor*%
%ADD38C,0.050000*%
%TA.AperFunction,ViaPad*%
%ADD39C,0.030000*%
%ADD40C,0.028000*%
%ADD41C,0.026000*%
%TA.AperFunction,NonConductor*%
%ADD42C,0.040000*%
%TA.AperFunction,ViaPad*%
%ADD43C,0.100000*%
D38*
X0Y110000D02*
G03*
X110000Y0I110000J0D01*
G01*
X1835000Y0D02*
G03*
X1945000Y110000I0J110000D01*
G01*
X1945000Y1705000D02*
G03*
X1835000Y1815000I-110000J0D01*
G01*
X110000D02*
G03*
X0Y1705000I0J-110000D01*
G01*
X110000Y0D02*
X1835000D01*
X1945000Y1705000D02*
X1945000Y110000D01*
X110000Y1815000D02*
X1835000D01*
X0Y110000D02*
Y1705000D01*
D39*
X1335000Y1280000D02*
D03*
X1365000D02*
D03*
X1305000D02*
D03*
X575000D02*
D03*
X635000D02*
D03*
X605000D02*
D03*
X1620000Y460000D02*
D03*
X1665000Y415000D02*
D03*
X350000Y400000D02*
D03*
X445000Y570000D02*
D03*
X315000Y560000D02*
D03*
X365000Y555000D02*
D03*
X1595000Y570000D02*
D03*
X1650000Y560000D02*
D03*
X1725000Y575000D02*
D03*
X1225000Y1320000D02*
D03*
X695000D02*
D03*
X890000Y1323000D02*
D03*
X1030000D02*
D03*
X1840000Y1590000D02*
D03*
X1755000D02*
D03*
X1670000D02*
D03*
X1560000Y1593500D02*
D03*
X105000Y1590000D02*
D03*
X190000D02*
D03*
X275000D02*
D03*
X360000D02*
D03*
X1080000Y800000D02*
D03*
X1220000D02*
D03*
X700000D02*
D03*
X840000D02*
D03*
X1560000Y1540000D02*
D03*
X1670000Y1536500D02*
D03*
X1755000D02*
D03*
X1840000D02*
D03*
X355000D02*
D03*
X270000D02*
D03*
X185000D02*
D03*
X100000D02*
D03*
X1481260Y1595000D02*
D03*
X1060000D02*
D03*
X875000D02*
D03*
X453740D02*
D03*
X1152520Y1419803D02*
D03*
X1231260D02*
D03*
X546260D02*
D03*
X625000D02*
D03*
X336500Y450000D02*
D03*
X1492134Y695410D02*
D03*
X1412134Y725410D02*
D03*
X1492134Y727410D02*
D03*
X1382134Y777410D02*
D03*
X1442134D02*
D03*
X1382134Y817410D02*
D03*
X510000Y770000D02*
D03*
X570000D02*
D03*
Y810000D02*
D03*
X460000Y688000D02*
D03*
X540000Y718000D02*
D03*
X389764Y668150D02*
D03*
X281496D02*
D03*
X1150000Y811850D02*
D03*
X1080000Y850000D02*
D03*
Y750000D02*
D03*
X1220000D02*
D03*
Y850000D02*
D03*
X840000D02*
D03*
Y750000D02*
D03*
X700000D02*
D03*
Y850000D02*
D03*
X770000Y811850D02*
D03*
X1471260Y210000D02*
D03*
X1050000D02*
D03*
X870000D02*
D03*
X448740D02*
D03*
X1381260Y300000D02*
D03*
Y240000D02*
D03*
Y180000D02*
D03*
X1301260Y300000D02*
D03*
Y240000D02*
D03*
Y180000D02*
D03*
X1300000Y385197D02*
D03*
X1378740D02*
D03*
X777480D02*
D03*
X698740D02*
D03*
X700000Y180000D02*
D03*
Y240000D02*
D03*
Y300000D02*
D03*
X780000Y180000D02*
D03*
Y240000D02*
D03*
Y300000D02*
D03*
X760000Y1140000D02*
D03*
Y1190000D02*
D03*
X1430000D02*
D03*
Y1090000D02*
D03*
X1490000Y1140000D02*
D03*
X1380000Y1130000D02*
D03*
X1340000D02*
D03*
X1430000Y1140000D02*
D03*
X1380000Y1090000D02*
D03*
Y1170000D02*
D03*
X1340000D02*
D03*
Y1090000D02*
D03*
X1490000D02*
D03*
Y1190000D02*
D03*
X760000Y1090000D02*
D03*
X610000D02*
D03*
Y1170000D02*
D03*
X650000D02*
D03*
Y1090000D02*
D03*
X700000Y1140000D02*
D03*
X610000Y1130000D02*
D03*
X650000D02*
D03*
X700000Y1090000D02*
D03*
Y1190000D02*
D03*
D40*
X205000Y20000D02*
D03*
X285000D02*
D03*
X365000D02*
D03*
X445000D02*
D03*
X765000D02*
D03*
X685000D02*
D03*
X605000D02*
D03*
X525000D02*
D03*
X1165000D02*
D03*
X1245000D02*
D03*
X1325000D02*
D03*
X1405000D02*
D03*
X1085000D02*
D03*
X1005000D02*
D03*
X925000D02*
D03*
X845000D02*
D03*
X1645000D02*
D03*
X1565000D02*
D03*
X1485000D02*
D03*
X1725000D02*
D03*
X20000Y340000D02*
D03*
Y260000D02*
D03*
Y180000D02*
D03*
Y980000D02*
D03*
Y900000D02*
D03*
Y820000D02*
D03*
Y740000D02*
D03*
Y420000D02*
D03*
Y500000D02*
D03*
Y580000D02*
D03*
Y660000D02*
D03*
Y1300000D02*
D03*
Y1220000D02*
D03*
Y1140000D02*
D03*
Y1060000D02*
D03*
Y1380000D02*
D03*
Y1460000D02*
D03*
Y1540000D02*
D03*
Y1620000D02*
D03*
X1840000Y1770000D02*
D03*
Y1650000D02*
D03*
X1775000Y1705000D02*
D03*
X1900000Y1710000D02*
D03*
X1885000Y1755000D02*
D03*
X1795000D02*
D03*
Y1665000D02*
D03*
X1885000D02*
D03*
X1840000Y160000D02*
D03*
Y40000D02*
D03*
X1775000Y95000D02*
D03*
X1900000Y100000D02*
D03*
X1885000Y145000D02*
D03*
X1795000D02*
D03*
Y55000D02*
D03*
X1885000D02*
D03*
X100000Y160000D02*
D03*
Y40000D02*
D03*
X35000Y95000D02*
D03*
X160000Y100000D02*
D03*
X145000Y145000D02*
D03*
X55000D02*
D03*
Y55000D02*
D03*
X145000D02*
D03*
X1925000Y1630000D02*
D03*
Y1550000D02*
D03*
Y1470000D02*
D03*
Y1390000D02*
D03*
Y1070000D02*
D03*
Y1150000D02*
D03*
Y1230000D02*
D03*
Y1310000D02*
D03*
Y670000D02*
D03*
Y590000D02*
D03*
Y510000D02*
D03*
Y430000D02*
D03*
Y750000D02*
D03*
Y830000D02*
D03*
Y910000D02*
D03*
Y990000D02*
D03*
Y190000D02*
D03*
Y270000D02*
D03*
Y350000D02*
D03*
X1725000Y1795000D02*
D03*
X1485000D02*
D03*
X1565000D02*
D03*
X1645000D02*
D03*
X845000D02*
D03*
X925000D02*
D03*
X1005000D02*
D03*
X1085000D02*
D03*
X1405000D02*
D03*
X1325000D02*
D03*
X1245000D02*
D03*
X1165000D02*
D03*
X525000D02*
D03*
X605000D02*
D03*
X685000D02*
D03*
X765000D02*
D03*
X445000D02*
D03*
X365000D02*
D03*
X285000D02*
D03*
X145000Y1665000D02*
D03*
X55000D02*
D03*
Y1755000D02*
D03*
X145000D02*
D03*
X160000Y1710000D02*
D03*
X35000Y1705000D02*
D03*
X100000Y1650000D02*
D03*
Y1770000D02*
D03*
X205000Y1795000D02*
D03*
D41*
X1670000Y1665000D02*
D03*
X260000D02*
D03*
X965000Y1549000D02*
D03*
X1670000Y1433500D02*
D03*
X1600000Y1635945D02*
D03*
X270000Y1433500D02*
D03*
X325000Y1640945D02*
D03*
X380000Y1100000D02*
D03*
X1120000Y1080000D02*
D03*
D42*
X565000Y840000D02*
X1370000D01*
X385000Y660000D02*
X565000Y840000D01*
X1370000D02*
X1550000Y660000D01*
X11000D02*
X385000D01*
X1550000D02*
X1934000D01*
X1550000Y1415000D02*
X1934000D01*
X11000D02*
X385000D01*
X1430000Y1295000D02*
X1550000Y1415000D01*
X505000Y1295000D02*
X1430000D01*
X385000Y1415000D02*
X505000Y1295000D01*
D43*
X1840000Y1710000D02*
D03*
Y100000D02*
D03*
X100000Y1710000D02*
D03*
Y100000D02*
D03*
%TF.MD5,fa71fcd2978592f33495119529364483*%
M02*
