%TF.GenerationSoftware,Altium Limited,Altium Designer,25.1.2 (22)*%
G04 Layer_Color=2752767*
%FSLAX26Y26*%
%MOIN*%
%TF.SameCoordinates,8F76D372-DC6A-426B-9FC6-DDCF032C6804*%
%TF.FilePolarity,Positive*%
%TF.FileFunction,Drawing*%
%TF.Part,Single*%
G01*
G75*
%TA.AperFunction,NonConductor*%
%ADD50C,0.005000*%
%ADD78C,0.006667*%
D50*
X1820000Y1690000D02*
Y1730000D01*
X1860000D01*
Y1690000D01*
X1820000D01*
Y80000D02*
Y120000D01*
X1860000D01*
Y80000D01*
X1820000D01*
X80000Y1690000D02*
Y1730000D01*
X120000D01*
Y1690000D01*
X80000D01*
Y80000D02*
Y120000D01*
X120000D01*
Y80000D01*
X80000D01*
X1335000Y1260000D02*
X1315000Y1300000D01*
X1355000D01*
X1335000Y1260000D01*
X1365000D02*
X1345000Y1300000D01*
X1385000D01*
X1365000Y1260000D01*
X1305000D02*
X1285000Y1300000D01*
X1325000D01*
X1305000Y1260000D01*
X575000D02*
X555000Y1300000D01*
X595000D01*
X575000Y1260000D01*
X635000D02*
X615000Y1300000D01*
X655000D01*
X635000Y1260000D01*
X605000D02*
X585000Y1300000D01*
X625000D01*
X605000Y1260000D01*
X205000Y0D02*
X215000Y10000D01*
X225000D01*
X215000Y20000D01*
X225000Y30000D01*
X215000D01*
X205000Y40000D01*
X195000Y30000D01*
X185000D01*
X195000Y20000D01*
X185000Y10000D01*
X195000D01*
X205000Y0D01*
X285000D02*
X295000Y10000D01*
X305000D01*
X295000Y20000D01*
X305000Y30000D01*
X295000D01*
X285000Y40000D01*
X275000Y30000D01*
X265000D01*
X275000Y20000D01*
X265000Y10000D01*
X275000D01*
X285000Y0D01*
X365000D02*
X375000Y10000D01*
X385000D01*
X375000Y20000D01*
X385000Y30000D01*
X375000D01*
X365000Y40000D01*
X355000Y30000D01*
X345000D01*
X355000Y20000D01*
X345000Y10000D01*
X355000D01*
X365000Y0D01*
X445000D02*
X455000Y10000D01*
X465000D01*
X455000Y20000D01*
X465000Y30000D01*
X455000D01*
X445000Y40000D01*
X435000Y30000D01*
X425000D01*
X435000Y20000D01*
X425000Y10000D01*
X435000D01*
X445000Y0D01*
X765000D02*
X775000Y10000D01*
X785000D01*
X775000Y20000D01*
X785000Y30000D01*
X775000D01*
X765000Y40000D01*
X755000Y30000D01*
X745000D01*
X755000Y20000D01*
X745000Y10000D01*
X755000D01*
X765000Y0D01*
X685000D02*
X695000Y10000D01*
X705000D01*
X695000Y20000D01*
X705000Y30000D01*
X695000D01*
X685000Y40000D01*
X675000Y30000D01*
X665000D01*
X675000Y20000D01*
X665000Y10000D01*
X675000D01*
X685000Y0D01*
X605000D02*
X615000Y10000D01*
X625000D01*
X615000Y20000D01*
X625000Y30000D01*
X615000D01*
X605000Y40000D01*
X595000Y30000D01*
X585000D01*
X595000Y20000D01*
X585000Y10000D01*
X595000D01*
X605000Y0D01*
X525000D02*
X535000Y10000D01*
X545000D01*
X535000Y20000D01*
X545000Y30000D01*
X535000D01*
X525000Y40000D01*
X515000Y30000D01*
X505000D01*
X515000Y20000D01*
X505000Y10000D01*
X515000D01*
X525000Y0D01*
X1165000D02*
X1175000Y10000D01*
X1185000D01*
X1175000Y20000D01*
X1185000Y30000D01*
X1175000D01*
X1165000Y40000D01*
X1155000Y30000D01*
X1145000D01*
X1155000Y20000D01*
X1145000Y10000D01*
X1155000D01*
X1165000Y0D01*
X1245000D02*
X1255000Y10000D01*
X1265000D01*
X1255000Y20000D01*
X1265000Y30000D01*
X1255000D01*
X1245000Y40000D01*
X1235000Y30000D01*
X1225000D01*
X1235000Y20000D01*
X1225000Y10000D01*
X1235000D01*
X1245000Y0D01*
X1325000D02*
X1335000Y10000D01*
X1345000D01*
X1335000Y20000D01*
X1345000Y30000D01*
X1335000D01*
X1325000Y40000D01*
X1315000Y30000D01*
X1305000D01*
X1315000Y20000D01*
X1305000Y10000D01*
X1315000D01*
X1325000Y0D01*
X1405000D02*
X1415000Y10000D01*
X1425000D01*
X1415000Y20000D01*
X1425000Y30000D01*
X1415000D01*
X1405000Y40000D01*
X1395000Y30000D01*
X1385000D01*
X1395000Y20000D01*
X1385000Y10000D01*
X1395000D01*
X1405000Y0D01*
X1085000D02*
X1095000Y10000D01*
X1105000D01*
X1095000Y20000D01*
X1105000Y30000D01*
X1095000D01*
X1085000Y40000D01*
X1075000Y30000D01*
X1065000D01*
X1075000Y20000D01*
X1065000Y10000D01*
X1075000D01*
X1085000Y0D01*
X1005000D02*
X1015000Y10000D01*
X1025000D01*
X1015000Y20000D01*
X1025000Y30000D01*
X1015000D01*
X1005000Y40000D01*
X995000Y30000D01*
X985000D01*
X995000Y20000D01*
X985000Y10000D01*
X995000D01*
X1005000Y0D01*
X925000D02*
X935000Y10000D01*
X945000D01*
X935000Y20000D01*
X945000Y30000D01*
X935000D01*
X925000Y40000D01*
X915000Y30000D01*
X905000D01*
X915000Y20000D01*
X905000Y10000D01*
X915000D01*
X925000Y0D01*
X845000D02*
X855000Y10000D01*
X865000D01*
X855000Y20000D01*
X865000Y30000D01*
X855000D01*
X845000Y40000D01*
X835000Y30000D01*
X825000D01*
X835000Y20000D01*
X825000Y10000D01*
X835000D01*
X845000Y0D01*
X1645000D02*
X1655000Y10000D01*
X1665000D01*
X1655000Y20000D01*
X1665000Y30000D01*
X1655000D01*
X1645000Y40000D01*
X1635000Y30000D01*
X1625000D01*
X1635000Y20000D01*
X1625000Y10000D01*
X1635000D01*
X1645000Y0D01*
X1565000D02*
X1575000Y10000D01*
X1585000D01*
X1575000Y20000D01*
X1585000Y30000D01*
X1575000D01*
X1565000Y40000D01*
X1555000Y30000D01*
X1545000D01*
X1555000Y20000D01*
X1545000Y10000D01*
X1555000D01*
X1565000Y0D01*
X1485000D02*
X1495000Y10000D01*
X1505000D01*
X1495000Y20000D01*
X1505000Y30000D01*
X1495000D01*
X1485000Y40000D01*
X1475000Y30000D01*
X1465000D01*
X1475000Y20000D01*
X1465000Y10000D01*
X1475000D01*
X1485000Y0D01*
X1725000D02*
X1735000Y10000D01*
X1745000D01*
X1735000Y20000D01*
X1745000Y30000D01*
X1735000D01*
X1725000Y40000D01*
X1715000Y30000D01*
X1705000D01*
X1715000Y20000D01*
X1705000Y10000D01*
X1715000D01*
X1725000Y0D01*
X20000Y320000D02*
X30000Y330000D01*
X40000D01*
X30000Y340000D01*
X40000Y350000D01*
X30000D01*
X20000Y360000D01*
X10000Y350000D01*
X0D01*
X10000Y340000D01*
X0Y330000D01*
X10000D01*
X20000Y320000D01*
Y240000D02*
X30000Y250000D01*
X40000D01*
X30000Y260000D01*
X40000Y270000D01*
X30000D01*
X20000Y280000D01*
X10000Y270000D01*
X0D01*
X10000Y260000D01*
X0Y250000D01*
X10000D01*
X20000Y240000D01*
Y160000D02*
X30000Y170000D01*
X40000D01*
X30000Y180000D01*
X40000Y190000D01*
X30000D01*
X20000Y200000D01*
X10000Y190000D01*
X0D01*
X10000Y180000D01*
X0Y170000D01*
X10000D01*
X20000Y160000D01*
Y960000D02*
X30000Y970000D01*
X40000D01*
X30000Y980000D01*
X40000Y990000D01*
X30000D01*
X20000Y1000000D01*
X10000Y990000D01*
X0D01*
X10000Y980000D01*
X0Y970000D01*
X10000D01*
X20000Y960000D01*
Y880000D02*
X30000Y890000D01*
X40000D01*
X30000Y900000D01*
X40000Y910000D01*
X30000D01*
X20000Y920000D01*
X10000Y910000D01*
X0D01*
X10000Y900000D01*
X0Y890000D01*
X10000D01*
X20000Y880000D01*
Y800000D02*
X30000Y810000D01*
X40000D01*
X30000Y820000D01*
X40000Y830000D01*
X30000D01*
X20000Y840000D01*
X10000Y830000D01*
X0D01*
X10000Y820000D01*
X0Y810000D01*
X10000D01*
X20000Y800000D01*
Y720000D02*
X30000Y730000D01*
X40000D01*
X30000Y740000D01*
X40000Y750000D01*
X30000D01*
X20000Y760000D01*
X10000Y750000D01*
X0D01*
X10000Y740000D01*
X0Y730000D01*
X10000D01*
X20000Y720000D01*
Y400000D02*
X30000Y410000D01*
X40000D01*
X30000Y420000D01*
X40000Y430000D01*
X30000D01*
X20000Y440000D01*
X10000Y430000D01*
X0D01*
X10000Y420000D01*
X0Y410000D01*
X10000D01*
X20000Y400000D01*
Y480000D02*
X30000Y490000D01*
X40000D01*
X30000Y500000D01*
X40000Y510000D01*
X30000D01*
X20000Y520000D01*
X10000Y510000D01*
X0D01*
X10000Y500000D01*
X0Y490000D01*
X10000D01*
X20000Y480000D01*
Y560000D02*
X30000Y570000D01*
X40000D01*
X30000Y580000D01*
X40000Y590000D01*
X30000D01*
X20000Y600000D01*
X10000Y590000D01*
X0D01*
X10000Y580000D01*
X0Y570000D01*
X10000D01*
X20000Y560000D01*
Y640000D02*
X30000Y650000D01*
X40000D01*
X30000Y660000D01*
X40000Y670000D01*
X30000D01*
X20000Y680000D01*
X10000Y670000D01*
X0D01*
X10000Y660000D01*
X0Y650000D01*
X10000D01*
X20000Y640000D01*
Y1280000D02*
X30000Y1290000D01*
X40000D01*
X30000Y1300000D01*
X40000Y1310000D01*
X30000D01*
X20000Y1320000D01*
X10000Y1310000D01*
X0D01*
X10000Y1300000D01*
X0Y1290000D01*
X10000D01*
X20000Y1280000D01*
Y1200000D02*
X30000Y1210000D01*
X40000D01*
X30000Y1220000D01*
X40000Y1230000D01*
X30000D01*
X20000Y1240000D01*
X10000Y1230000D01*
X0D01*
X10000Y1220000D01*
X0Y1210000D01*
X10000D01*
X20000Y1200000D01*
Y1120000D02*
X30000Y1130000D01*
X40000D01*
X30000Y1140000D01*
X40000Y1150000D01*
X30000D01*
X20000Y1160000D01*
X10000Y1150000D01*
X0D01*
X10000Y1140000D01*
X0Y1130000D01*
X10000D01*
X20000Y1120000D01*
Y1040000D02*
X30000Y1050000D01*
X40000D01*
X30000Y1060000D01*
X40000Y1070000D01*
X30000D01*
X20000Y1080000D01*
X10000Y1070000D01*
X0D01*
X10000Y1060000D01*
X0Y1050000D01*
X10000D01*
X20000Y1040000D01*
Y1360000D02*
X30000Y1370000D01*
X40000D01*
X30000Y1380000D01*
X40000Y1390000D01*
X30000D01*
X20000Y1400000D01*
X10000Y1390000D01*
X0D01*
X10000Y1380000D01*
X0Y1370000D01*
X10000D01*
X20000Y1360000D01*
Y1440000D02*
X30000Y1450000D01*
X40000D01*
X30000Y1460000D01*
X40000Y1470000D01*
X30000D01*
X20000Y1480000D01*
X10000Y1470000D01*
X0D01*
X10000Y1460000D01*
X0Y1450000D01*
X10000D01*
X20000Y1440000D01*
Y1520000D02*
X30000Y1530000D01*
X40000D01*
X30000Y1540000D01*
X40000Y1550000D01*
X30000D01*
X20000Y1560000D01*
X10000Y1550000D01*
X0D01*
X10000Y1540000D01*
X0Y1530000D01*
X10000D01*
X20000Y1520000D01*
Y1600000D02*
X30000Y1610000D01*
X40000D01*
X30000Y1620000D01*
X40000Y1630000D01*
X30000D01*
X20000Y1640000D01*
X10000Y1630000D01*
X0D01*
X10000Y1620000D01*
X0Y1610000D01*
X10000D01*
X20000Y1600000D01*
X1840000Y1750000D02*
X1850000Y1760000D01*
X1860000D01*
X1850000Y1770000D01*
X1860000Y1780000D01*
X1850000D01*
X1840000Y1790000D01*
X1830000Y1780000D01*
X1820000D01*
X1830000Y1770000D01*
X1820000Y1760000D01*
X1830000D01*
X1840000Y1750000D01*
Y1630000D02*
X1850000Y1640000D01*
X1860000D01*
X1850000Y1650000D01*
X1860000Y1660000D01*
X1850000D01*
X1840000Y1670000D01*
X1830000Y1660000D01*
X1820000D01*
X1830000Y1650000D01*
X1820000Y1640000D01*
X1830000D01*
X1840000Y1630000D01*
X1775000Y1685000D02*
X1785000Y1695000D01*
X1795000D01*
X1785000Y1705000D01*
X1795000Y1715000D01*
X1785000D01*
X1775000Y1725000D01*
X1765000Y1715000D01*
X1755000D01*
X1765000Y1705000D01*
X1755000Y1695000D01*
X1765000D01*
X1775000Y1685000D01*
X1900000Y1690000D02*
X1910000Y1700000D01*
X1920000D01*
X1910000Y1710000D01*
X1920000Y1720000D01*
X1910000D01*
X1900000Y1730000D01*
X1890000Y1720000D01*
X1880000D01*
X1890000Y1710000D01*
X1880000Y1700000D01*
X1890000D01*
X1900000Y1690000D01*
X1885000Y1735000D02*
X1895000Y1745000D01*
X1905000D01*
X1895000Y1755000D01*
X1905000Y1765000D01*
X1895000D01*
X1885000Y1775000D01*
X1875000Y1765000D01*
X1865000D01*
X1875000Y1755000D01*
X1865000Y1745000D01*
X1875000D01*
X1885000Y1735000D01*
X1795000D02*
X1805000Y1745000D01*
X1815000D01*
X1805000Y1755000D01*
X1815000Y1765000D01*
X1805000D01*
X1795000Y1775000D01*
X1785000Y1765000D01*
X1775000D01*
X1785000Y1755000D01*
X1775000Y1745000D01*
X1785000D01*
X1795000Y1735000D01*
Y1645000D02*
X1805000Y1655000D01*
X1815000D01*
X1805000Y1665000D01*
X1815000Y1675000D01*
X1805000D01*
X1795000Y1685000D01*
X1785000Y1675000D01*
X1775000D01*
X1785000Y1665000D01*
X1775000Y1655000D01*
X1785000D01*
X1795000Y1645000D01*
X1885000D02*
X1895000Y1655000D01*
X1905000D01*
X1895000Y1665000D01*
X1905000Y1675000D01*
X1895000D01*
X1885000Y1685000D01*
X1875000Y1675000D01*
X1865000D01*
X1875000Y1665000D01*
X1865000Y1655000D01*
X1875000D01*
X1885000Y1645000D01*
X1840000Y140000D02*
X1850000Y150000D01*
X1860000D01*
X1850000Y160000D01*
X1860000Y170000D01*
X1850000D01*
X1840000Y180000D01*
X1830000Y170000D01*
X1820000D01*
X1830000Y160000D01*
X1820000Y150000D01*
X1830000D01*
X1840000Y140000D01*
Y20000D02*
X1850000Y30000D01*
X1860000D01*
X1850000Y40000D01*
X1860000Y50000D01*
X1850000D01*
X1840000Y60000D01*
X1830000Y50000D01*
X1820000D01*
X1830000Y40000D01*
X1820000Y30000D01*
X1830000D01*
X1840000Y20000D01*
X1775000Y75000D02*
X1785000Y85000D01*
X1795000D01*
X1785000Y95000D01*
X1795000Y105000D01*
X1785000D01*
X1775000Y115000D01*
X1765000Y105000D01*
X1755000D01*
X1765000Y95000D01*
X1755000Y85000D01*
X1765000D01*
X1775000Y75000D01*
X1900000Y80000D02*
X1910000Y90000D01*
X1920000D01*
X1910000Y100000D01*
X1920000Y110000D01*
X1910000D01*
X1900000Y120000D01*
X1890000Y110000D01*
X1880000D01*
X1890000Y100000D01*
X1880000Y90000D01*
X1890000D01*
X1900000Y80000D01*
X1885000Y125000D02*
X1895000Y135000D01*
X1905000D01*
X1895000Y145000D01*
X1905000Y155000D01*
X1895000D01*
X1885000Y165000D01*
X1875000Y155000D01*
X1865000D01*
X1875000Y145000D01*
X1865000Y135000D01*
X1875000D01*
X1885000Y125000D01*
X1795000D02*
X1805000Y135000D01*
X1815000D01*
X1805000Y145000D01*
X1815000Y155000D01*
X1805000D01*
X1795000Y165000D01*
X1785000Y155000D01*
X1775000D01*
X1785000Y145000D01*
X1775000Y135000D01*
X1785000D01*
X1795000Y125000D01*
Y35000D02*
X1805000Y45000D01*
X1815000D01*
X1805000Y55000D01*
X1815000Y65000D01*
X1805000D01*
X1795000Y75000D01*
X1785000Y65000D01*
X1775000D01*
X1785000Y55000D01*
X1775000Y45000D01*
X1785000D01*
X1795000Y35000D01*
X1885000D02*
X1895000Y45000D01*
X1905000D01*
X1895000Y55000D01*
X1905000Y65000D01*
X1895000D01*
X1885000Y75000D01*
X1875000Y65000D01*
X1865000D01*
X1875000Y55000D01*
X1865000Y45000D01*
X1875000D01*
X1885000Y35000D01*
X100000Y140000D02*
X110000Y150000D01*
X120000D01*
X110000Y160000D01*
X120000Y170000D01*
X110000D01*
X100000Y180000D01*
X90000Y170000D01*
X80000D01*
X90000Y160000D01*
X80000Y150000D01*
X90000D01*
X100000Y140000D01*
Y20000D02*
X110000Y30000D01*
X120000D01*
X110000Y40000D01*
X120000Y50000D01*
X110000D01*
X100000Y60000D01*
X90000Y50000D01*
X80000D01*
X90000Y40000D01*
X80000Y30000D01*
X90000D01*
X100000Y20000D01*
X35000Y75000D02*
X45000Y85000D01*
X55000D01*
X45000Y95000D01*
X55000Y105000D01*
X45000D01*
X35000Y115000D01*
X25000Y105000D01*
X15000D01*
X25000Y95000D01*
X15000Y85000D01*
X25000D01*
X35000Y75000D01*
X160000Y80000D02*
X170000Y90000D01*
X180000D01*
X170000Y100000D01*
X180000Y110000D01*
X170000D01*
X160000Y120000D01*
X150000Y110000D01*
X140000D01*
X150000Y100000D01*
X140000Y90000D01*
X150000D01*
X160000Y80000D01*
X145000Y125000D02*
X155000Y135000D01*
X165000D01*
X155000Y145000D01*
X165000Y155000D01*
X155000D01*
X145000Y165000D01*
X135000Y155000D01*
X125000D01*
X135000Y145000D01*
X125000Y135000D01*
X135000D01*
X145000Y125000D01*
X55000D02*
X65000Y135000D01*
X75000D01*
X65000Y145000D01*
X75000Y155000D01*
X65000D01*
X55000Y165000D01*
X45000Y155000D01*
X35000D01*
X45000Y145000D01*
X35000Y135000D01*
X45000D01*
X55000Y125000D01*
Y35000D02*
X65000Y45000D01*
X75000D01*
X65000Y55000D01*
X75000Y65000D01*
X65000D01*
X55000Y75000D01*
X45000Y65000D01*
X35000D01*
X45000Y55000D01*
X35000Y45000D01*
X45000D01*
X55000Y35000D01*
X145000D02*
X155000Y45000D01*
X165000D01*
X155000Y55000D01*
X165000Y65000D01*
X155000D01*
X145000Y75000D01*
X135000Y65000D01*
X125000D01*
X135000Y55000D01*
X125000Y45000D01*
X135000D01*
X145000Y35000D01*
X1925000Y1610000D02*
X1935000Y1620000D01*
X1945000D01*
X1935000Y1630000D01*
X1945000Y1640000D01*
X1935000D01*
X1925000Y1650000D01*
X1915000Y1640000D01*
X1905000D01*
X1915000Y1630000D01*
X1905000Y1620000D01*
X1915000D01*
X1925000Y1610000D01*
Y1530000D02*
X1935000Y1540000D01*
X1945000D01*
X1935000Y1550000D01*
X1945000Y1560000D01*
X1935000D01*
X1925000Y1570000D01*
X1915000Y1560000D01*
X1905000D01*
X1915000Y1550000D01*
X1905000Y1540000D01*
X1915000D01*
X1925000Y1530000D01*
Y1450000D02*
X1935000Y1460000D01*
X1945000D01*
X1935000Y1470000D01*
X1945000Y1480000D01*
X1935000D01*
X1925000Y1490000D01*
X1915000Y1480000D01*
X1905000D01*
X1915000Y1470000D01*
X1905000Y1460000D01*
X1915000D01*
X1925000Y1450000D01*
Y1370000D02*
X1935000Y1380000D01*
X1945000D01*
X1935000Y1390000D01*
X1945000Y1400000D01*
X1935000D01*
X1925000Y1410000D01*
X1915000Y1400000D01*
X1905000D01*
X1915000Y1390000D01*
X1905000Y1380000D01*
X1915000D01*
X1925000Y1370000D01*
Y1050000D02*
X1935000Y1060000D01*
X1945000D01*
X1935000Y1070000D01*
X1945000Y1080000D01*
X1935000D01*
X1925000Y1090000D01*
X1915000Y1080000D01*
X1905000D01*
X1915000Y1070000D01*
X1905000Y1060000D01*
X1915000D01*
X1925000Y1050000D01*
Y1130000D02*
X1935000Y1140000D01*
X1945000D01*
X1935000Y1150000D01*
X1945000Y1160000D01*
X1935000D01*
X1925000Y1170000D01*
X1915000Y1160000D01*
X1905000D01*
X1915000Y1150000D01*
X1905000Y1140000D01*
X1915000D01*
X1925000Y1130000D01*
Y1210000D02*
X1935000Y1220000D01*
X1945000D01*
X1935000Y1230000D01*
X1945000Y1240000D01*
X1935000D01*
X1925000Y1250000D01*
X1915000Y1240000D01*
X1905000D01*
X1915000Y1230000D01*
X1905000Y1220000D01*
X1915000D01*
X1925000Y1210000D01*
Y1290000D02*
X1935000Y1300000D01*
X1945000D01*
X1935000Y1310000D01*
X1945000Y1320000D01*
X1935000D01*
X1925000Y1330000D01*
X1915000Y1320000D01*
X1905000D01*
X1915000Y1310000D01*
X1905000Y1300000D01*
X1915000D01*
X1925000Y1290000D01*
Y650000D02*
X1935000Y660000D01*
X1945000D01*
X1935000Y670000D01*
X1945000Y680000D01*
X1935000D01*
X1925000Y690000D01*
X1915000Y680000D01*
X1905000D01*
X1915000Y670000D01*
X1905000Y660000D01*
X1915000D01*
X1925000Y650000D01*
Y570000D02*
X1935000Y580000D01*
X1945000D01*
X1935000Y590000D01*
X1945000Y600000D01*
X1935000D01*
X1925000Y610000D01*
X1915000Y600000D01*
X1905000D01*
X1915000Y590000D01*
X1905000Y580000D01*
X1915000D01*
X1925000Y570000D01*
Y490000D02*
X1935000Y500000D01*
X1945000D01*
X1935000Y510000D01*
X1945000Y520000D01*
X1935000D01*
X1925000Y530000D01*
X1915000Y520000D01*
X1905000D01*
X1915000Y510000D01*
X1905000Y500000D01*
X1915000D01*
X1925000Y490000D01*
Y410000D02*
X1935000Y420000D01*
X1945000D01*
X1935000Y430000D01*
X1945000Y440000D01*
X1935000D01*
X1925000Y450000D01*
X1915000Y440000D01*
X1905000D01*
X1915000Y430000D01*
X1905000Y420000D01*
X1915000D01*
X1925000Y410000D01*
Y730000D02*
X1935000Y740000D01*
X1945000D01*
X1935000Y750000D01*
X1945000Y760000D01*
X1935000D01*
X1925000Y770000D01*
X1915000Y760000D01*
X1905000D01*
X1915000Y750000D01*
X1905000Y740000D01*
X1915000D01*
X1925000Y730000D01*
Y810000D02*
X1935000Y820000D01*
X1945000D01*
X1935000Y830000D01*
X1945000Y840000D01*
X1935000D01*
X1925000Y850000D01*
X1915000Y840000D01*
X1905000D01*
X1915000Y830000D01*
X1905000Y820000D01*
X1915000D01*
X1925000Y810000D01*
Y890000D02*
X1935000Y900000D01*
X1945000D01*
X1935000Y910000D01*
X1945000Y920000D01*
X1935000D01*
X1925000Y930000D01*
X1915000Y920000D01*
X1905000D01*
X1915000Y910000D01*
X1905000Y900000D01*
X1915000D01*
X1925000Y890000D01*
Y970000D02*
X1935000Y980000D01*
X1945000D01*
X1935000Y990000D01*
X1945000Y1000000D01*
X1935000D01*
X1925000Y1010000D01*
X1915000Y1000000D01*
X1905000D01*
X1915000Y990000D01*
X1905000Y980000D01*
X1915000D01*
X1925000Y970000D01*
Y170000D02*
X1935000Y180000D01*
X1945000D01*
X1935000Y190000D01*
X1945000Y200000D01*
X1935000D01*
X1925000Y210000D01*
X1915000Y200000D01*
X1905000D01*
X1915000Y190000D01*
X1905000Y180000D01*
X1915000D01*
X1925000Y170000D01*
Y250000D02*
X1935000Y260000D01*
X1945000D01*
X1935000Y270000D01*
X1945000Y280000D01*
X1935000D01*
X1925000Y290000D01*
X1915000Y280000D01*
X1905000D01*
X1915000Y270000D01*
X1905000Y260000D01*
X1915000D01*
X1925000Y250000D01*
Y330000D02*
X1935000Y340000D01*
X1945000D01*
X1935000Y350000D01*
X1945000Y360000D01*
X1935000D01*
X1925000Y370000D01*
X1915000Y360000D01*
X1905000D01*
X1915000Y350000D01*
X1905000Y340000D01*
X1915000D01*
X1925000Y330000D01*
X1725000Y1775000D02*
X1735000Y1785000D01*
X1745000D01*
X1735000Y1795000D01*
X1745000Y1805000D01*
X1735000D01*
X1725000Y1815000D01*
X1715000Y1805000D01*
X1705000D01*
X1715000Y1795000D01*
X1705000Y1785000D01*
X1715000D01*
X1725000Y1775000D01*
X1485000D02*
X1495000Y1785000D01*
X1505000D01*
X1495000Y1795000D01*
X1505000Y1805000D01*
X1495000D01*
X1485000Y1815000D01*
X1475000Y1805000D01*
X1465000D01*
X1475000Y1795000D01*
X1465000Y1785000D01*
X1475000D01*
X1485000Y1775000D01*
X1565000D02*
X1575000Y1785000D01*
X1585000D01*
X1575000Y1795000D01*
X1585000Y1805000D01*
X1575000D01*
X1565000Y1815000D01*
X1555000Y1805000D01*
X1545000D01*
X1555000Y1795000D01*
X1545000Y1785000D01*
X1555000D01*
X1565000Y1775000D01*
X1645000D02*
X1655000Y1785000D01*
X1665000D01*
X1655000Y1795000D01*
X1665000Y1805000D01*
X1655000D01*
X1645000Y1815000D01*
X1635000Y1805000D01*
X1625000D01*
X1635000Y1795000D01*
X1625000Y1785000D01*
X1635000D01*
X1645000Y1775000D01*
X845000D02*
X855000Y1785000D01*
X865000D01*
X855000Y1795000D01*
X865000Y1805000D01*
X855000D01*
X845000Y1815000D01*
X835000Y1805000D01*
X825000D01*
X835000Y1795000D01*
X825000Y1785000D01*
X835000D01*
X845000Y1775000D01*
X925000D02*
X935000Y1785000D01*
X945000D01*
X935000Y1795000D01*
X945000Y1805000D01*
X935000D01*
X925000Y1815000D01*
X915000Y1805000D01*
X905000D01*
X915000Y1795000D01*
X905000Y1785000D01*
X915000D01*
X925000Y1775000D01*
X1005000D02*
X1015000Y1785000D01*
X1025000D01*
X1015000Y1795000D01*
X1025000Y1805000D01*
X1015000D01*
X1005000Y1815000D01*
X995000Y1805000D01*
X985000D01*
X995000Y1795000D01*
X985000Y1785000D01*
X995000D01*
X1005000Y1775000D01*
X1085000D02*
X1095000Y1785000D01*
X1105000D01*
X1095000Y1795000D01*
X1105000Y1805000D01*
X1095000D01*
X1085000Y1815000D01*
X1075000Y1805000D01*
X1065000D01*
X1075000Y1795000D01*
X1065000Y1785000D01*
X1075000D01*
X1085000Y1775000D01*
X1405000D02*
X1415000Y1785000D01*
X1425000D01*
X1415000Y1795000D01*
X1425000Y1805000D01*
X1415000D01*
X1405000Y1815000D01*
X1395000Y1805000D01*
X1385000D01*
X1395000Y1795000D01*
X1385000Y1785000D01*
X1395000D01*
X1405000Y1775000D01*
X1325000D02*
X1335000Y1785000D01*
X1345000D01*
X1335000Y1795000D01*
X1345000Y1805000D01*
X1335000D01*
X1325000Y1815000D01*
X1315000Y1805000D01*
X1305000D01*
X1315000Y1795000D01*
X1305000Y1785000D01*
X1315000D01*
X1325000Y1775000D01*
X1245000D02*
X1255000Y1785000D01*
X1265000D01*
X1255000Y1795000D01*
X1265000Y1805000D01*
X1255000D01*
X1245000Y1815000D01*
X1235000Y1805000D01*
X1225000D01*
X1235000Y1795000D01*
X1225000Y1785000D01*
X1235000D01*
X1245000Y1775000D01*
X1165000D02*
X1175000Y1785000D01*
X1185000D01*
X1175000Y1795000D01*
X1185000Y1805000D01*
X1175000D01*
X1165000Y1815000D01*
X1155000Y1805000D01*
X1145000D01*
X1155000Y1795000D01*
X1145000Y1785000D01*
X1155000D01*
X1165000Y1775000D01*
X525000D02*
X535000Y1785000D01*
X545000D01*
X535000Y1795000D01*
X545000Y1805000D01*
X535000D01*
X525000Y1815000D01*
X515000Y1805000D01*
X505000D01*
X515000Y1795000D01*
X505000Y1785000D01*
X515000D01*
X525000Y1775000D01*
X605000D02*
X615000Y1785000D01*
X625000D01*
X615000Y1795000D01*
X625000Y1805000D01*
X615000D01*
X605000Y1815000D01*
X595000Y1805000D01*
X585000D01*
X595000Y1795000D01*
X585000Y1785000D01*
X595000D01*
X605000Y1775000D01*
X685000D02*
X695000Y1785000D01*
X705000D01*
X695000Y1795000D01*
X705000Y1805000D01*
X695000D01*
X685000Y1815000D01*
X675000Y1805000D01*
X665000D01*
X675000Y1795000D01*
X665000Y1785000D01*
X675000D01*
X685000Y1775000D01*
X765000D02*
X775000Y1785000D01*
X785000D01*
X775000Y1795000D01*
X785000Y1805000D01*
X775000D01*
X765000Y1815000D01*
X755000Y1805000D01*
X745000D01*
X755000Y1795000D01*
X745000Y1785000D01*
X755000D01*
X765000Y1775000D01*
X445000D02*
X455000Y1785000D01*
X465000D01*
X455000Y1795000D01*
X465000Y1805000D01*
X455000D01*
X445000Y1815000D01*
X435000Y1805000D01*
X425000D01*
X435000Y1795000D01*
X425000Y1785000D01*
X435000D01*
X445000Y1775000D01*
X365000D02*
X375000Y1785000D01*
X385000D01*
X375000Y1795000D01*
X385000Y1805000D01*
X375000D01*
X365000Y1815000D01*
X355000Y1805000D01*
X345000D01*
X355000Y1795000D01*
X345000Y1785000D01*
X355000D01*
X365000Y1775000D01*
X285000D02*
X295000Y1785000D01*
X305000D01*
X295000Y1795000D01*
X305000Y1805000D01*
X295000D01*
X285000Y1815000D01*
X275000Y1805000D01*
X265000D01*
X275000Y1795000D01*
X265000Y1785000D01*
X275000D01*
X285000Y1775000D01*
X145000Y1645000D02*
X155000Y1655000D01*
X165000D01*
X155000Y1665000D01*
X165000Y1675000D01*
X155000D01*
X145000Y1685000D01*
X135000Y1675000D01*
X125000D01*
X135000Y1665000D01*
X125000Y1655000D01*
X135000D01*
X145000Y1645000D01*
X55000D02*
X65000Y1655000D01*
X75000D01*
X65000Y1665000D01*
X75000Y1675000D01*
X65000D01*
X55000Y1685000D01*
X45000Y1675000D01*
X35000D01*
X45000Y1665000D01*
X35000Y1655000D01*
X45000D01*
X55000Y1645000D01*
Y1735000D02*
X65000Y1745000D01*
X75000D01*
X65000Y1755000D01*
X75000Y1765000D01*
X65000D01*
X55000Y1775000D01*
X45000Y1765000D01*
X35000D01*
X45000Y1755000D01*
X35000Y1745000D01*
X45000D01*
X55000Y1735000D01*
X145000D02*
X155000Y1745000D01*
X165000D01*
X155000Y1755000D01*
X165000Y1765000D01*
X155000D01*
X145000Y1775000D01*
X135000Y1765000D01*
X125000D01*
X135000Y1755000D01*
X125000Y1745000D01*
X135000D01*
X145000Y1735000D01*
X160000Y1690000D02*
X170000Y1700000D01*
X180000D01*
X170000Y1710000D01*
X180000Y1720000D01*
X170000D01*
X160000Y1730000D01*
X150000Y1720000D01*
X140000D01*
X150000Y1710000D01*
X140000Y1700000D01*
X150000D01*
X160000Y1690000D01*
X35000Y1685000D02*
X45000Y1695000D01*
X55000D01*
X45000Y1705000D01*
X55000Y1715000D01*
X45000D01*
X35000Y1725000D01*
X25000Y1715000D01*
X15000D01*
X25000Y1705000D01*
X15000Y1695000D01*
X25000D01*
X35000Y1685000D01*
X100000Y1630000D02*
X110000Y1640000D01*
X120000D01*
X110000Y1650000D01*
X120000Y1660000D01*
X110000D01*
X100000Y1670000D01*
X90000Y1660000D01*
X80000D01*
X90000Y1650000D01*
X80000Y1640000D01*
X90000D01*
X100000Y1630000D01*
Y1750000D02*
X110000Y1760000D01*
X120000D01*
X110000Y1770000D01*
X120000Y1780000D01*
X110000D01*
X100000Y1790000D01*
X90000Y1780000D01*
X80000D01*
X90000Y1770000D01*
X80000Y1760000D01*
X90000D01*
X100000Y1750000D01*
X205000Y1775000D02*
X215000Y1785000D01*
X225000D01*
X215000Y1795000D01*
X225000Y1805000D01*
X215000D01*
X205000Y1815000D01*
X195000Y1805000D01*
X185000D01*
X195000Y1795000D01*
X185000Y1785000D01*
X195000D01*
X205000Y1775000D01*
X991500Y1153500D02*
X971500Y1193500D01*
X1011500D01*
X991500Y1153500D01*
X845000D02*
X825000Y1193500D01*
X865000D01*
X845000Y1153500D01*
X925000Y1155000D02*
X905000Y1195000D01*
X945000D01*
X925000Y1155000D01*
X955000Y1195000D02*
X935000Y1235000D01*
X975000D01*
X955000Y1195000D01*
X1620000Y440000D02*
X1600000Y480000D01*
X1640000D01*
X1620000Y440000D01*
X1665000Y395000D02*
X1645000Y435000D01*
X1685000D01*
X1665000Y395000D01*
X350000Y380000D02*
X330000Y420000D01*
X370000D01*
X350000Y380000D01*
X445000Y550000D02*
X425000Y590000D01*
X465000D01*
X445000Y550000D01*
X315000Y540000D02*
X295000Y580000D01*
X335000D01*
X315000Y540000D01*
X365000Y535000D02*
X345000Y575000D01*
X385000D01*
X365000Y535000D01*
X1595000Y550000D02*
X1575000Y590000D01*
X1615000D01*
X1595000Y550000D01*
X1650000Y540000D02*
X1630000Y580000D01*
X1670000D01*
X1650000Y540000D01*
X1725000Y555000D02*
X1705000Y595000D01*
X1745000D01*
X1725000Y555000D01*
X1225000Y1300000D02*
X1205000Y1340000D01*
X1245000D01*
X1225000Y1300000D01*
X695000D02*
X675000Y1340000D01*
X715000D01*
X695000Y1300000D01*
X890000Y1303000D02*
X870000Y1343000D01*
X910000D01*
X890000Y1303000D01*
X1030000D02*
X1010000Y1343000D01*
X1050000D01*
X1030000Y1303000D01*
X1840000Y1570000D02*
X1820000Y1610000D01*
X1860000D01*
X1840000Y1570000D01*
X1755000D02*
X1735000Y1610000D01*
X1775000D01*
X1755000Y1570000D01*
X1670000D02*
X1650000Y1610000D01*
X1690000D01*
X1670000Y1570000D01*
X1560000Y1573500D02*
X1540000Y1613500D01*
X1580000D01*
X1560000Y1573500D01*
X105000Y1570000D02*
X85000Y1610000D01*
X125000D01*
X105000Y1570000D01*
X190000D02*
X170000Y1610000D01*
X210000D01*
X190000Y1570000D01*
X275000D02*
X255000Y1610000D01*
X295000D01*
X275000Y1570000D01*
X360000D02*
X340000Y1610000D01*
X380000D01*
X360000Y1570000D01*
X1080000Y780000D02*
X1060000Y820000D01*
X1100000D01*
X1080000Y780000D01*
X1220000D02*
X1200000Y820000D01*
X1240000D01*
X1220000Y780000D01*
X700000D02*
X680000Y820000D01*
X720000D01*
X700000Y780000D01*
X840000D02*
X820000Y820000D01*
X860000D01*
X840000Y780000D01*
X700000Y940000D02*
X680000Y980000D01*
X720000D01*
X700000Y940000D01*
X840000D02*
X820000Y980000D01*
X860000D01*
X840000Y940000D01*
X160000Y790000D02*
X140000Y830000D01*
X180000D01*
X160000Y790000D01*
X100000D02*
X80000Y830000D01*
X120000D01*
X100000Y790000D01*
X1560000Y1520000D02*
X1540000Y1560000D01*
X1580000D01*
X1560000Y1520000D01*
X1670000Y1516500D02*
X1650000Y1556500D01*
X1690000D01*
X1670000Y1516500D01*
X1755000D02*
X1735000Y1556500D01*
X1775000D01*
X1755000Y1516500D01*
X1840000D02*
X1820000Y1556500D01*
X1860000D01*
X1840000Y1516500D01*
X355000D02*
X335000Y1556500D01*
X375000D01*
X355000Y1516500D01*
X270000D02*
X250000Y1556500D01*
X290000D01*
X270000Y1516500D01*
X185000D02*
X165000Y1556500D01*
X205000D01*
X185000Y1516500D01*
X100000D02*
X80000Y1556500D01*
X120000D01*
X100000Y1516500D01*
X1481260Y1575000D02*
X1461260Y1615000D01*
X1501260D01*
X1481260Y1575000D01*
X1060000D02*
X1040000Y1615000D01*
X1080000D01*
X1060000Y1575000D01*
X875000D02*
X855000Y1615000D01*
X895000D01*
X875000Y1575000D01*
X453740D02*
X433740Y1615000D01*
X473740D01*
X453740Y1575000D01*
X1148780Y1505000D02*
X1128780Y1545000D01*
X1168780D01*
X1148780Y1505000D01*
Y1565000D02*
X1128780Y1605000D01*
X1168780D01*
X1148780Y1565000D01*
Y1620000D02*
X1128780Y1660000D01*
X1168780D01*
X1148780Y1620000D01*
X1213780D02*
X1193780Y1660000D01*
X1233780D01*
X1213780Y1620000D01*
Y1565000D02*
X1193780Y1605000D01*
X1233780D01*
X1213780Y1565000D01*
Y1505000D02*
X1193780Y1545000D01*
X1233780D01*
X1213780Y1505000D01*
X1152520Y1399803D02*
X1132520Y1439803D01*
X1172520D01*
X1152520Y1399803D01*
X1231260D02*
X1211260Y1439803D01*
X1251260D01*
X1231260Y1399803D01*
X542520Y1505000D02*
X522520Y1545000D01*
X562520D01*
X542520Y1505000D01*
Y1565000D02*
X522520Y1605000D01*
X562520D01*
X542520Y1565000D01*
Y1620000D02*
X522520Y1660000D01*
X562520D01*
X542520Y1620000D01*
X607520D02*
X587520Y1660000D01*
X627520D01*
X607520Y1620000D01*
Y1565000D02*
X587520Y1605000D01*
X627520D01*
X607520Y1565000D01*
Y1505000D02*
X587520Y1545000D01*
X627520D01*
X607520Y1505000D01*
X546260Y1399803D02*
X526260Y1439803D01*
X566260D01*
X546260Y1399803D01*
X625000D02*
X605000Y1439803D01*
X645000D01*
X625000Y1399803D01*
X336500Y430000D02*
X316500Y470000D01*
X356500D01*
X336500Y430000D01*
X1563630Y655559D02*
X1543630Y695559D01*
X1583630D01*
X1563630Y655559D01*
X1671898D02*
X1651898Y695559D01*
X1691898D01*
X1671898Y655559D01*
X1492134Y675410D02*
X1472134Y715410D01*
X1512134D01*
X1492134Y675410D01*
X1412134Y705410D02*
X1392134Y745410D01*
X1432134D01*
X1412134Y705410D01*
X1822134D02*
X1802134Y745410D01*
X1842134D01*
X1822134Y705410D01*
X1742134Y675410D02*
X1722134Y715410D01*
X1762134D01*
X1742134Y675410D01*
X1492134Y707410D02*
X1472134Y747410D01*
X1512134D01*
X1492134Y707410D01*
X1382134Y757410D02*
X1362134Y797410D01*
X1402134D01*
X1382134Y757410D01*
X1442134D02*
X1422134Y797410D01*
X1462134D01*
X1442134Y757410D01*
X1382134Y797410D02*
X1362134Y837410D01*
X1402134D01*
X1382134Y797410D01*
X1442134D02*
X1422134Y837410D01*
X1462134D01*
X1442134Y797410D01*
X1852134D02*
X1832134Y837410D01*
X1872134D01*
X1852134Y797410D01*
X1792134D02*
X1772134Y837410D01*
X1812134D01*
X1792134Y797410D01*
X1852134Y757410D02*
X1832134Y797410D01*
X1872134D01*
X1852134Y757410D01*
X1792134D02*
X1772134Y797410D01*
X1812134D01*
X1792134Y757410D01*
X510000Y750000D02*
X490000Y790000D01*
X530000D01*
X510000Y750000D01*
X570000D02*
X550000Y790000D01*
X590000D01*
X570000Y750000D01*
X510000Y790000D02*
X490000Y830000D01*
X530000D01*
X510000Y790000D01*
X570000D02*
X550000Y830000D01*
X590000D01*
X570000Y790000D01*
X160000Y750000D02*
X140000Y790000D01*
X180000D01*
X160000Y750000D01*
X100000D02*
X80000Y790000D01*
X120000D01*
X100000Y750000D01*
X210000Y700000D02*
X190000Y740000D01*
X230000D01*
X210000Y700000D01*
X460000Y668000D02*
X440000Y708000D01*
X480000D01*
X460000Y668000D01*
X540000Y698000D02*
X520000Y738000D01*
X560000D01*
X540000Y698000D01*
X130000D02*
X110000Y738000D01*
X150000D01*
X130000Y698000D01*
X210000Y668000D02*
X190000Y708000D01*
X230000D01*
X210000Y668000D01*
X389764Y648150D02*
X369764Y688150D01*
X409764D01*
X389764Y648150D01*
X281496D02*
X261496Y688150D01*
X301496D01*
X281496Y648150D01*
X1310000Y990000D02*
X1290000Y1030000D01*
X1330000D01*
X1310000Y990000D01*
Y940000D02*
X1290000Y980000D01*
X1330000D01*
X1310000Y940000D01*
Y890000D02*
X1290000Y930000D01*
X1330000D01*
X1310000Y890000D01*
X1150000Y791850D02*
X1130000Y831850D01*
X1170000D01*
X1150000Y791850D01*
X1080000Y890000D02*
X1060000Y930000D01*
X1100000D01*
X1080000Y890000D01*
Y830000D02*
X1060000Y870000D01*
X1100000D01*
X1080000Y830000D01*
Y730000D02*
X1060000Y770000D01*
X1100000D01*
X1080000Y730000D01*
X1220000D02*
X1200000Y770000D01*
X1240000D01*
X1220000Y730000D01*
Y830000D02*
X1200000Y870000D01*
X1240000D01*
X1220000Y830000D01*
Y890000D02*
X1200000Y930000D01*
X1240000D01*
X1220000Y890000D01*
X840000Y990000D02*
X820000Y1030000D01*
X860000D01*
X840000Y990000D01*
Y890000D02*
X820000Y930000D01*
X860000D01*
X840000Y890000D01*
Y830000D02*
X820000Y870000D01*
X860000D01*
X840000Y830000D01*
Y730000D02*
X820000Y770000D01*
X860000D01*
X840000Y730000D01*
X700000D02*
X680000Y770000D01*
X720000D01*
X700000Y730000D01*
Y830000D02*
X680000Y870000D01*
X720000D01*
X700000Y830000D01*
Y890000D02*
X680000Y930000D01*
X720000D01*
X700000Y890000D01*
Y990000D02*
X680000Y1030000D01*
X720000D01*
X700000Y990000D01*
X770000Y791850D02*
X750000Y831850D01*
X790000D01*
X770000Y791850D01*
Y950000D02*
X750000Y990000D01*
X790000D01*
X770000Y950000D01*
X1471260Y190000D02*
X1451260Y230000D01*
X1491260D01*
X1471260Y190000D01*
X1050000D02*
X1030000Y230000D01*
X1070000D01*
X1050000Y190000D01*
X870000D02*
X850000Y230000D01*
X890000D01*
X870000Y190000D01*
X448740D02*
X428740Y230000D01*
X468740D01*
X448740Y190000D01*
X1381260Y280000D02*
X1361260Y320000D01*
X1401260D01*
X1381260Y280000D01*
Y220000D02*
X1361260Y260000D01*
X1401260D01*
X1381260Y220000D01*
Y160000D02*
X1361260Y200000D01*
X1401260D01*
X1381260Y160000D01*
X1301260Y280000D02*
X1281260Y320000D01*
X1321260D01*
X1301260Y280000D01*
Y220000D02*
X1281260Y260000D01*
X1321260D01*
X1301260Y220000D01*
Y160000D02*
X1281260Y200000D01*
X1321260D01*
X1301260Y160000D01*
X1300000Y365197D02*
X1280000Y405197D01*
X1320000D01*
X1300000Y365197D01*
X1378740D02*
X1358740Y405197D01*
X1398740D01*
X1378740Y365197D01*
X777480D02*
X757480Y405197D01*
X797480D01*
X777480Y365197D01*
X698740D02*
X678740Y405197D01*
X718740D01*
X698740Y365197D01*
X700000Y160000D02*
X680000Y200000D01*
X720000D01*
X700000Y160000D01*
Y220000D02*
X680000Y260000D01*
X720000D01*
X700000Y220000D01*
Y280000D02*
X680000Y320000D01*
X720000D01*
X700000Y280000D01*
X780000Y160000D02*
X760000Y200000D01*
X800000D01*
X780000Y160000D01*
Y220000D02*
X760000Y260000D01*
X800000D01*
X780000Y220000D01*
Y280000D02*
X760000Y320000D01*
X800000D01*
X780000Y280000D01*
X1492134Y602410D02*
X1472134Y642410D01*
X1512134D01*
X1492134Y602410D01*
X760000Y1120000D02*
X740000Y1160000D01*
X780000D01*
X760000Y1120000D01*
Y1170000D02*
X740000Y1210000D01*
X780000D01*
X760000Y1170000D01*
X1430000D02*
X1410000Y1210000D01*
X1450000D01*
X1430000Y1170000D01*
Y1070000D02*
X1410000Y1110000D01*
X1450000D01*
X1430000Y1070000D01*
X1490000Y1120000D02*
X1470000Y1160000D01*
X1510000D01*
X1490000Y1120000D01*
X1380000Y1110000D02*
X1360000Y1150000D01*
X1400000D01*
X1380000Y1110000D01*
X1340000D02*
X1320000Y1150000D01*
X1360000D01*
X1340000Y1110000D01*
X1430000Y1120000D02*
X1410000Y1160000D01*
X1450000D01*
X1430000Y1120000D01*
X1380000Y1070000D02*
X1360000Y1110000D01*
X1400000D01*
X1380000Y1070000D01*
Y1150000D02*
X1360000Y1190000D01*
X1400000D01*
X1380000Y1150000D01*
X1340000D02*
X1320000Y1190000D01*
X1360000D01*
X1340000Y1150000D01*
Y1070000D02*
X1320000Y1110000D01*
X1360000D01*
X1340000Y1070000D01*
X1490000D02*
X1470000Y1110000D01*
X1510000D01*
X1490000Y1070000D01*
Y1170000D02*
X1470000Y1210000D01*
X1510000D01*
X1490000Y1170000D01*
X760000Y1070000D02*
X740000Y1110000D01*
X780000D01*
X760000Y1070000D01*
X610000D02*
X590000Y1110000D01*
X630000D01*
X610000Y1070000D01*
Y1150000D02*
X590000Y1190000D01*
X630000D01*
X610000Y1150000D01*
X650000D02*
X630000Y1190000D01*
X670000D01*
X650000Y1150000D01*
Y1070000D02*
X630000Y1110000D01*
X670000D01*
X650000Y1070000D01*
X700000Y1120000D02*
X680000Y1160000D01*
X720000D01*
X700000Y1120000D01*
X610000Y1110000D02*
X590000Y1150000D01*
X630000D01*
X610000Y1110000D01*
X650000D02*
X630000Y1150000D01*
X670000D01*
X650000Y1110000D01*
X700000Y1070000D02*
X680000Y1110000D01*
X720000D01*
X700000Y1070000D01*
Y1170000D02*
X680000Y1210000D01*
X720000D01*
X700000Y1170000D01*
X1388740Y1399803D02*
X1368740Y1439803D01*
X1408740D01*
X1388740Y1399803D01*
X1310000D02*
X1290000Y1439803D01*
X1330000D01*
X1310000Y1399803D01*
X1480000Y1365000D02*
X1460000Y1405000D01*
X1500000D01*
X1480000Y1365000D01*
Y1430000D02*
X1460000Y1470000D01*
X1500000D01*
X1480000Y1430000D01*
X1430000D02*
X1410000Y1470000D01*
X1450000D01*
X1430000Y1430000D01*
Y1365000D02*
X1410000Y1405000D01*
X1450000D01*
X1430000Y1365000D01*
X1310000Y1505000D02*
X1290000Y1545000D01*
X1330000D01*
X1310000Y1505000D01*
Y1565000D02*
X1290000Y1605000D01*
X1330000D01*
X1310000Y1565000D01*
Y1620000D02*
X1290000Y1660000D01*
X1330000D01*
X1310000Y1620000D01*
X1375000D02*
X1355000Y1660000D01*
X1395000D01*
X1375000Y1620000D01*
Y1565000D02*
X1355000Y1605000D01*
X1395000D01*
X1375000Y1565000D01*
Y1505000D02*
X1355000Y1545000D01*
X1395000D01*
X1375000Y1505000D01*
X830000Y1370000D02*
X810000Y1410000D01*
X850000D01*
X830000Y1370000D01*
Y1435000D02*
X810000Y1475000D01*
X850000D01*
X830000Y1435000D01*
X880000D02*
X860000Y1475000D01*
X900000D01*
X880000Y1435000D01*
Y1370000D02*
X860000Y1410000D01*
X900000D01*
X880000Y1370000D01*
X782480Y1399803D02*
X762480Y1439803D01*
X802480D01*
X782480Y1399803D01*
X703740D02*
X683740Y1439803D01*
X723740D01*
X703740Y1399803D01*
X765000Y1505000D02*
X745000Y1545000D01*
X785000D01*
X765000Y1505000D01*
Y1565000D02*
X745000Y1605000D01*
X785000D01*
X765000Y1565000D01*
Y1620000D02*
X745000Y1660000D01*
X785000D01*
X765000Y1620000D01*
X700000D02*
X680000Y1660000D01*
X720000D01*
X700000Y1620000D01*
Y1565000D02*
X680000Y1605000D01*
X720000D01*
X700000Y1565000D01*
Y1505000D02*
X680000Y1545000D01*
X720000D01*
X700000Y1505000D01*
X150000Y510000D02*
X130000Y550000D01*
X170000D01*
X150000Y510000D01*
Y550000D02*
X130000Y590000D01*
X170000D01*
X150000Y550000D01*
X115000Y510000D02*
X95000Y550000D01*
X135000D01*
X115000Y510000D01*
Y550000D02*
X95000Y590000D01*
X135000D01*
X115000Y550000D01*
X76000Y510000D02*
X56000Y550000D01*
X96000D01*
X76000Y510000D01*
X80000Y550000D02*
X60000Y590000D01*
X100000D01*
X80000Y550000D01*
X210000Y595000D02*
X190000Y635000D01*
X230000D01*
X210000Y595000D01*
X130000D02*
X110000Y635000D01*
X150000D01*
X130000Y595000D01*
X1820000Y530000D02*
X1800000Y570000D01*
X1840000D01*
X1820000Y530000D01*
X1860000D02*
X1840000Y570000D01*
X1880000D01*
X1860000Y530000D01*
X1780000D02*
X1760000Y570000D01*
X1800000D01*
X1780000Y530000D01*
X1860000Y560000D02*
X1840000Y600000D01*
X1880000D01*
X1860000Y560000D01*
X1820000D02*
X1800000Y600000D01*
X1840000D01*
X1820000Y560000D01*
X1780000D02*
X1760000Y600000D01*
X1800000D01*
X1780000Y560000D01*
X1742134Y602410D02*
X1722134Y642410D01*
X1762134D01*
X1742134Y602410D01*
X1822134D02*
X1802134Y642410D01*
X1842134D01*
X1822134Y602410D01*
X1230000Y610000D02*
X1210000Y650000D01*
X1250000D01*
X1230000Y610000D01*
Y550000D02*
X1210000Y590000D01*
X1250000D01*
X1230000Y550000D01*
Y490000D02*
X1210000Y530000D01*
X1250000D01*
X1230000Y490000D01*
X1150000D02*
X1130000Y530000D01*
X1170000D01*
X1150000Y490000D01*
X1070000D02*
X1050000Y530000D01*
X1090000D01*
X1070000Y490000D01*
Y610000D02*
X1050000Y650000D01*
X1090000D01*
X1070000Y610000D01*
Y550000D02*
X1050000Y590000D01*
X1090000D01*
X1070000Y550000D01*
X1412134Y602410D02*
X1392134Y642410D01*
X1432134D01*
X1412134Y602410D01*
X1150000Y595000D02*
X1130000Y635000D01*
X1170000D01*
X1150000Y595000D01*
X1221260Y365197D02*
X1201260Y405197D01*
X1241260D01*
X1221260Y365197D01*
X1142520D02*
X1122520Y405197D01*
X1162520D01*
X1142520Y365197D01*
X1141260Y160000D02*
X1121260Y200000D01*
X1161260D01*
X1141260Y160000D01*
Y220000D02*
X1121260Y260000D01*
X1161260D01*
X1141260Y220000D01*
Y280000D02*
X1121260Y320000D01*
X1161260D01*
X1141260Y280000D01*
X1221260Y160000D02*
X1201260Y200000D01*
X1241260D01*
X1221260Y160000D01*
Y220000D02*
X1201260Y260000D01*
X1241260D01*
X1221260Y220000D01*
Y280000D02*
X1201260Y320000D01*
X1241260D01*
X1221260Y280000D01*
X841239Y594918D02*
X821239Y634918D01*
X861239D01*
X841239Y594918D01*
X840000Y550000D02*
X820000Y590000D01*
X860000D01*
X840000Y550000D01*
Y640000D02*
X820000Y680000D01*
X860000D01*
X840000Y640000D01*
X770000D02*
X750000Y680000D01*
X790000D01*
X770000Y640000D01*
Y550000D02*
X750000Y590000D01*
X790000D01*
X770000Y550000D01*
X690000Y540000D02*
X670000Y580000D01*
X710000D01*
X690000Y540000D01*
X650000Y500000D02*
X630000Y540000D01*
X670000D01*
X650000Y500000D01*
X610000Y460000D02*
X590000Y500000D01*
X630000D01*
X610000Y460000D01*
X640000Y580000D02*
X620000Y620000D01*
X660000D01*
X640000Y580000D01*
X600000Y540000D02*
X580000Y580000D01*
X620000D01*
X600000Y540000D01*
X560000Y500000D02*
X540000Y540000D01*
X580000D01*
X560000Y500000D01*
X770000Y595000D02*
X750000Y635000D01*
X790000D01*
X770000Y595000D01*
X540000D02*
X520000Y635000D01*
X560000D01*
X540000Y595000D01*
X620000Y365197D02*
X600000Y405197D01*
X640000D01*
X620000Y365197D01*
X541260D02*
X521260Y405197D01*
X561260D01*
X541260Y365197D01*
X620000Y280000D02*
X600000Y320000D01*
X640000D01*
X620000Y280000D01*
Y220000D02*
X600000Y260000D01*
X640000D01*
X620000Y220000D01*
Y160000D02*
X600000Y200000D01*
X640000D01*
X620000Y160000D01*
X540000Y280000D02*
X520000Y320000D01*
X560000D01*
X540000Y280000D01*
Y220000D02*
X520000Y260000D01*
X560000D01*
X540000Y220000D01*
Y160000D02*
X520000Y200000D01*
X560000D01*
X540000Y160000D01*
D78*
X1145000Y1000000D02*
G03*
X1145000Y1000000I-20000J0D01*
G01*
X400000Y1025000D02*
G03*
X400000Y1025000I-20000J0D01*
G01*
X1690000Y1665000D02*
G03*
X1690000Y1665000I-20000J0D01*
G01*
X280000D02*
G03*
X280000Y1665000I-20000J0D01*
G01*
X985000Y1549000D02*
G03*
X985000Y1549000I-20000J0D01*
G01*
Y1694528D02*
G03*
X985000Y1694528I-20000J0D01*
G01*
X1690000Y1433500D02*
G03*
X1690000Y1433500I-20000J0D01*
G01*
X1620000Y1635945D02*
G03*
X1620000Y1635945I-20000J0D01*
G01*
X290000Y1433500D02*
G03*
X290000Y1433500I-20000J0D01*
G01*
X345000Y1640945D02*
G03*
X345000Y1640945I-20000J0D01*
G01*
X400000Y1100000D02*
G03*
X400000Y1100000I-20000J0D01*
G01*
X1140000Y1080000D02*
G03*
X1140000Y1080000I-20000J0D01*
G01*
X1677134Y932410D02*
G03*
X1677134Y932410I-20000J0D01*
G01*
X1702134D02*
G03*
X1702134Y932410I-20000J0D01*
G01*
X1727134D02*
G03*
X1727134Y932410I-20000J0D01*
G01*
X1748540Y932063D02*
G03*
X1748540Y932063I-20000J0D01*
G01*
X1760701Y912410D02*
G03*
X1760701Y912410I-20000J0D01*
G01*
X1652134Y932410D02*
G03*
X1652134Y932410I-20000J0D01*
G01*
X1627134D02*
G03*
X1627134Y932410I-20000J0D01*
G01*
X1602134D02*
G03*
X1602134Y932410I-20000J0D01*
G01*
X1577134D02*
G03*
X1577134Y932410I-20000J0D01*
G01*
X1512134Y837410D02*
G03*
X1512134Y837410I-20000J0D01*
G01*
Y862410D02*
G03*
X1512134Y862410I-20000J0D01*
G01*
Y887410D02*
G03*
X1512134Y887410I-20000J0D01*
G01*
X1760701Y837410D02*
G03*
X1760701Y837410I-20000J0D01*
G01*
Y862410D02*
G03*
X1760701Y862410I-20000J0D01*
G01*
Y887410D02*
G03*
X1760701Y887410I-20000J0D01*
G01*
X1552134Y932410D02*
G03*
X1552134Y932410I-20000J0D01*
G01*
X1527134D02*
G03*
X1527134Y932410I-20000J0D01*
G01*
X1512134Y912410D02*
G03*
X1512134Y912410I-20000J0D01*
G01*
X1572134Y722410D02*
G03*
X1572134Y722410I-20000J0D01*
G01*
X1552134Y742410D02*
G03*
X1552134Y742410I-20000J0D01*
G01*
X1532134Y762410D02*
G03*
X1532134Y762410I-20000J0D01*
G01*
X1517134Y782410D02*
G03*
X1517134Y782410I-20000J0D01*
G01*
X1512134Y812410D02*
G03*
X1512134Y812410I-20000J0D01*
G01*
X1760701D02*
G03*
X1760701Y812410I-20000J0D01*
G01*
X1757134Y782410D02*
G03*
X1757134Y782410I-20000J0D01*
G01*
X1740701Y762410D02*
G03*
X1740701Y762410I-20000J0D01*
G01*
X1720701Y742410D02*
G03*
X1720701Y742410I-20000J0D01*
G01*
X1700701Y722410D02*
G03*
X1700701Y722410I-20000J0D01*
G01*
X466406Y924654D02*
G03*
X466406Y924654I-20000J0D01*
G01*
X418567Y715000D02*
G03*
X418567Y715000I-20000J0D01*
G01*
X438567Y735000D02*
G03*
X438567Y735000I-20000J0D01*
G01*
X458567Y755000D02*
G03*
X458567Y755000I-20000J0D01*
G01*
X475000Y775000D02*
G03*
X475000Y775000I-20000J0D01*
G01*
X478567Y805000D02*
G03*
X478567Y805000I-20000J0D01*
G01*
Y830000D02*
G03*
X478567Y830000I-20000J0D01*
G01*
Y855000D02*
G03*
X478567Y855000I-20000J0D01*
G01*
Y880000D02*
G03*
X478567Y880000I-20000J0D01*
G01*
Y905000D02*
G03*
X478567Y905000I-20000J0D01*
G01*
X445000Y925000D02*
G03*
X445000Y925000I-20000J0D01*
G01*
X420000D02*
G03*
X420000Y925000I-20000J0D01*
G01*
X395000D02*
G03*
X395000Y925000I-20000J0D01*
G01*
X370000D02*
G03*
X370000Y925000I-20000J0D01*
G01*
X345000D02*
G03*
X345000Y925000I-20000J0D01*
G01*
X320000D02*
G03*
X320000Y925000I-20000J0D01*
G01*
X295000D02*
G03*
X295000Y925000I-20000J0D01*
G01*
X270000D02*
G03*
X270000Y925000I-20000J0D01*
G01*
X245000D02*
G03*
X245000Y925000I-20000J0D01*
G01*
X230000Y905000D02*
G03*
X230000Y905000I-20000J0D01*
G01*
Y880000D02*
G03*
X230000Y880000I-20000J0D01*
G01*
Y855000D02*
G03*
X230000Y855000I-20000J0D01*
G01*
Y830000D02*
G03*
X230000Y830000I-20000J0D01*
G01*
Y805000D02*
G03*
X230000Y805000I-20000J0D01*
G01*
X235000Y775000D02*
G03*
X235000Y775000I-20000J0D01*
G01*
X250000Y755000D02*
G03*
X250000Y755000I-20000J0D01*
G01*
X270000Y735000D02*
G03*
X270000Y735000I-20000J0D01*
G01*
X290000Y715000D02*
G03*
X290000Y715000I-20000J0D01*
G01*
%TF.MD5,dd12414838744bffc4da30d4fe77f4b5*%
M02*
