M48
;Layer_Color=9474304
;FILE_FORMAT=4:2
METRIC,LZ
;TYPE=PLATED
T01F00S00C0.15
T02F00S00C0.20
T03F00S00C0.25
T04F00S00C2.03
%
T01
X002858Y00254
X002845Y002743
X003828Y002368
X003892
X003955
X004019
X004082
X004146
X004209
X004273
X004336
X00439Y002367
X004421Y002318
Y002254
Y002191
Y002127
Y002064
X004412Y001987
X004371Y001937
X00432Y001886
X004269Y001835
X003942
X003892Y001886
X003841Y001937
X003803Y001987
X00379Y002064
Y002127
Y002191
Y002254
Y002318
X004242Y003641
Y004229
X004064Y004155
X002451Y004304
Y003934
X000826Y004168
X00066Y004229
X000686Y003641
X000965Y002794
Y002603
X000952Y00235
X001016
X00108
X001134Y002349
X001165Y002299
Y002235
Y002172
Y002108
Y002045
X001156Y001968
X001114Y001918
X001063Y001867
X001012Y001816
X000686
X000635Y001867
X000584Y001918
X000546Y001968
X000533Y002045
Y002108
Y002172
Y002235
Y002299
X000572Y00235
X000635
X000699
X000762
X000826
X000889
T02
X00014Y00014
X000254Y000102
X000368Y00014
X000406Y000254
X000368Y000368
X000254Y000406
X00014Y000368
X000051Y000457
Y00066
Y000864
Y001067
Y00127
X000089Y000241
X000521Y000051
X000724
X000927
X00113
X001334
X001537
X00174
X001943
X002146
X00235
X002553
X002756
X002959
X003162
X003365
X003569
X003772
X003975
X004178
X004381
X004559Y00014
X004674Y000102
X004788Y00014
X004826Y000254
X004788Y000368
X004674Y000406
X004559Y000368
X004508Y000241
X00489Y000483
Y000686
Y000889
Y001092
Y001295
Y001499
Y001702
Y001905
Y002108
Y002311
Y002515
Y002718
Y002921
Y003124
Y003327
Y003531
Y003734
Y003937
Y00414
X004788Y004229
X004674Y004191
X004559Y004229
X004508Y004331
X004559Y004458
X004674Y004496
X004788Y004458
X004826Y004343
X004381Y004559
X004178
X003975
X003772
X003569
X003365
X003162
X002959
X002756
X002553
X00235
X002146
X001943
X00174
X001537
X001334
X00113
X000927
X000724
X000521
X000368Y004458
X000406Y004343
X000368Y004229
X000254Y004191
X00014Y004229
X000089Y004331
X00014Y004458
X000254Y004496
X000051Y004115
Y003912
Y003708
Y003505
Y003302
Y003099
Y002896
Y002692
Y002489
Y002286
Y002083
Y00188
Y001676
Y001473
T03
X000193Y001346
X000292
X000381
Y001448
X000292
X000203
X0008Y001422
X000927Y00141
X00113Y001448
X001422Y001321
X001375Y000978
X001372Y000762
Y00061
Y000457
X00114Y000533
X000889Y001016
X000855Y001143
X001549Y001219
X001651Y001321
X001753Y001422
X001956Y001448
X002134
X002718
Y001295
X002921
X003124
Y001448
X003102Y000978
X002902
X002899Y000762
Y00061
Y000457
X003102
Y00061
Y000762
X003305
Y00061
Y000457
X003508
Y00061
Y000762
X003502Y000978
X003302
X003737Y000533
X004115Y001168
X004229Y001054
X004191Y001422
X004051Y001448
X004521Y001397
X004623
X004724
X002667Y000533
X00221
X001981Y000457
Y00061
Y000762
X001778
Y00061
Y000457
X001575
Y00061
Y000762
Y000978
X001775
X001975
X001524Y001422
X001626Y001524
X001956Y001562
Y001676
X002134
X002137Y001562
X002134Y001905
Y002032
Y002159
Y002311
Y002438
Y002565
X001956Y002464
X001778Y002438
Y002311
Y002159
Y002032
Y001905
X001956Y002062
X001778Y002565
Y002769
X001651
X001549
Y00287
Y002972
X001651
Y00287
X001778Y002896
Y003023
X00193
Y002896
Y002769
X002146Y002981
X00235Y002984
X002518Y002981
X002426Y003086
X002261Y00336
X002235Y003531
X002108
Y003696
X002235
X001988Y003606
X001788
X001588
X001543Y003874
Y004026
Y004166
X001778
Y004026
Y003874
X001943
Y004026
Y004166
X002223Y004051
X002692
X002918Y004026
Y004166
X003083
Y004026
Y003874
X002918
X002927Y003606
X003127
X003327
X003527
X003632Y003683
X003759
Y003518
X003632
X003467Y003251
X003391
X003315
X003111Y003353
X002616Y00336
X001765Y003353
X001613Y003251
X001537
X00146
X002743Y002311
Y002159
Y002032
Y001905
X002718Y0016
X002921Y001562
X003124Y0016
X003099Y001905
Y002032
Y002159
Y002311
X003327
Y002438
Y002565
X003404Y002769
Y00287
X003505
Y002769
X003632
Y002896
Y003023
X003785
Y002896
Y002769
X003505Y002972
X003404
X003327Y003874
Y004026
Y004166
X003492
Y004026
Y003874
X003762Y004051
X003962Y004047
Y003912
X004242Y003903
Y004039
X004458
Y003903
X004674
Y004039
X004704Y002076
Y001975
X004552
Y002076
X004628Y001843
Y001581
X004623Y001473
X004724
X004521
X004381Y00146
X004425Y001581
Y001766
X004247Y001716
X003972
X00379Y001766
Y001848
X003587Y001843
X003511Y001975
Y002076
X003663
Y001975
X003587Y001581
X00379
X002921Y002062
X001448Y002057
Y001956
X001295
Y002057
X001372Y001824
Y001562
X001168Y001748
X00099Y001697
X000715
X000533Y001748
Y001829
X00033Y001824
X000406Y001956
Y002057
X000254
Y001956
X00033Y001562
X000533
X00047Y003903
X000483Y004039
X000267
X000254Y003903
X000686
X000699Y004039
X000914
X000902Y003903
X001152Y004051
X001378Y004026
Y004166
Y003874
X001388Y003606
T04
X000254Y000254
X004674
Y004343
X000254
M30
