%TF.GenerationSoftware,Altium Limited,Altium Designer,25.1.2 (22)*%
G04 Layer_Physical_Order=1*
G04 Layer_Color=255*
%FSLAX26Y26*%
%MOIN*%
%TF.SameCoordinates,B55DE1B5-5D27-457A-AB8C-2CA5C84F2FA2*%
%TF.FilePolarity,Positive*%
%TF.FileFunction,Copper,L1,Top,Signal*%
%TF.Part,Single*%
G01*
G75*
%TA.AperFunction,SMDPad,CuDef*%
%ADD10R,0.212598X0.114173*%
%TA.AperFunction,SMDPad,SMDef*%
%ADD11R,0.071000X0.150000*%
%TA.AperFunction,SMDPad,CuDef*%
%ADD12R,0.039000X0.106000*%
%ADD13R,0.031496X0.031496*%
%ADD14R,0.019685X0.019685*%
%ADD15R,0.019685X0.019685*%
%ADD16R,0.062992X0.125984*%
%ADD17R,0.022000X0.035000*%
%ADD18R,0.075000X0.063000*%
%ADD19R,0.057000X0.022000*%
G04:AMPARAMS|DCode=20|XSize=15.748mil|YSize=15.748mil|CornerRadius=3.937mil|HoleSize=0mil|Usage=FLASHONLY|Rotation=0.000|XOffset=0mil|YOffset=0mil|HoleType=Round|Shape=RoundedRectangle|*
%AMROUNDEDRECTD20*
21,1,0.015748,0.007874,0,0,0.0*
21,1,0.007874,0.015748,0,0,0.0*
1,1,0.007874,0.003937,-0.003937*
1,1,0.007874,-0.003937,-0.003937*
1,1,0.007874,-0.003937,0.003937*
1,1,0.007874,0.003937,0.003937*
%
%ADD20ROUNDEDRECTD20*%
G04:AMPARAMS|DCode=21|XSize=42.323mil|YSize=15.748mil|CornerRadius=3.937mil|HoleSize=0mil|Usage=FLASHONLY|Rotation=0.000|XOffset=0mil|YOffset=0mil|HoleType=Round|Shape=RoundedRectangle|*
%AMROUNDEDRECTD21*
21,1,0.042323,0.007874,0,0,0.0*
21,1,0.034449,0.015748,0,0,0.0*
1,1,0.007874,0.017224,-0.003937*
1,1,0.007874,-0.017224,-0.003937*
1,1,0.007874,-0.017224,0.003937*
1,1,0.007874,0.017224,0.003937*
%
%ADD21ROUNDEDRECTD21*%
G04:AMPARAMS|DCode=22|XSize=32.48mil|YSize=9.842mil|CornerRadius=2.461mil|HoleSize=0mil|Usage=FLASHONLY|Rotation=0.000|XOffset=0mil|YOffset=0mil|HoleType=Round|Shape=RoundedRectangle|*
%AMROUNDEDRECTD22*
21,1,0.032480,0.004921,0,0,0.0*
21,1,0.027559,0.009842,0,0,0.0*
1,1,0.004921,0.013780,-0.002461*
1,1,0.004921,-0.013780,-0.002461*
1,1,0.004921,-0.013780,0.002461*
1,1,0.004921,0.013780,0.002461*
%
%ADD22ROUNDEDRECTD22*%
G04:AMPARAMS|DCode=23|XSize=32.48mil|YSize=9.842mil|CornerRadius=2.51mil|HoleSize=0mil|Usage=FLASHONLY|Rotation=0.000|XOffset=0mil|YOffset=0mil|HoleType=Round|Shape=RoundedRectangle|*
%AMROUNDEDRECTD23*
21,1,0.032480,0.004823,0,0,0.0*
21,1,0.027461,0.009842,0,0,0.0*
1,1,0.005020,0.013730,-0.002412*
1,1,0.005020,-0.013730,-0.002412*
1,1,0.005020,-0.013730,0.002412*
1,1,0.005020,0.013730,0.002412*
%
%ADD23ROUNDEDRECTD23*%
G04:AMPARAMS|DCode=24|XSize=11.811mil|YSize=11.811mil|CornerRadius=2.953mil|HoleSize=0mil|Usage=FLASHONLY|Rotation=0.000|XOffset=0mil|YOffset=0mil|HoleType=Round|Shape=RoundedRectangle|*
%AMROUNDEDRECTD24*
21,1,0.011811,0.005905,0,0,0.0*
21,1,0.005905,0.011811,0,0,0.0*
1,1,0.005906,0.002953,-0.002953*
1,1,0.005906,-0.002953,-0.002953*
1,1,0.005906,-0.002953,0.002953*
1,1,0.005906,0.002953,0.002953*
%
%ADD24ROUNDEDRECTD24*%
G04:AMPARAMS|DCode=25|XSize=9.842mil|YSize=26.575mil|CornerRadius=2.461mil|HoleSize=0mil|Usage=FLASHONLY|Rotation=0.000|XOffset=0mil|YOffset=0mil|HoleType=Round|Shape=RoundedRectangle|*
%AMROUNDEDRECTD25*
21,1,0.009842,0.021654,0,0,0.0*
21,1,0.004921,0.026575,0,0,0.0*
1,1,0.004921,0.002461,-0.010827*
1,1,0.004921,-0.002461,-0.010827*
1,1,0.004921,-0.002461,0.010827*
1,1,0.004921,0.002461,0.010827*
%
%ADD25ROUNDEDRECTD25*%
G04:AMPARAMS|DCode=26|XSize=9.842mil|YSize=32.48mil|CornerRadius=2.461mil|HoleSize=0mil|Usage=FLASHONLY|Rotation=0.000|XOffset=0mil|YOffset=0mil|HoleType=Round|Shape=RoundedRectangle|*
%AMROUNDEDRECTD26*
21,1,0.009842,0.027559,0,0,0.0*
21,1,0.004921,0.032480,0,0,0.0*
1,1,0.004921,0.002461,-0.013780*
1,1,0.004921,-0.002461,-0.013780*
1,1,0.004921,-0.002461,0.013780*
1,1,0.004921,0.002461,0.013780*
%
%ADD26ROUNDEDRECTD26*%
G04:AMPARAMS|DCode=27|XSize=13.78mil|YSize=117.126mil|CornerRadius=3.445mil|HoleSize=0mil|Usage=FLASHONLY|Rotation=0.000|XOffset=0mil|YOffset=0mil|HoleType=Round|Shape=RoundedRectangle|*
%AMROUNDEDRECTD27*
21,1,0.013780,0.110236,0,0,0.0*
21,1,0.006890,0.117126,0,0,0.0*
1,1,0.006890,0.003445,-0.055118*
1,1,0.006890,-0.003445,-0.055118*
1,1,0.006890,-0.003445,0.055118*
1,1,0.006890,0.003445,0.055118*
%
%ADD27ROUNDEDRECTD27*%
%ADD28R,0.035000X0.022000*%
%TA.AperFunction,Conductor*%
%ADD29C,0.006000*%
%ADD30C,0.008000*%
%ADD31C,0.015000*%
%ADD32C,0.030000*%
%ADD33C,0.010000*%
%TA.AperFunction,ViaPad*%
%ADD34C,0.160000*%
%ADD35C,0.022000*%
%ADD36C,0.020000*%
%ADD37C,0.018000*%
G36*
X1835008Y1834995D02*
X1835008Y1834995D01*
X1843528Y1834995D01*
X1860423Y1832771D01*
X1876883Y1828360D01*
X1892627Y1821839D01*
X1907384Y1813319D01*
X1920904Y1802945D01*
X1932953Y1790896D01*
X1943327Y1777376D01*
X1951847Y1762619D01*
X1958368Y1746875D01*
X1962778Y1730415D01*
X1965003Y1713520D01*
X1965002Y1705000D01*
X1965003Y110000D01*
Y101479D01*
X1962778Y84584D01*
X1958368Y68123D01*
X1951846Y52379D01*
X1943326Y37621D01*
X1932952Y24101D01*
X1920902Y12051D01*
X1907382Y1677D01*
X1892624Y-6844D01*
X1876880Y-13365D01*
X1860419Y-17776D01*
X1843523Y-20000D01*
X106863D01*
X98548Y-20000D01*
X82060Y-17829D01*
X65996Y-13525D01*
X50632Y-7161D01*
X36230Y1154D01*
X23037Y11278D01*
X11277Y23037D01*
X1154Y36230D01*
X-7161Y50632D01*
X-13525Y65997D01*
X-17829Y82060D01*
X-20000Y98548D01*
X-20000Y106863D01*
Y1710000D01*
X-20000Y1718192D01*
X-17862Y1734437D01*
X-13621Y1750264D01*
X-7351Y1765402D01*
X842Y1779593D01*
X10816Y1792592D01*
X22402Y1804178D01*
X35402Y1814153D01*
X49592Y1822345D01*
X64730Y1828616D01*
X80557Y1832856D01*
X96802Y1834995D01*
X104995Y1834995D01*
X1835008Y1834995D01*
X1835008Y1834995D01*
D02*
G37*
%LPC*%
G36*
X346748Y1721748D02*
X303252D01*
Y1713764D01*
X295842D01*
Y1715842D01*
X264158D01*
Y1684158D01*
X295842D01*
Y1686236D01*
X303252D01*
Y1678252D01*
X346748D01*
Y1721748D01*
D02*
G37*
G36*
X1621748Y1716748D02*
X1578252D01*
Y1673252D01*
X1621748D01*
Y1681236D01*
X1629158D01*
Y1679158D01*
X1660842D01*
Y1710842D01*
X1629158D01*
Y1708764D01*
X1621748D01*
Y1716748D01*
D02*
G37*
G36*
X986748Y1716276D02*
X943252D01*
Y1672780D01*
X986748D01*
Y1716276D01*
D02*
G37*
G36*
X1217161Y1657000D02*
X1210398D01*
X1204150Y1654412D01*
X1199368Y1649630D01*
X1196780Y1643381D01*
Y1636619D01*
X1199368Y1630370D01*
X1204150Y1625588D01*
X1210398Y1623000D01*
X1217161D01*
X1223409Y1625588D01*
X1228191Y1630370D01*
X1230780Y1636619D01*
Y1643381D01*
X1228191Y1649630D01*
X1223409Y1654412D01*
X1217161Y1657000D01*
D02*
G37*
G36*
X1152161D02*
X1145398D01*
X1139150Y1654412D01*
X1134368Y1649630D01*
X1131780Y1643381D01*
Y1636619D01*
X1134368Y1630370D01*
X1139150Y1625588D01*
X1145398Y1623000D01*
X1152161D01*
X1158409Y1625588D01*
X1163191Y1630370D01*
X1165780Y1636619D01*
Y1643381D01*
X1163191Y1649630D01*
X1158409Y1654412D01*
X1152161Y1657000D01*
D02*
G37*
G36*
X610901D02*
X604138D01*
X597890Y1654412D01*
X593108Y1649630D01*
X590520Y1643381D01*
Y1636619D01*
X593108Y1630370D01*
X597890Y1625588D01*
X604138Y1623000D01*
X610901D01*
X617149Y1625588D01*
X621932Y1630370D01*
X624520Y1636619D01*
Y1643381D01*
X621932Y1649630D01*
X617149Y1654412D01*
X610901Y1657000D01*
D02*
G37*
G36*
X545901D02*
X539138D01*
X532890Y1654412D01*
X528108Y1649630D01*
X525520Y1643381D01*
Y1636619D01*
X528108Y1630370D01*
X532890Y1625588D01*
X539138Y1623000D01*
X545901D01*
X552149Y1625588D01*
X556932Y1630370D01*
X559520Y1636619D01*
Y1643381D01*
X556932Y1649630D01*
X552149Y1654412D01*
X545901Y1657000D01*
D02*
G37*
G36*
X346748Y1662693D02*
X303252D01*
Y1619197D01*
X346748D01*
Y1662693D01*
D02*
G37*
G36*
X1621748Y1657693D02*
X1578252D01*
Y1614197D01*
X1621748D01*
Y1657693D01*
D02*
G37*
G36*
X1217161Y1602000D02*
X1210398D01*
X1204150Y1599412D01*
X1199368Y1594630D01*
X1196780Y1588381D01*
Y1581619D01*
X1199368Y1575370D01*
X1204150Y1570588D01*
X1210398Y1568000D01*
X1217161D01*
X1223409Y1570588D01*
X1228191Y1575370D01*
X1230780Y1581619D01*
Y1588381D01*
X1228191Y1594630D01*
X1223409Y1599412D01*
X1217161Y1602000D01*
D02*
G37*
G36*
X1152161D02*
X1145398D01*
X1139150Y1599412D01*
X1134368Y1594630D01*
X1131780Y1588381D01*
Y1581619D01*
X1134368Y1575370D01*
X1139150Y1570588D01*
X1145398Y1568000D01*
X1152161D01*
X1158409Y1570588D01*
X1163191Y1575370D01*
X1165780Y1581619D01*
Y1588381D01*
X1163191Y1594630D01*
X1158409Y1599412D01*
X1152161Y1602000D01*
D02*
G37*
G36*
X610901D02*
X604138D01*
X597890Y1599412D01*
X593108Y1594630D01*
X590520Y1588381D01*
Y1581619D01*
X593108Y1575370D01*
X597890Y1570588D01*
X604138Y1568000D01*
X610901D01*
X617149Y1570588D01*
X621932Y1575370D01*
X624520Y1581619D01*
Y1588381D01*
X621932Y1594630D01*
X617149Y1599412D01*
X610901Y1602000D01*
D02*
G37*
G36*
X545901D02*
X539138D01*
X532890Y1599412D01*
X528108Y1594630D01*
X525520Y1588381D01*
Y1581619D01*
X528108Y1575370D01*
X532890Y1570588D01*
X539138Y1568000D01*
X545901D01*
X552149Y1570588D01*
X556932Y1575370D01*
X559520Y1581619D01*
Y1588381D01*
X556932Y1594630D01*
X552149Y1599412D01*
X545901Y1602000D01*
D02*
G37*
G36*
X986748Y1657220D02*
X943252D01*
Y1613724D01*
X951236D01*
Y1596842D01*
X949158D01*
Y1565158D01*
X980842D01*
Y1596842D01*
X978764D01*
Y1613724D01*
X986748D01*
Y1657220D01*
D02*
G37*
G36*
X1217161Y1542000D02*
X1210398D01*
X1204150Y1539412D01*
X1199368Y1534630D01*
X1196780Y1528381D01*
Y1521619D01*
X1199368Y1515370D01*
X1204150Y1510588D01*
X1210398Y1508000D01*
X1217161D01*
X1223409Y1510588D01*
X1228191Y1515370D01*
X1230780Y1521619D01*
Y1528381D01*
X1228191Y1534630D01*
X1223409Y1539412D01*
X1217161Y1542000D01*
D02*
G37*
G36*
X1152161D02*
X1145398D01*
X1139150Y1539412D01*
X1134368Y1534630D01*
X1131780Y1528381D01*
Y1521619D01*
X1134368Y1515370D01*
X1139150Y1510588D01*
X1145398Y1508000D01*
X1152161D01*
X1158409Y1510588D01*
X1163191Y1515370D01*
X1165780Y1521619D01*
Y1528381D01*
X1163191Y1534630D01*
X1158409Y1539412D01*
X1152161Y1542000D01*
D02*
G37*
G36*
X610901D02*
X604138D01*
X597890Y1539412D01*
X593108Y1534630D01*
X590520Y1528381D01*
Y1521619D01*
X593108Y1515370D01*
X597890Y1510588D01*
X604138Y1508000D01*
X610901D01*
X617149Y1510588D01*
X621932Y1515370D01*
X624520Y1521619D01*
Y1528381D01*
X621932Y1534630D01*
X617149Y1539412D01*
X610901Y1542000D01*
D02*
G37*
G36*
X545901D02*
X539138D01*
X532890Y1539412D01*
X528108Y1534630D01*
X525520Y1528381D01*
Y1521619D01*
X528108Y1515370D01*
X532890Y1510588D01*
X539138Y1508000D01*
X545901D01*
X552149Y1510588D01*
X556932Y1515370D01*
X559520Y1521619D01*
Y1528381D01*
X556932Y1534630D01*
X552149Y1539412D01*
X545901Y1542000D01*
D02*
G37*
G36*
X801980Y1691494D02*
X665000D01*
X660408Y1689592D01*
X658506Y1685000D01*
Y1355000D01*
X660408Y1350408D01*
X665000Y1348506D01*
X905000D01*
X909592Y1350408D01*
X911494Y1355000D01*
Y1485000D01*
X909592Y1489592D01*
X905000Y1491494D01*
X808475D01*
Y1685000D01*
X806572Y1689592D01*
X801980Y1691494D01*
D02*
G37*
G36*
X1408240D02*
X1275000D01*
X1270408Y1689592D01*
X1268506Y1685000D01*
Y1350000D01*
X1270408Y1345408D01*
X1275000Y1343506D01*
X1470000D01*
X1474592Y1345408D01*
X1514592Y1385408D01*
X1516494Y1390000D01*
Y1480000D01*
X1514592Y1484592D01*
X1510000Y1486494D01*
X1414735D01*
Y1685000D01*
X1412832Y1689592D01*
X1408240Y1691494D01*
D02*
G37*
G36*
X1877500Y1471494D02*
X1547500D01*
X1546306Y1471000D01*
X1541500D01*
Y1466194D01*
X1541006Y1465000D01*
Y1400544D01*
X1404234Y1263773D01*
X1381300D01*
X1378815Y1269773D01*
X1379412Y1270370D01*
X1382000Y1276619D01*
Y1283381D01*
X1379412Y1289630D01*
X1374630Y1294412D01*
X1368381Y1297000D01*
X1361619D01*
X1355370Y1294412D01*
X1353920Y1292961D01*
X1350000Y1290064D01*
X1346080Y1292961D01*
X1344630Y1294412D01*
X1338381Y1297000D01*
X1331619D01*
X1325370Y1294412D01*
X1323920Y1292961D01*
X1320000Y1290064D01*
X1316080Y1292961D01*
X1314630Y1294412D01*
X1308381Y1297000D01*
X1301619D01*
X1295370Y1294412D01*
X1290588Y1289630D01*
X1288000Y1283381D01*
Y1276619D01*
X1290588Y1270370D01*
X1291185Y1269773D01*
X1288700Y1263773D01*
X985000D01*
X980408Y1261871D01*
X978505Y1257279D01*
Y1192584D01*
X978760Y1191969D01*
X978630Y1191317D01*
X979683Y1189742D01*
X980408Y1187992D01*
X981022Y1187737D01*
X981392Y1187184D01*
X984511Y1185100D01*
X986368Y1184731D01*
X988119Y1184006D01*
X993590D01*
X997451Y1182406D01*
X1000406Y1179451D01*
X1002006Y1175590D01*
Y1171410D01*
X1000406Y1167549D01*
X997451Y1164594D01*
X993590Y1162994D01*
X988119D01*
X986368Y1162269D01*
X984511Y1161900D01*
X981392Y1159816D01*
X981022Y1159263D01*
X980408Y1159008D01*
X979683Y1157258D01*
X978630Y1155683D01*
X978760Y1155031D01*
X978505Y1154416D01*
Y1065000D01*
X980408Y1060408D01*
X985000Y1058506D01*
X1008589D01*
Y768869D01*
X969860Y730140D01*
X965218Y723194D01*
X963589Y715000D01*
Y125000D01*
X965218Y116806D01*
X969860Y109860D01*
X989860Y89860D01*
X996806Y85218D01*
X1005000Y83589D01*
X1515000D01*
X1523194Y85218D01*
X1530140Y89860D01*
X1565180Y124900D01*
X1569821Y131846D01*
X1571451Y140040D01*
Y322403D01*
X1569821Y330597D01*
X1565180Y337543D01*
X1564176Y338214D01*
Y349392D01*
X1567158Y354157D01*
X1572843Y354158D01*
X1628842D01*
Y354157D01*
X1629158D01*
Y354158D01*
X1660842D01*
Y385842D01*
X1653650D01*
X1653054Y388839D01*
X1651065Y391816D01*
X1644247Y398634D01*
X1641270Y400623D01*
X1637758Y401322D01*
X1628842D01*
Y430842D01*
X1593216D01*
Y469873D01*
X1606009Y482667D01*
X1606009Y482667D01*
X1608440Y486305D01*
X1609294Y490598D01*
X1609294Y490598D01*
Y517567D01*
X1609166Y518213D01*
Y528394D01*
X1608509Y531695D01*
X1607839Y532697D01*
X1610184Y538356D01*
X1610497Y538697D01*
X1625587D01*
X1628272Y536012D01*
Y533572D01*
X1627018Y531695D01*
X1626362Y528394D01*
Y506740D01*
X1627018Y503439D01*
X1627253Y503088D01*
Y495921D01*
X1628029Y492019D01*
X1630239Y488711D01*
X1637415Y481535D01*
X1638157Y475842D01*
X1638158D01*
Y444158D01*
X1669842D01*
Y444157D01*
X1670158D01*
Y444158D01*
X1701842D01*
Y475842D01*
X1696196D01*
Y478895D01*
X1695420Y482797D01*
X1693210Y486105D01*
X1685672Y493642D01*
X1685201Y494546D01*
X1684894Y496336D01*
X1684759Y498769D01*
X1685070Y500688D01*
X1685070Y500689D01*
X1685148Y500767D01*
X1685292Y501113D01*
X1685876Y501924D01*
X1686134Y502149D01*
X1686174Y502228D01*
X1686175Y502239D01*
X1686253Y502306D01*
X1686292Y502385D01*
X1686299Y502481D01*
X1686406Y502573D01*
X1686445Y502652D01*
X1686472Y503024D01*
X1686721Y503312D01*
X1686760Y503430D01*
X1686761Y503430D01*
X1686758Y503459D01*
X1686799Y503505D01*
X1686838Y503624D01*
X1686833Y503695D01*
X1686838Y503701D01*
X1686877Y503819D01*
X1686872Y503894D01*
X1686879Y503902D01*
X1686918Y504020D01*
X1686918Y504021D01*
X1686901Y504254D01*
X1686856Y504883D01*
X1687049Y505348D01*
X1687053Y505358D01*
X1687046Y505375D01*
X1687171Y505677D01*
Y505756D01*
X1687172Y505756D01*
X1687167Y505768D01*
X1687211Y505874D01*
Y505953D01*
X1687211Y505953D01*
X1687206Y505965D01*
X1687250Y506071D01*
Y511584D01*
X1692764D01*
X1692870Y511629D01*
X1692882Y511624D01*
X1692882Y511624D01*
X1692961D01*
X1693067Y511668D01*
X1693079Y511663D01*
X1693079Y511663D01*
X1693157D01*
X1693457Y511788D01*
X1693472Y511781D01*
X1693503Y511794D01*
X1693951Y511980D01*
X1694819Y511918D01*
X1694820Y511918D01*
X1694937Y511958D01*
X1694943Y511963D01*
X1695016Y511957D01*
X1695016Y511958D01*
X1695134Y511997D01*
X1695138Y512000D01*
X1695208Y511995D01*
X1695209Y511996D01*
X1695326Y512035D01*
X1695376Y512078D01*
X1695410Y512076D01*
X1695410Y512076D01*
X1695528Y512115D01*
X1695812Y512362D01*
X1696180Y512388D01*
X1696259Y512428D01*
X1696356Y512540D01*
X1696458Y512547D01*
X1696537Y512587D01*
X1696605Y512664D01*
X1696616Y512665D01*
X1696695Y512705D01*
X1697238Y513332D01*
X1697242Y513332D01*
X1697255Y513348D01*
X1698065Y513684D01*
X1698143Y513762D01*
X1698143Y513762D01*
X1698146Y513768D01*
X1698219Y513799D01*
X1698297Y513877D01*
X1698298Y513877D01*
X1698301Y513886D01*
X1698377Y513917D01*
X1698377Y513917D01*
X1698455Y513995D01*
X1698456Y513995D01*
X1698457Y514000D01*
X1698461Y514001D01*
X1698616Y514156D01*
X1698616D01*
X1698616Y514156D01*
X1698694Y514234D01*
X1698695Y514235D01*
X1698726Y514310D01*
X1698734Y514313D01*
X1698813Y514392D01*
X1698844Y514468D01*
X1698852Y514471D01*
X1698852Y514471D01*
X1698931Y514550D01*
X1699266Y515359D01*
X1699282Y515373D01*
X1699282Y515376D01*
X1699825Y515847D01*
X1699910Y515920D01*
Y515920D01*
X1700170Y516149D01*
X1700946Y516678D01*
X1701001Y516710D01*
X1704304Y518130D01*
X1709891Y517708D01*
X1711291Y512108D01*
Y509567D01*
X1742976D01*
Y541252D01*
X1713508D01*
X1706113Y548647D01*
X1702475Y551078D01*
X1698183Y551932D01*
X1698182Y551932D01*
X1678315D01*
X1677669Y551804D01*
X1664535D01*
X1661234Y551147D01*
X1658436Y549277D01*
X1656566Y546479D01*
X1655909Y543177D01*
Y538256D01*
X1654566Y535575D01*
X1653415Y535193D01*
X1651891Y535078D01*
X1646625Y539813D01*
X1645927Y543325D01*
X1643937Y546302D01*
X1635876Y554362D01*
X1632899Y556352D01*
X1629388Y557050D01*
X1595365D01*
X1591854Y556352D01*
X1588877Y554362D01*
X1576557Y542042D01*
X1574567Y539065D01*
X1573869Y535554D01*
Y532447D01*
X1542764D01*
X1542657Y532403D01*
X1542646Y532408D01*
X1542645Y532408D01*
X1542567D01*
X1542460Y532364D01*
X1542449Y532369D01*
X1542448Y532369D01*
X1542370D01*
X1542070Y532244D01*
X1542055Y532251D01*
X1542024Y532238D01*
X1541576Y532052D01*
X1540708Y532114D01*
X1540590Y532074D01*
X1540584Y532069D01*
X1540512Y532074D01*
X1540393Y532035D01*
X1540388Y532030D01*
X1540315Y532035D01*
X1540197Y531995D01*
X1540149Y531954D01*
X1540118Y531956D01*
X1540000Y531917D01*
X1539718Y531672D01*
X1539353Y531646D01*
X1539275Y531607D01*
X1539175Y531492D01*
X1539069Y531485D01*
X1538990Y531445D01*
X1538925Y531370D01*
X1538917Y531370D01*
X1538839Y531330D01*
X1538291Y530699D01*
X1538284Y530699D01*
X1538271Y530683D01*
X1537463Y530348D01*
X1537385Y530270D01*
X1537384Y530270D01*
X1537381Y530261D01*
X1537305Y530230D01*
X1537227Y530152D01*
X1537226Y530152D01*
X1537223Y530143D01*
X1537148Y530112D01*
X1537147Y530111D01*
X1536912Y529876D01*
X1536911Y529876D01*
X1536911Y529875D01*
X1536833Y529798D01*
X1536833Y529797D01*
X1536801Y529720D01*
X1536790Y529716D01*
X1536790Y529715D01*
X1536712Y529637D01*
X1536682Y529564D01*
X1536675Y529561D01*
X1536675Y529560D01*
X1536597Y529482D01*
X1536261Y528673D01*
X1536245Y528659D01*
X1536245Y528656D01*
X1535618Y528112D01*
X1535578Y528034D01*
X1535578Y528022D01*
X1535500Y527955D01*
X1535460Y527876D01*
X1535453Y527772D01*
X1535339Y527673D01*
X1535300Y527595D01*
X1535274Y527228D01*
X1535028Y526944D01*
X1534989Y526826D01*
X1534988Y526826D01*
X1534990Y526795D01*
X1534950Y526748D01*
X1534910Y526631D01*
X1534910Y526630D01*
X1534915Y526557D01*
X1534910Y526550D01*
X1534870Y526432D01*
X1534870Y526432D01*
X1534875Y526360D01*
X1534871Y526355D01*
X1534832Y526237D01*
X1534831Y526237D01*
X1534846Y526026D01*
X1534893Y525369D01*
X1534707Y524920D01*
X1534694Y524890D01*
X1534701Y524875D01*
X1534576Y524575D01*
Y524497D01*
X1534576Y524496D01*
X1534581Y524485D01*
X1534537Y524378D01*
Y524300D01*
X1534537Y524299D01*
X1534542Y524288D01*
X1534498Y524181D01*
Y519851D01*
X1534542Y519744D01*
X1534537Y519732D01*
Y519654D01*
X1534581Y519547D01*
X1534576Y519536D01*
Y519457D01*
X1534701Y519157D01*
X1534695Y519142D01*
X1534893Y518663D01*
X1534831Y517795D01*
X1534871Y517677D01*
X1534876Y517671D01*
X1534871Y517598D01*
X1534910Y517480D01*
X1534915Y517474D01*
X1534910Y517402D01*
X1534950Y517284D01*
X1534991Y517236D01*
X1534989Y517205D01*
X1535028Y517087D01*
X1535273Y516805D01*
X1535299Y516440D01*
X1535338Y516361D01*
X1535451Y516263D01*
X1535459Y516159D01*
X1535498Y516080D01*
X1535578Y516011D01*
X1535578Y515998D01*
X1535618Y515920D01*
X1536245Y515376D01*
X1536245Y515373D01*
X1536261Y515359D01*
X1536464Y514870D01*
X1534283Y511607D01*
X1533236Y506339D01*
Y483500D01*
X1530000D01*
Y436500D01*
X1533331D01*
X1534157Y430842D01*
X1534158Y430500D01*
Y399158D01*
X1536736D01*
Y385842D01*
X1535158D01*
Y354158D01*
X1536647D01*
Y338711D01*
X1534900Y337543D01*
X1530258Y330597D01*
X1528628Y322403D01*
Y148909D01*
X1506131Y126411D01*
X1268435D01*
X1265422Y132411D01*
X1266494Y135000D01*
Y452310D01*
X1362690Y548506D01*
X1413724D01*
X1418316Y550408D01*
X1452818Y584910D01*
X1455634D01*
X1460268Y581611D01*
Y557866D01*
X1460267Y557866D01*
Y557551D01*
X1460268D01*
X1460268Y551866D01*
Y525866D01*
X1523449D01*
Y529686D01*
X1524971Y535336D01*
X1529263Y536189D01*
X1532902Y538621D01*
X1543389Y549108D01*
X1557133D01*
X1557134Y549107D01*
X1558176Y549315D01*
X1570992D01*
X1574293Y549971D01*
X1577092Y551841D01*
X1578962Y554640D01*
X1579618Y557941D01*
Y562862D01*
X1578962Y566164D01*
X1577092Y568962D01*
Y571527D01*
X1578962Y574325D01*
X1579618Y577626D01*
Y582547D01*
X1584825Y587052D01*
X1599744D01*
Y582803D01*
X1601646Y578211D01*
X1604343Y575514D01*
X1608935Y573612D01*
X1629365D01*
X1633958Y575514D01*
X1635860Y580106D01*
Y595860D01*
X1641860Y597054D01*
X1642542Y595408D01*
X1647134Y593505D01*
X1655038D01*
X1656381Y591587D01*
X1657696Y587505D01*
X1656569Y585819D01*
X1655908Y582498D01*
Y577675D01*
X1656569Y574355D01*
X1658449Y571540D01*
X1661264Y569659D01*
X1664585Y568999D01*
X1677673D01*
X1678315Y568871D01*
X1678956Y568999D01*
X1692045D01*
X1695366Y569659D01*
X1698180Y571540D01*
X1700061Y574355D01*
X1700722Y577675D01*
Y582498D01*
X1700061Y585819D01*
X1698934Y587505D01*
X1700249Y591587D01*
X1701592Y593505D01*
X1727310D01*
X1753506Y567309D01*
Y530000D01*
X1755408Y525408D01*
X1760000Y523506D01*
X1882134D01*
X1886726Y525408D01*
X1888628Y530000D01*
Y672410D01*
X1886726Y677002D01*
X1882134Y678904D01*
X1777134D01*
X1772542Y677002D01*
X1755944Y660404D01*
X1718634D01*
X1714042Y658502D01*
X1699444Y643904D01*
X1647134D01*
X1642542Y642002D01*
X1641860Y640356D01*
X1635860Y641549D01*
Y695810D01*
X1727309Y787259D01*
X1729211Y791851D01*
Y914614D01*
X1728716Y915808D01*
Y920614D01*
X1723910D01*
X1722716Y921109D01*
X1510118D01*
X1508925Y920614D01*
X1504118D01*
Y915808D01*
X1503624Y914614D01*
X1503624Y794543D01*
X1505526Y789951D01*
X1599744Y695733D01*
Y643212D01*
X1593744Y642018D01*
X1592678Y644592D01*
X1588085Y646494D01*
X1527690D01*
X1515683Y658502D01*
X1511090Y660404D01*
X1465427D01*
X1454332Y671539D01*
X1454326Y671541D01*
X1454324Y671547D01*
X1452014Y672504D01*
X1449743Y673449D01*
X1449738Y673447D01*
X1449732Y673449D01*
X1345735D01*
X1334592Y684592D01*
X1330000Y686494D01*
X1020000D01*
X1015408Y684592D01*
X1013506Y680000D01*
Y335000D01*
X1015408Y330408D01*
X1020000Y328506D01*
X1072310D01*
X1098506Y302310D01*
Y135000D01*
X1099578Y132411D01*
X1096565Y126411D01*
X1013869D01*
X1006411Y133869D01*
Y706131D01*
X1045140Y744860D01*
X1049782Y751806D01*
X1051411Y760000D01*
Y1058506D01*
X1689146D01*
X1693738Y1060408D01*
X1882092Y1248762D01*
X1883994Y1253354D01*
Y1465000D01*
X1883500Y1466194D01*
Y1471000D01*
X1878694D01*
X1877500Y1471494D01*
D02*
G37*
G36*
X392500D02*
X62500D01*
X61306Y1471000D01*
X56500D01*
Y1466194D01*
X56006Y1465000D01*
Y1257500D01*
X57908Y1252908D01*
X250408Y1060408D01*
X255000Y1058506D01*
X868589D01*
Y755000D01*
X870218Y746806D01*
X874860Y739860D01*
X913589Y701131D01*
Y128869D01*
X906131Y121411D01*
X378869D01*
X255823Y244457D01*
Y316509D01*
X254194Y324703D01*
X249552Y331649D01*
X248175Y332569D01*
Y334327D01*
X251000Y339157D01*
X256685Y339158D01*
X313685D01*
Y339157D01*
X314000D01*
Y339158D01*
X345685D01*
Y370842D01*
X338411D01*
X337737Y374233D01*
X335748Y377210D01*
X330627Y382331D01*
X327650Y384320D01*
X324138Y385019D01*
X315685D01*
Y415842D01*
X311216D01*
Y465354D01*
X323875Y478014D01*
X326307Y481653D01*
X327161Y485945D01*
X327160Y485945D01*
Y510158D01*
X327032Y510803D01*
Y520984D01*
X326375Y524285D01*
X326016Y524824D01*
X328886Y530824D01*
X343137D01*
X345752Y525584D01*
X344885Y524285D01*
X344228Y520984D01*
Y499331D01*
X344885Y496029D01*
X346040Y494300D01*
Y489606D01*
X346816Y485704D01*
X349027Y482397D01*
X359581Y471842D01*
X358157Y465842D01*
X358158D01*
Y434158D01*
X389842D01*
Y434157D01*
X390158D01*
Y434158D01*
X421842D01*
Y465842D01*
X416196D01*
Y470583D01*
X415420Y474485D01*
X413210Y477793D01*
X404168Y486834D01*
X403379Y489044D01*
X403224Y489672D01*
X403138Y490212D01*
X403104Y490517D01*
X404000Y494737D01*
X404119Y494897D01*
X404158Y494976D01*
X404164Y495053D01*
X404272Y495164D01*
X404311Y495242D01*
X404338Y495614D01*
X404587Y495902D01*
X404627Y496020D01*
X404627Y496020D01*
X404625Y496049D01*
X404665Y496096D01*
X404704Y496214D01*
X404699Y496286D01*
X404704Y496291D01*
X404743Y496409D01*
X404738Y496485D01*
X404745Y496493D01*
X404784Y496611D01*
X404784Y496611D01*
X404767Y496845D01*
X404722Y497474D01*
X404915Y497938D01*
X404920Y497949D01*
X404913Y497966D01*
X405038Y498268D01*
Y498346D01*
X405038Y498346D01*
X405033Y498358D01*
X405077Y498465D01*
Y498543D01*
X405077Y498543D01*
X405072Y498555D01*
X405116Y498661D01*
Y504175D01*
X410630D01*
X410736Y504219D01*
X410748Y504214D01*
X410749Y504214D01*
X410827D01*
X410933Y504258D01*
X410945Y504253D01*
X410946Y504254D01*
X411024D01*
X411324Y504378D01*
X411339Y504372D01*
X411369Y504384D01*
X411817Y504570D01*
X412685Y504509D01*
X412685Y504509D01*
X412803Y504548D01*
X412809Y504553D01*
X412882Y504548D01*
X412882Y504548D01*
X413000Y504587D01*
X413004Y504591D01*
X413074Y504586D01*
X413074Y504586D01*
X413192Y504625D01*
X413242Y504668D01*
X413276Y504666D01*
X413276Y504666D01*
X413394Y504706D01*
X413678Y504952D01*
X414046Y504979D01*
X414125Y505018D01*
X414222Y505130D01*
X414325Y505138D01*
X414403Y505177D01*
X414471Y505255D01*
X414482Y505256D01*
X414561Y505295D01*
X415104Y505923D01*
X415108Y505923D01*
X415121Y505939D01*
X415931Y506274D01*
X416009Y506352D01*
X416010Y506353D01*
X416012Y506359D01*
X416085Y506389D01*
X416164Y506467D01*
X416164Y506468D01*
X416168Y506476D01*
X416243Y506507D01*
X416243Y506507D01*
X416321Y506586D01*
X416322Y506586D01*
X416323Y506590D01*
X416327Y506592D01*
X416482Y506746D01*
X416482D01*
X416482Y506747D01*
X416560Y506825D01*
X416561Y506825D01*
X416592Y506901D01*
X416600Y506904D01*
X416679Y506983D01*
X416710Y507058D01*
X416718Y507061D01*
X416797Y507140D01*
X416907Y507405D01*
X418027Y508583D01*
X418150Y508669D01*
X419877Y509404D01*
X420353Y509592D01*
X420936Y509795D01*
X422336Y510172D01*
X423553Y510289D01*
X424444Y510341D01*
X427125Y509808D01*
X429158Y504498D01*
Y502158D01*
X460842D01*
Y533842D01*
X430167D01*
X422772Y541238D01*
X419133Y543669D01*
X414841Y544523D01*
X414841Y544523D01*
X396181D01*
X395535Y544394D01*
X382402D01*
X379100Y543737D01*
X376302Y541867D01*
X374432Y539069D01*
X373775Y535768D01*
Y530847D01*
X372433Y528166D01*
X371281Y527783D01*
X369757Y527669D01*
X364491Y532403D01*
X363793Y535915D01*
X361804Y538892D01*
X354207Y546489D01*
X351230Y548478D01*
X347718Y549176D01*
X312767D01*
X309255Y548478D01*
X306279Y546489D01*
X294423Y534633D01*
X292434Y531656D01*
X291735Y528144D01*
Y525038D01*
X260630D01*
X260523Y524994D01*
X260512Y524999D01*
X260511Y524998D01*
X260433D01*
X260327Y524954D01*
X260315Y524959D01*
X260314Y524959D01*
X260236D01*
X259936Y524835D01*
X259921Y524841D01*
X259891Y524828D01*
X259442Y524643D01*
X258575Y524704D01*
X258574Y524704D01*
X258457Y524665D01*
X258451Y524659D01*
X258378Y524665D01*
X258377Y524664D01*
X258260Y524625D01*
X258254Y524620D01*
X258181Y524625D01*
X258180Y524625D01*
X258063Y524586D01*
X258015Y524544D01*
X257984Y524547D01*
X257983Y524546D01*
X257866Y524507D01*
X257584Y524262D01*
X257220Y524237D01*
X257141Y524198D01*
X257041Y524083D01*
X256935Y524075D01*
X256856Y524036D01*
X256791Y523960D01*
X256784Y523960D01*
X256705Y523920D01*
X256157Y523290D01*
X256151Y523289D01*
X256137Y523273D01*
X255329Y522939D01*
X255251Y522861D01*
X255250Y522860D01*
X255247Y522852D01*
X255172Y522821D01*
X255093Y522742D01*
X255093Y522742D01*
X255089Y522734D01*
X255014Y522703D01*
X255013Y522702D01*
X254778Y522467D01*
X254778Y522466D01*
X254777Y522466D01*
X254700Y522388D01*
X254699Y522388D01*
X254667Y522310D01*
X254657Y522306D01*
X254656Y522306D01*
X254578Y522227D01*
X254548Y522154D01*
X254541Y522152D01*
X254541Y522151D01*
X254463Y522073D01*
X254128Y521263D01*
X254111Y521250D01*
X254111Y521246D01*
X253484Y520703D01*
X253445Y520624D01*
X253444Y520613D01*
X253366Y520545D01*
X253327Y520466D01*
X253319Y520362D01*
X253206Y520264D01*
X253166Y520185D01*
X253140Y519818D01*
X252894Y519534D01*
X252855Y519416D01*
X252854Y519416D01*
X252857Y519386D01*
X252816Y519339D01*
X252777Y519221D01*
X252776Y519221D01*
X252782Y519147D01*
X252776Y519140D01*
X252737Y519023D01*
X252736Y519022D01*
X252742Y518950D01*
X252737Y518945D01*
X252698Y518827D01*
X252697Y518827D01*
X252713Y518616D01*
X252759Y517959D01*
X252573Y517511D01*
X252560Y517480D01*
X252567Y517465D01*
X252443Y517165D01*
Y517087D01*
X252442Y517087D01*
X252447Y517075D01*
X252403Y516968D01*
Y516890D01*
X252403Y516890D01*
X252408Y516878D01*
X252364Y516772D01*
Y512441D01*
X252408Y512334D01*
X252403Y512323D01*
Y512244D01*
X252447Y512138D01*
X252443Y512126D01*
Y512047D01*
X252567Y511747D01*
X252561Y511732D01*
X252759Y511253D01*
X252698Y510386D01*
X252737Y510268D01*
X252742Y510262D01*
X252737Y510189D01*
X252776Y510071D01*
X252782Y510065D01*
X252776Y509992D01*
X252816Y509874D01*
X252857Y509826D01*
X252855Y509795D01*
X252894Y509677D01*
X253139Y509395D01*
X253165Y509031D01*
X253204Y508952D01*
X253420Y507988D01*
X250436Y503523D01*
X249388Y498255D01*
Y473500D01*
X246500D01*
Y426500D01*
X280500D01*
Y473500D01*
X276917D01*
Y490395D01*
X296049D01*
X298534Y484395D01*
X292069Y477931D01*
X289638Y474292D01*
X288784Y470000D01*
X288784Y470000D01*
Y418777D01*
X284000Y415843D01*
X282685D01*
Y415842D01*
X256685D01*
X251000Y415843D01*
X245000Y415842D01*
X219000D01*
Y384158D01*
X221078D01*
Y370842D01*
X219000D01*
Y339158D01*
X220647D01*
Y332568D01*
X219272Y331649D01*
X214630Y324703D01*
X213001Y316509D01*
Y235588D01*
X214630Y227394D01*
X219272Y220448D01*
X354860Y84860D01*
X361806Y80218D01*
X370000Y78589D01*
X915000D01*
X923194Y80218D01*
X930140Y84860D01*
X950140Y104860D01*
X954782Y111806D01*
X956411Y120000D01*
Y710000D01*
X954782Y718194D01*
X950140Y725140D01*
X911411Y763869D01*
Y1058506D01*
X935000D01*
X939592Y1060408D01*
X941494Y1065000D01*
Y1154247D01*
X941240Y1154862D01*
X941370Y1155514D01*
X940317Y1157089D01*
X939592Y1158839D01*
X938978Y1159094D01*
X938608Y1159647D01*
X932608Y1163656D01*
X931955Y1163786D01*
X931485Y1164256D01*
X929591Y1164256D01*
X927733Y1164626D01*
X927536Y1164494D01*
X922910D01*
X919049Y1166094D01*
X916094Y1169049D01*
X914494Y1172910D01*
Y1177090D01*
X916094Y1180951D01*
X919049Y1183906D01*
X922910Y1185506D01*
X927536D01*
X927733Y1185374D01*
X929590Y1185744D01*
X931485Y1185744D01*
X931955Y1186214D01*
X932608Y1186344D01*
X938608Y1190353D01*
X938978Y1190906D01*
X939592Y1191161D01*
X940317Y1192911D01*
X941370Y1194486D01*
X941240Y1195138D01*
X941494Y1195753D01*
Y1257500D01*
X939592Y1262092D01*
X935000Y1263994D01*
X651521D01*
X649036Y1269994D01*
X649412Y1270370D01*
X652000Y1276619D01*
Y1283381D01*
X649412Y1289630D01*
X644630Y1294412D01*
X638381Y1297000D01*
X631619D01*
X625370Y1294412D01*
X623920Y1292961D01*
X620000Y1290064D01*
X616080Y1292961D01*
X614630Y1294412D01*
X608381Y1297000D01*
X601619D01*
X595370Y1294412D01*
X593920Y1292961D01*
X590000Y1290064D01*
X586080Y1292961D01*
X584630Y1294412D01*
X578381Y1297000D01*
X571619D01*
X565370Y1294412D01*
X560588Y1289630D01*
X558000Y1283381D01*
Y1276619D01*
X560588Y1270370D01*
X560964Y1269994D01*
X558479Y1263994D01*
X539690D01*
X398994Y1404690D01*
Y1465000D01*
X398500Y1466194D01*
Y1471000D01*
X393694D01*
X392500Y1471494D01*
D02*
G37*
G36*
X440583Y913699D02*
X227984D01*
X226791Y913205D01*
X221984D01*
Y908398D01*
X221490Y907205D01*
X221490Y787134D01*
X223392Y782542D01*
X317610Y688324D01*
Y640251D01*
X311610Y636242D01*
X311000Y636494D01*
X258690D01*
X244092Y651092D01*
X239500Y652994D01*
X202190D01*
X185592Y669592D01*
X181000Y671494D01*
X60000D01*
X55408Y669592D01*
X53506Y665000D01*
Y510000D01*
X55408Y505408D01*
X60000Y503506D01*
X170000D01*
X174592Y505408D01*
X176494Y510000D01*
Y513136D01*
X178134Y518457D01*
X241315D01*
Y521447D01*
X242183Y527271D01*
X246475Y528125D01*
X250113Y530557D01*
X261255Y541698D01*
X263839D01*
X264880Y541905D01*
X288858D01*
X292159Y542562D01*
X294958Y544432D01*
X296828Y547230D01*
X297485Y550532D01*
Y555453D01*
X296828Y558754D01*
X295405Y562835D01*
X296828Y566915D01*
X297485Y570217D01*
Y575138D01*
X302691Y579642D01*
X317610D01*
Y574630D01*
X318104Y573436D01*
Y572144D01*
X319018Y571231D01*
X319512Y570037D01*
X320037Y569820D01*
X321752Y568105D01*
X326345Y566202D01*
X347232D01*
X351824Y568105D01*
X353726Y572697D01*
Y590580D01*
X359726Y591790D01*
X360189Y590689D01*
X361134Y588408D01*
X361151Y588401D01*
X361158Y588384D01*
X363445Y587450D01*
X365726Y586505D01*
X373420D01*
X375015Y583597D01*
X375836Y580505D01*
X374435Y578409D01*
X373774Y575089D01*
Y570266D01*
X374435Y566945D01*
X376316Y564131D01*
X379130Y562250D01*
X382451Y561589D01*
X395540D01*
X396181Y561462D01*
X396823Y561589D01*
X409911D01*
X413232Y562250D01*
X416047Y564131D01*
X417927Y566945D01*
X418588Y570266D01*
Y575089D01*
X417927Y578409D01*
X416526Y580505D01*
X417347Y583597D01*
X418942Y586506D01*
X478310D01*
X493506Y571310D01*
Y135000D01*
X495408Y130408D01*
X500000Y128506D01*
X660000D01*
X664592Y130408D01*
X666494Y135000D01*
X666494Y457310D01*
X687690Y478505D01*
X900000Y478505D01*
X904592Y480408D01*
X906494Y485000D01*
Y680000D01*
X904592Y684592D01*
X900000Y686494D01*
X635000D01*
X630408Y684592D01*
X617310Y671494D01*
X502443D01*
X502424Y671486D01*
X502404Y671494D01*
X500128Y670535D01*
X497851Y669592D01*
X497843Y669573D01*
X497824Y669565D01*
X481451Y652994D01*
X441500D01*
X436908Y651092D01*
X422310Y636494D01*
X369786D01*
X369778Y636491D01*
X369769Y636494D01*
X367493Y635544D01*
X365194Y634592D01*
X365191Y634584D01*
X365182Y634580D01*
X360950Y630326D01*
X360947Y630318D01*
X360939Y630314D01*
X359998Y628010D01*
X359726Y627348D01*
X353726Y628533D01*
Y688400D01*
X445175Y779849D01*
X447077Y784441D01*
Y907205D01*
X446583Y908398D01*
Y913205D01*
X441776D01*
X440583Y913699D01*
D02*
G37*
%LPD*%
G36*
X801980Y1485000D02*
X905000D01*
Y1355000D01*
X665000D01*
Y1685000D01*
X801980D01*
Y1485000D01*
D02*
G37*
G36*
X1408240Y1480000D02*
X1510000D01*
Y1390000D01*
X1470000Y1350000D01*
X1275000D01*
Y1685000D01*
X1408240D01*
Y1480000D01*
D02*
G37*
G36*
X1877500Y1253354D02*
X1689146Y1065000D01*
X985000D01*
Y1154416D01*
X988119Y1156500D01*
X994881D01*
X1001130Y1159088D01*
X1005912Y1163870D01*
X1008500Y1170119D01*
Y1176881D01*
X1005912Y1183130D01*
X1001130Y1187912D01*
X994881Y1190500D01*
X988119D01*
X985000Y1192584D01*
Y1257279D01*
X1406924D01*
X1547500Y1397854D01*
Y1465000D01*
X1877500D01*
Y1253354D01*
D02*
G37*
G36*
X1722716Y791851D02*
X1629365Y698500D01*
Y580106D01*
X1608935D01*
X1606238Y582803D01*
Y698423D01*
X1510118Y794543D01*
X1510118Y914614D01*
X1722716D01*
Y791851D01*
D02*
G37*
G36*
X1882134Y530000D02*
X1760000D01*
Y570000D01*
X1730000Y600000D01*
X1647134D01*
Y637410D01*
X1702134D01*
X1718634Y653910D01*
X1758634D01*
X1777134Y672410D01*
X1882134D01*
Y530000D01*
D02*
G37*
G36*
X1692882Y525914D02*
X1692961D01*
X1693079Y525874D01*
X1693157D01*
X1693275Y525835D01*
X1693354Y525795D01*
X1693472Y525756D01*
X1693551Y525677D01*
X1693630Y525638D01*
X1693709Y525559D01*
X1693787Y525520D01*
X1693866Y525441D01*
X1693945Y525362D01*
X1694024Y525284D01*
X1694102Y525205D01*
X1694142Y525126D01*
X1694220Y525047D01*
X1694260Y524969D01*
X1694339Y524890D01*
X1694378Y524772D01*
X1694417Y524693D01*
X1694457Y524575D01*
Y524496D01*
X1694496Y524378D01*
Y524299D01*
X1694535Y524181D01*
Y524103D01*
Y523984D01*
Y520047D01*
Y519929D01*
Y519851D01*
X1694496Y519732D01*
Y519654D01*
X1694457Y519536D01*
Y519457D01*
X1694417Y519339D01*
X1694378Y519260D01*
X1694339Y519142D01*
X1694260Y519063D01*
X1694220Y518984D01*
X1694142Y518906D01*
X1694102Y518827D01*
X1694024Y518748D01*
X1693945Y518669D01*
X1693866Y518591D01*
X1693787Y518512D01*
X1693709Y518473D01*
X1693630Y518394D01*
X1693551Y518355D01*
X1693472Y518276D01*
X1693354Y518236D01*
X1693275Y518197D01*
X1693157Y518158D01*
X1693079D01*
X1692961Y518118D01*
X1692882D01*
X1692764Y518079D01*
X1682527D01*
X1682409Y518040D01*
X1682331D01*
X1682213Y518000D01*
X1682134D01*
X1682016Y517961D01*
X1681937Y517922D01*
X1681819Y517882D01*
X1681740Y517803D01*
X1681661Y517764D01*
X1681583Y517685D01*
X1681504Y517646D01*
X1681425Y517567D01*
X1681346Y517488D01*
X1681268Y517410D01*
X1681189Y517331D01*
X1681149Y517252D01*
X1681071Y517173D01*
X1681031Y517095D01*
X1680953Y517016D01*
X1680913Y516898D01*
X1680874Y516819D01*
X1680835Y516701D01*
Y516622D01*
X1680795Y516504D01*
Y516425D01*
X1680756Y516307D01*
Y516229D01*
Y516110D01*
Y506268D01*
Y506150D01*
Y506071D01*
X1680716Y505953D01*
Y505874D01*
X1680677Y505756D01*
Y505677D01*
X1680638Y505559D01*
X1680598Y505481D01*
X1680559Y505362D01*
X1680480Y505284D01*
X1680441Y505205D01*
X1680362Y505126D01*
X1680323Y505047D01*
X1680244Y504969D01*
X1680165Y504890D01*
X1680086Y504811D01*
X1680008Y504733D01*
X1679929Y504693D01*
X1679850Y504614D01*
X1679772Y504575D01*
X1679693Y504496D01*
X1679575Y504457D01*
X1679496Y504418D01*
X1679378Y504378D01*
X1679299D01*
X1679181Y504339D01*
X1679102D01*
X1678984Y504299D01*
X1653000D01*
X1652882Y504339D01*
X1652803D01*
X1652685Y504378D01*
X1652606D01*
X1652488Y504418D01*
X1652409Y504457D01*
X1652291Y504496D01*
X1652213Y504575D01*
X1652134Y504614D01*
X1652055Y504693D01*
X1651976Y504733D01*
X1651898Y504811D01*
X1651819Y504890D01*
X1651740Y504969D01*
X1651661Y505047D01*
X1651622Y505126D01*
X1651543Y505205D01*
X1651504Y505284D01*
X1651425Y505362D01*
X1651386Y505481D01*
X1651346Y505559D01*
X1651307Y505677D01*
Y505756D01*
X1651268Y505874D01*
Y505953D01*
X1651228Y506071D01*
Y506150D01*
Y506268D01*
Y523984D01*
Y524103D01*
Y524181D01*
X1651268Y524299D01*
Y524378D01*
X1651307Y524496D01*
Y524575D01*
X1651346Y524693D01*
X1651386Y524772D01*
X1651425Y524890D01*
X1651504Y524969D01*
X1651543Y525047D01*
X1651622Y525126D01*
X1651661Y525205D01*
X1651740Y525284D01*
X1651819Y525362D01*
X1651898Y525441D01*
X1651976Y525520D01*
X1652055Y525559D01*
X1652134Y525638D01*
X1652213Y525677D01*
X1652291Y525756D01*
X1652409Y525795D01*
X1652488Y525835D01*
X1652606Y525874D01*
X1652685D01*
X1652803Y525914D01*
X1652882D01*
X1653000Y525953D01*
X1692764D01*
X1692882Y525914D01*
D02*
G37*
G36*
X1582646D02*
X1582724D01*
X1582842Y525874D01*
X1582921D01*
X1583039Y525835D01*
X1583118Y525795D01*
X1583236Y525756D01*
X1583315Y525677D01*
X1583394Y525638D01*
X1583472Y525559D01*
X1583551Y525520D01*
X1583630Y525441D01*
X1583709Y525362D01*
X1583787Y525284D01*
X1583866Y525205D01*
X1583905Y525126D01*
X1583984Y525047D01*
X1584024Y524969D01*
X1584102Y524890D01*
X1584142Y524772D01*
X1584181Y524693D01*
X1584220Y524575D01*
Y524496D01*
X1584260Y524378D01*
Y524299D01*
X1584299Y524181D01*
Y524103D01*
Y523984D01*
Y506268D01*
Y506150D01*
Y506071D01*
X1584260Y505953D01*
Y505874D01*
X1584220Y505756D01*
Y505677D01*
X1584181Y505559D01*
X1584142Y505481D01*
X1584102Y505362D01*
X1584024Y505284D01*
X1583984Y505205D01*
X1583905Y505126D01*
X1583866Y505047D01*
X1583787Y504969D01*
X1583709Y504890D01*
X1583630Y504811D01*
X1583551Y504733D01*
X1583472Y504693D01*
X1583394Y504614D01*
X1583315Y504575D01*
X1583236Y504496D01*
X1583118Y504457D01*
X1583039Y504418D01*
X1582921Y504378D01*
X1582842D01*
X1582724Y504339D01*
X1582646D01*
X1582527Y504299D01*
X1556543D01*
X1556425Y504339D01*
X1556346D01*
X1556228Y504378D01*
X1556149D01*
X1556031Y504418D01*
X1555953Y504457D01*
X1555835Y504496D01*
X1555756Y504575D01*
X1555677Y504614D01*
X1555598Y504693D01*
X1555520Y504733D01*
X1555441Y504811D01*
X1555362Y504890D01*
X1555283Y504969D01*
X1555205Y505047D01*
X1555165Y505126D01*
X1555086Y505205D01*
X1555047Y505284D01*
X1554968Y505362D01*
X1554929Y505481D01*
X1554890Y505559D01*
X1554850Y505677D01*
Y505756D01*
X1554811Y505874D01*
Y505953D01*
X1554772Y506071D01*
Y506150D01*
Y506268D01*
Y516110D01*
Y516229D01*
Y516307D01*
X1554732Y516425D01*
Y516504D01*
X1554693Y516622D01*
Y516701D01*
X1554653Y516819D01*
X1554614Y516898D01*
X1554575Y517016D01*
X1554496Y517095D01*
X1554457Y517173D01*
X1554378Y517252D01*
X1554339Y517331D01*
X1554260Y517410D01*
X1554181Y517488D01*
X1554102Y517567D01*
X1554024Y517646D01*
X1553945Y517685D01*
X1553866Y517764D01*
X1553787Y517803D01*
X1553709Y517882D01*
X1553591Y517922D01*
X1553512Y517961D01*
X1553394Y518000D01*
X1553315D01*
X1553197Y518040D01*
X1553118D01*
X1553000Y518079D01*
X1542764D01*
X1542646Y518118D01*
X1542567D01*
X1542449Y518158D01*
X1542370D01*
X1542252Y518197D01*
X1542173Y518236D01*
X1542055Y518276D01*
X1541976Y518355D01*
X1541898Y518394D01*
X1541819Y518473D01*
X1541740Y518512D01*
X1541661Y518591D01*
X1541583Y518669D01*
X1541504Y518748D01*
X1541425Y518827D01*
X1541386Y518906D01*
X1541307Y518984D01*
X1541268Y519063D01*
X1541189Y519142D01*
X1541149Y519260D01*
X1541110Y519339D01*
X1541071Y519457D01*
Y519536D01*
X1541031Y519654D01*
Y519732D01*
X1540992Y519851D01*
Y519929D01*
Y520047D01*
Y523984D01*
Y524103D01*
Y524181D01*
X1541031Y524299D01*
Y524378D01*
X1541071Y524496D01*
Y524575D01*
X1541110Y524693D01*
X1541149Y524772D01*
X1541189Y524890D01*
X1541268Y524969D01*
X1541307Y525047D01*
X1541386Y525126D01*
X1541425Y525205D01*
X1541504Y525284D01*
X1541583Y525362D01*
X1541661Y525441D01*
X1541740Y525520D01*
X1541819Y525559D01*
X1541898Y525638D01*
X1541976Y525677D01*
X1542055Y525756D01*
X1542173Y525795D01*
X1542252Y525835D01*
X1542370Y525874D01*
X1542449D01*
X1542567Y525914D01*
X1542646D01*
X1542764Y525953D01*
X1582527D01*
X1582646Y525914D01*
D02*
G37*
G36*
X1343045Y666955D02*
X1449732D01*
X1462730Y653910D01*
X1511090D01*
X1525000Y640000D01*
X1588085D01*
Y611410D01*
X1470134D01*
X1413724Y555000D01*
X1360000D01*
X1260000Y455000D01*
Y135000D01*
X1105000D01*
Y305000D01*
X1075000Y335000D01*
X1020000D01*
Y680000D01*
X1330000D01*
X1343045Y666955D01*
D02*
G37*
G36*
X392500Y1402000D02*
X537000Y1257500D01*
X935000D01*
Y1195753D01*
X929000Y1191744D01*
X928381Y1192000D01*
X921619D01*
X915370Y1189412D01*
X910588Y1184630D01*
X908000Y1178381D01*
Y1171619D01*
X910588Y1165370D01*
X915370Y1160588D01*
X921619Y1158000D01*
X928381D01*
X929000Y1158256D01*
X935000Y1154247D01*
Y1065000D01*
X255000D01*
X62500Y1257500D01*
Y1465000D01*
X392500D01*
Y1402000D01*
D02*
G37*
G36*
X410748Y518504D02*
X410827D01*
X410945Y518465D01*
X411024D01*
X411142Y518425D01*
X411221Y518386D01*
X411339Y518346D01*
X411417Y518268D01*
X411496Y518228D01*
X411575Y518150D01*
X411654Y518110D01*
X411732Y518032D01*
X411811Y517953D01*
X411890Y517874D01*
X411969Y517795D01*
X412008Y517717D01*
X412087Y517638D01*
X412126Y517559D01*
X412205Y517480D01*
X412244Y517362D01*
X412283Y517284D01*
X412323Y517165D01*
Y517087D01*
X412362Y516968D01*
Y516890D01*
X412402Y516772D01*
Y516693D01*
Y516575D01*
Y512638D01*
Y512520D01*
Y512441D01*
X412362Y512323D01*
Y512244D01*
X412323Y512126D01*
Y512047D01*
X412283Y511929D01*
X412244Y511850D01*
X412205Y511732D01*
X412126Y511654D01*
X412087Y511575D01*
X412008Y511496D01*
X411969Y511417D01*
X411890Y511339D01*
X411811Y511260D01*
X411732Y511181D01*
X411654Y511102D01*
X411575Y511063D01*
X411496Y510984D01*
X411417Y510945D01*
X411339Y510866D01*
X411221Y510827D01*
X411142Y510787D01*
X411024Y510748D01*
X410945D01*
X410827Y510709D01*
X410748D01*
X410630Y510669D01*
X400394D01*
X400276Y510630D01*
X400197D01*
X400079Y510591D01*
X400000D01*
X399882Y510551D01*
X399803Y510512D01*
X399685Y510473D01*
X399606Y510394D01*
X399527Y510354D01*
X399449Y510276D01*
X399370Y510236D01*
X399291Y510158D01*
X399213Y510079D01*
X399134Y510000D01*
X399055Y509921D01*
X399016Y509843D01*
X398937Y509764D01*
X398898Y509685D01*
X398819Y509606D01*
X398779Y509488D01*
X398740Y509409D01*
X398701Y509291D01*
Y509213D01*
X398661Y509094D01*
Y509016D01*
X398622Y508898D01*
Y508819D01*
Y508701D01*
Y498858D01*
Y498740D01*
Y498661D01*
X398583Y498543D01*
Y498465D01*
X398543Y498346D01*
Y498268D01*
X398504Y498150D01*
X398464Y498071D01*
X398425Y497953D01*
X398346Y497874D01*
X398307Y497795D01*
X398228Y497717D01*
X398189Y497638D01*
X398110Y497559D01*
X398031Y497480D01*
X397953Y497402D01*
X397874Y497323D01*
X397795Y497284D01*
X397716Y497205D01*
X397638Y497165D01*
X397559Y497087D01*
X397441Y497047D01*
X397362Y497008D01*
X397244Y496969D01*
X397165D01*
X397047Y496929D01*
X396969D01*
X396850Y496890D01*
X370866D01*
X370748Y496929D01*
X370669D01*
X370551Y496969D01*
X370472D01*
X370354Y497008D01*
X370276Y497047D01*
X370158Y497087D01*
X370079Y497165D01*
X370000Y497205D01*
X369921Y497284D01*
X369842Y497323D01*
X369764Y497402D01*
X369685Y497480D01*
X369606Y497559D01*
X369527Y497638D01*
X369488Y497717D01*
X369409Y497795D01*
X369370Y497874D01*
X369291Y497953D01*
X369252Y498071D01*
X369213Y498150D01*
X369173Y498268D01*
Y498346D01*
X369134Y498465D01*
Y498543D01*
X369094Y498661D01*
Y498740D01*
Y498858D01*
Y516575D01*
Y516693D01*
Y516772D01*
X369134Y516890D01*
Y516968D01*
X369173Y517087D01*
Y517165D01*
X369213Y517284D01*
X369252Y517362D01*
X369291Y517480D01*
X369370Y517559D01*
X369409Y517638D01*
X369488Y517717D01*
X369527Y517795D01*
X369606Y517874D01*
X369685Y517953D01*
X369764Y518032D01*
X369842Y518110D01*
X369921Y518150D01*
X370000Y518228D01*
X370079Y518268D01*
X370158Y518346D01*
X370276Y518386D01*
X370354Y518425D01*
X370472Y518465D01*
X370551D01*
X370669Y518504D01*
X370748D01*
X370866Y518543D01*
X410630D01*
X410748Y518504D01*
D02*
G37*
G36*
X300512D02*
X300591D01*
X300709Y518465D01*
X300787D01*
X300906Y518425D01*
X300984Y518386D01*
X301102Y518346D01*
X301181Y518268D01*
X301260Y518228D01*
X301339Y518150D01*
X301417Y518110D01*
X301496Y518032D01*
X301575Y517953D01*
X301654Y517874D01*
X301732Y517795D01*
X301772Y517717D01*
X301850Y517638D01*
X301890Y517559D01*
X301969Y517480D01*
X302008Y517362D01*
X302047Y517284D01*
X302087Y517165D01*
Y517087D01*
X302126Y516968D01*
Y516890D01*
X302165Y516772D01*
Y516693D01*
Y516575D01*
Y498858D01*
Y498740D01*
Y498661D01*
X302126Y498543D01*
Y498465D01*
X302087Y498346D01*
Y498268D01*
X302047Y498150D01*
X302008Y498071D01*
X301969Y497953D01*
X301890Y497874D01*
X301850Y497795D01*
X301772Y497717D01*
X301732Y497638D01*
X301654Y497559D01*
X301575Y497480D01*
X301496Y497402D01*
X301417Y497323D01*
X301339Y497284D01*
X301260Y497205D01*
X301181Y497165D01*
X301102Y497087D01*
X300984Y497047D01*
X300906Y497008D01*
X300787Y496969D01*
X300709D01*
X300591Y496929D01*
X300512D01*
X300394Y496890D01*
X274409D01*
X274291Y496929D01*
X274213D01*
X274094Y496969D01*
X274016D01*
X273898Y497008D01*
X273819Y497047D01*
X273701Y497087D01*
X273622Y497165D01*
X273543Y497205D01*
X273464Y497284D01*
X273386Y497323D01*
X273307Y497402D01*
X273228Y497480D01*
X273150Y497559D01*
X273071Y497638D01*
X273031Y497717D01*
X272953Y497795D01*
X272913Y497874D01*
X272835Y497953D01*
X272795Y498071D01*
X272756Y498150D01*
X272716Y498268D01*
Y498346D01*
X272677Y498465D01*
Y498543D01*
X272638Y498661D01*
Y498740D01*
Y498858D01*
Y508701D01*
Y508819D01*
Y508898D01*
X272598Y509016D01*
Y509094D01*
X272559Y509213D01*
Y509291D01*
X272520Y509409D01*
X272480Y509488D01*
X272441Y509606D01*
X272362Y509685D01*
X272323Y509764D01*
X272244Y509843D01*
X272205Y509921D01*
X272126Y510000D01*
X272047Y510079D01*
X271969Y510158D01*
X271890Y510236D01*
X271811Y510276D01*
X271732Y510354D01*
X271654Y510394D01*
X271575Y510473D01*
X271457Y510512D01*
X271378Y510551D01*
X271260Y510591D01*
X271181D01*
X271063Y510630D01*
X270984D01*
X270866Y510669D01*
X260630D01*
X260512Y510709D01*
X260433D01*
X260315Y510748D01*
X260236D01*
X260118Y510787D01*
X260039Y510827D01*
X259921Y510866D01*
X259842Y510945D01*
X259764Y510984D01*
X259685Y511063D01*
X259606Y511102D01*
X259527Y511181D01*
X259449Y511260D01*
X259370Y511339D01*
X259291Y511417D01*
X259252Y511496D01*
X259173Y511575D01*
X259134Y511654D01*
X259055Y511732D01*
X259016Y511850D01*
X258976Y511929D01*
X258937Y512047D01*
Y512126D01*
X258898Y512244D01*
Y512323D01*
X258858Y512441D01*
Y512520D01*
Y512638D01*
Y516575D01*
Y516693D01*
Y516772D01*
X258898Y516890D01*
Y516968D01*
X258937Y517087D01*
Y517165D01*
X258976Y517284D01*
X259016Y517362D01*
X259055Y517480D01*
X259134Y517559D01*
X259173Y517638D01*
X259252Y517717D01*
X259291Y517795D01*
X259370Y517874D01*
X259449Y517953D01*
X259527Y518032D01*
X259606Y518110D01*
X259685Y518150D01*
X259764Y518228D01*
X259842Y518268D01*
X259921Y518346D01*
X260039Y518386D01*
X260118Y518425D01*
X260236Y518465D01*
X260315D01*
X260433Y518504D01*
X260512D01*
X260630Y518543D01*
X300394D01*
X300512Y518504D01*
D02*
G37*
%LPC*%
G36*
X848381Y1190500D02*
X841619D01*
X835370Y1187912D01*
X830588Y1183130D01*
X828000Y1176881D01*
Y1170119D01*
X830588Y1163870D01*
X835370Y1159088D01*
X841619Y1156500D01*
X848381D01*
X854630Y1159088D01*
X859412Y1163870D01*
X862000Y1170119D01*
Y1176881D01*
X859412Y1183130D01*
X854630Y1187912D01*
X848381Y1190500D01*
D02*
G37*
%LPD*%
G36*
X199500Y646500D02*
X239500D01*
X256000Y630000D01*
X311000D01*
Y604000D01*
X194000Y604000D01*
X170000Y580000D01*
Y510000D01*
X60000D01*
Y665000D01*
X181000D01*
X199500Y646500D01*
D02*
G37*
G36*
X440583Y784441D02*
X347232Y691090D01*
Y572697D01*
X326345D01*
X324630Y574412D01*
X324104Y574630D01*
Y691014D01*
X227984Y787134D01*
X227984Y907205D01*
X440583D01*
Y784441D01*
D02*
G37*
G36*
X900000Y485000D02*
X685000Y485000D01*
X660000Y460000D01*
X660000Y135000D01*
X500000D01*
Y574000D01*
X481000Y593000D01*
X425000D01*
X365726Y593000D01*
X365555Y625746D01*
X369786Y630000D01*
X425000D01*
X441500Y646500D01*
X484164D01*
X502443Y665000D01*
X620000D01*
X635000Y680000D01*
X900000D01*
Y485000D01*
D02*
G37*
D10*
X1616417Y857528D02*
D03*
Y1247292D02*
D03*
X334284Y1239882D02*
D03*
Y850118D02*
D03*
D11*
X453740Y1595000D02*
D03*
X875000D02*
D03*
X870000Y210000D02*
D03*
X448740D02*
D03*
X1471260D02*
D03*
X1050000D02*
D03*
X1060000Y1595000D02*
D03*
X1481260D02*
D03*
D12*
X546260Y1419803D02*
D03*
X625000D02*
D03*
X703740D02*
D03*
X782480D02*
D03*
X777480Y385197D02*
D03*
X698740D02*
D03*
X620000D02*
D03*
X541260D02*
D03*
X1378740D02*
D03*
X1300000D02*
D03*
X1221260D02*
D03*
X1142520D02*
D03*
X1152520Y1419803D02*
D03*
X1231260D02*
D03*
X1310000D02*
D03*
X1388740D02*
D03*
D13*
X1600000Y1635945D02*
D03*
Y1695000D02*
D03*
X965000Y1635472D02*
D03*
Y1694528D02*
D03*
X325000Y1640945D02*
D03*
Y1700000D02*
D03*
D14*
X406000Y450000D02*
D03*
X374000D02*
D03*
X1654000Y460000D02*
D03*
X1686000D02*
D03*
X234843Y355000D02*
D03*
X266842D02*
D03*
X1583000Y370000D02*
D03*
X1551000D02*
D03*
X234843Y400000D02*
D03*
X266842D02*
D03*
X1582000Y415000D02*
D03*
X1550000D02*
D03*
X299842Y400000D02*
D03*
X331842D02*
D03*
X1645000Y415000D02*
D03*
X1613000D02*
D03*
X297842Y355000D02*
D03*
X329842D02*
D03*
X1645000Y370000D02*
D03*
X1613000D02*
D03*
D15*
X445000Y518000D02*
D03*
Y550000D02*
D03*
X1727134Y557410D02*
D03*
Y525410D02*
D03*
X225472Y534299D02*
D03*
Y566299D02*
D03*
X1507606Y573709D02*
D03*
Y541709D02*
D03*
X1645000Y1695000D02*
D03*
Y1663000D02*
D03*
X965000Y1549000D02*
D03*
Y1581000D02*
D03*
X280000Y1700000D02*
D03*
Y1668000D02*
D03*
X193976Y566299D02*
D03*
Y534299D02*
D03*
X1476110Y573709D02*
D03*
Y541709D02*
D03*
D16*
X770000Y1166850D02*
D03*
Y970000D02*
D03*
Y615000D02*
D03*
Y811850D02*
D03*
X1150000Y1166850D02*
D03*
Y970000D02*
D03*
Y615000D02*
D03*
Y811850D02*
D03*
D17*
X263500Y450000D02*
D03*
X336500D02*
D03*
X1620000Y460000D02*
D03*
X1547000D02*
D03*
D18*
X540000Y718000D02*
D03*
Y615000D02*
D03*
X1822134Y622410D02*
D03*
Y725410D02*
D03*
X130000Y718000D02*
D03*
Y615000D02*
D03*
X1412134Y622410D02*
D03*
Y725410D02*
D03*
X355000Y1433500D02*
D03*
Y1536500D02*
D03*
X1840000D02*
D03*
Y1433500D02*
D03*
X270000D02*
D03*
Y1536500D02*
D03*
X1755000D02*
D03*
Y1433500D02*
D03*
X185000D02*
D03*
Y1536500D02*
D03*
X1670000D02*
D03*
Y1433500D02*
D03*
X100000D02*
D03*
Y1536500D02*
D03*
X1585000D02*
D03*
Y1433500D02*
D03*
D19*
X650000Y1230000D02*
D03*
Y1323000D02*
D03*
X890000Y1230000D02*
D03*
Y1323000D02*
D03*
X1030000D02*
D03*
Y1230000D02*
D03*
X1270000Y1323000D02*
D03*
Y1230000D02*
D03*
D20*
X281496Y668150D02*
D03*
X389764D02*
D03*
X1563630Y675559D02*
D03*
X1671898D02*
D03*
D21*
X280000Y615000D02*
D03*
X391260D02*
D03*
X1562134Y622410D02*
D03*
X1673394D02*
D03*
D22*
X275079Y572677D02*
D03*
Y552992D02*
D03*
X396181Y533307D02*
D03*
Y552992D02*
D03*
X1557213Y580087D02*
D03*
Y560402D02*
D03*
X1678315Y540717D02*
D03*
Y560402D02*
D03*
D23*
X275079Y533307D02*
D03*
X396181Y572677D02*
D03*
X1557213Y540717D02*
D03*
X1678315Y580087D02*
D03*
D24*
X280512Y507717D02*
D03*
X390748D02*
D03*
X1562646Y515126D02*
D03*
X1672882D02*
D03*
D25*
X315945Y510158D02*
D03*
X355315D02*
D03*
X1598079Y517567D02*
D03*
X1637449D02*
D03*
D26*
X335630Y513110D02*
D03*
X1617764Y520520D02*
D03*
D27*
X335630Y631260D02*
D03*
X1617764Y638669D02*
D03*
D28*
X460000Y615000D02*
D03*
Y688000D02*
D03*
X210000Y615000D02*
D03*
Y688000D02*
D03*
X1742134Y622410D02*
D03*
Y695410D02*
D03*
X1492134Y622410D02*
D03*
Y695410D02*
D03*
D29*
X1637449Y517567D02*
Y539813D01*
X1629388Y547874D02*
X1637449Y539813D01*
X300911Y528144D02*
X312767Y540000D01*
X347718D02*
X355315Y532403D01*
X312767Y540000D02*
X347718D01*
X355315Y510158D02*
Y532403D01*
X300911Y518904D02*
Y528144D01*
X324138Y375842D02*
X329259Y370722D01*
X299842Y383775D02*
X307775Y375842D01*
X299842Y383775D02*
Y400000D01*
X307775Y375842D02*
X324138D01*
X329259Y355583D02*
X329842Y355000D01*
X329259Y355583D02*
Y370722D01*
X1573764Y517032D02*
X1583045Y526313D01*
Y535554D01*
X1595365Y547874D01*
X1629388D01*
X291630Y509622D02*
X300911Y518904D01*
X1613000Y415000D02*
X1614068Y413932D01*
Y399672D02*
Y413932D01*
Y399672D02*
X1621595Y392145D01*
X1637758D01*
X1644576Y370424D02*
X1645000Y370000D01*
X1644576Y370424D02*
Y385328D01*
X1637758Y392145D02*
X1644576Y385328D01*
D30*
X1637449Y495921D02*
Y517567D01*
X386745Y503713D02*
X390748Y507717D01*
X386745Y489838D02*
X406000Y470583D01*
X386745Y489838D02*
Y503713D01*
X406000Y454151D02*
Y470583D01*
X356236Y489606D02*
X374000Y471842D01*
Y450000D02*
Y471842D01*
X356236Y489606D02*
Y509236D01*
X355315Y510158D02*
X356236Y509236D01*
X299842Y400000D02*
X300000Y400158D01*
X1686000Y460000D02*
Y478895D01*
X1668937Y495958D02*
Y511182D01*
Y495958D02*
X1686000Y478895D01*
X1668937Y511182D02*
X1672882Y515126D01*
X1652844Y461156D02*
Y480526D01*
X1637449Y495921D02*
X1652844Y480526D01*
Y461156D02*
X1654000Y460000D01*
X282417Y509622D02*
X291630D01*
X280512Y507717D02*
X282417Y509622D01*
D31*
X331842Y400000D02*
X350000D01*
X1268339Y1321339D02*
X1270000Y1323000D01*
X1226339Y1321339D02*
X1268339D01*
X1225000Y1320000D02*
X1226339Y1321339D01*
X650000Y1323000D02*
X651661Y1321339D01*
X693661D01*
X695000Y1320000D01*
X374000Y450000D02*
X375531Y451531D01*
X1600000Y1695000D02*
X1645000D01*
X280000Y1700000D02*
X325000D01*
X263153Y498255D02*
X272614Y507717D01*
X263153Y450347D02*
Y498255D01*
X272614Y507717D02*
X280512D01*
X1550412Y322775D02*
Y369412D01*
X1550500Y370500D02*
X1551000Y370000D01*
X234411Y316510D02*
Y354568D01*
X269842Y400000D02*
X299842D01*
X1547000Y460000D02*
Y506339D01*
X1555787Y515126D02*
X1562646D01*
X1547000Y506339D02*
X1555787Y515126D01*
X965000Y1581000D02*
Y1635472D01*
X1550500Y370500D02*
Y414500D01*
X1550000Y415000D02*
X1550500Y414500D01*
X234843Y355000D02*
Y400000D01*
X1582000Y415000D02*
X1613000D01*
X1583000Y370000D02*
X1613000D01*
X267842Y355000D02*
X297842D01*
D32*
X234412Y235588D02*
X370000Y100000D01*
X234412Y235588D02*
Y316509D01*
X1515000Y105000D02*
X1550040Y140040D01*
Y322403D01*
X370000Y100000D02*
X915000D01*
X985000Y125000D02*
X1005000Y105000D01*
X1515000D01*
X915000Y100000D02*
X935000Y120000D01*
Y710000D01*
X985000Y125000D02*
Y715000D01*
X1030000Y760000D01*
Y1230000D01*
X890000Y755000D02*
Y1230000D01*
Y755000D02*
X935000Y710000D01*
D33*
X300000Y470000D02*
X315945Y485945D01*
Y510158D01*
X300000Y400158D02*
Y470000D01*
X1673394Y622410D02*
X1675441D01*
X1678315Y619536D01*
Y580087D02*
Y619536D01*
X1582000Y415000D02*
Y474519D01*
X1598079Y490598D01*
Y517567D01*
X1709863Y529037D02*
X1723507D01*
X1698183Y540717D02*
X1709863Y529037D01*
X1723507D02*
X1727134Y525410D01*
X1678315Y540717D02*
X1698183D01*
X1507606Y541709D02*
X1512449Y546551D01*
X1524971D01*
X1538743Y560323D01*
X1557134D01*
X1557213Y560402D01*
X1476110Y541709D02*
X1507606D01*
Y573709D02*
X1508897Y575000D01*
X1525000D01*
X1530087Y580087D01*
X1557213D01*
X1477134Y592410D02*
X1482992Y598268D01*
X1615874D01*
X1477134Y574732D02*
Y592410D01*
X391260Y615000D02*
X393307D01*
X396181Y612126D01*
Y572677D02*
Y612126D01*
X406000Y450000D02*
X410151Y454151D01*
X427125Y521023D02*
X441977D01*
X414841Y533307D02*
X427125Y521023D01*
X441977D02*
X445000Y518000D01*
X396181Y533307D02*
X414841D01*
X242183Y538487D02*
X256609Y552913D01*
X229660Y538487D02*
X242183D01*
X225472Y534299D02*
X229660Y538487D01*
X193976Y534299D02*
X225472D01*
X195000Y567323D02*
Y585000D01*
X200858Y590858D02*
X333740D01*
X195000Y585000D02*
X200858Y590858D01*
X193976Y566299D02*
X195000Y567323D01*
X333740Y590858D02*
X335630Y592748D01*
X256609Y552913D02*
X263839D01*
X244539Y566299D02*
X250838Y572598D01*
X275000D02*
X275079Y572677D01*
X225472Y566299D02*
X244539D01*
X250838Y572598D02*
X275000D01*
D34*
X1840000Y1710000D02*
D03*
Y100000D02*
D03*
X100000Y1710000D02*
D03*
Y100000D02*
D03*
D35*
X1335000Y1280000D02*
D03*
X1365000D02*
D03*
X1305000D02*
D03*
X575000D02*
D03*
X635000D02*
D03*
X605000D02*
D03*
X991500Y1173500D02*
D03*
X845000D02*
D03*
X925000Y1175000D02*
D03*
X955000Y1215000D02*
D03*
X1620000Y460000D02*
D03*
X1665000Y415000D02*
D03*
X350000Y400000D02*
D03*
X445000Y570000D02*
D03*
X315000Y560000D02*
D03*
X365000Y555000D02*
D03*
X1595000Y570000D02*
D03*
X1650000Y560000D02*
D03*
X1725000Y575000D02*
D03*
X1225000Y1320000D02*
D03*
X695000D02*
D03*
X890000Y1323000D02*
D03*
X1030000D02*
D03*
X1840000Y1590000D02*
D03*
X1755000D02*
D03*
X1670000D02*
D03*
X1560000Y1593500D02*
D03*
X105000Y1590000D02*
D03*
X190000D02*
D03*
X275000D02*
D03*
X360000D02*
D03*
X1080000Y800000D02*
D03*
X1220000D02*
D03*
X700000D02*
D03*
X840000D02*
D03*
X700000Y960000D02*
D03*
X840000D02*
D03*
X160000Y810000D02*
D03*
X100000D02*
D03*
X1560000Y1540000D02*
D03*
X1670000Y1536500D02*
D03*
X1755000D02*
D03*
X1840000D02*
D03*
X355000D02*
D03*
X270000D02*
D03*
X185000D02*
D03*
X100000D02*
D03*
X1481260Y1595000D02*
D03*
X1060000D02*
D03*
X875000D02*
D03*
X453740D02*
D03*
X1148780Y1525000D02*
D03*
Y1585000D02*
D03*
Y1640000D02*
D03*
X1213780D02*
D03*
Y1585000D02*
D03*
Y1525000D02*
D03*
X1152520Y1419803D02*
D03*
X1231260D02*
D03*
X542520Y1525000D02*
D03*
Y1585000D02*
D03*
Y1640000D02*
D03*
X607520D02*
D03*
Y1585000D02*
D03*
Y1525000D02*
D03*
X546260Y1419803D02*
D03*
X625000D02*
D03*
X336500Y450000D02*
D03*
X1563630Y675559D02*
D03*
X1671898D02*
D03*
X1492134Y695410D02*
D03*
X1412134Y725410D02*
D03*
X1822134D02*
D03*
X1742134Y695410D02*
D03*
X1492134Y727410D02*
D03*
X1382134Y777410D02*
D03*
X1442134D02*
D03*
X1382134Y817410D02*
D03*
X1442134D02*
D03*
X1852134D02*
D03*
X1792134D02*
D03*
X1852134Y777410D02*
D03*
X1792134D02*
D03*
X510000Y770000D02*
D03*
X570000D02*
D03*
X510000Y810000D02*
D03*
X570000D02*
D03*
X160000Y770000D02*
D03*
X100000D02*
D03*
X210000Y720000D02*
D03*
X460000Y688000D02*
D03*
X540000Y718000D02*
D03*
X130000D02*
D03*
X210000Y688000D02*
D03*
X389764Y668150D02*
D03*
X281496D02*
D03*
X1310000Y1010000D02*
D03*
Y960000D02*
D03*
Y910000D02*
D03*
X1150000Y811850D02*
D03*
X1080000Y910000D02*
D03*
Y850000D02*
D03*
Y750000D02*
D03*
X1220000D02*
D03*
Y850000D02*
D03*
Y910000D02*
D03*
X840000Y1010000D02*
D03*
Y910000D02*
D03*
Y850000D02*
D03*
Y750000D02*
D03*
X700000D02*
D03*
Y850000D02*
D03*
Y910000D02*
D03*
Y1010000D02*
D03*
X770000Y811850D02*
D03*
Y970000D02*
D03*
X1471260Y210000D02*
D03*
X1050000D02*
D03*
X870000D02*
D03*
X448740D02*
D03*
X1381260Y300000D02*
D03*
Y240000D02*
D03*
Y180000D02*
D03*
X1301260Y300000D02*
D03*
Y240000D02*
D03*
Y180000D02*
D03*
X1300000Y385197D02*
D03*
X1378740D02*
D03*
X777480D02*
D03*
X698740D02*
D03*
X700000Y180000D02*
D03*
Y240000D02*
D03*
Y300000D02*
D03*
X780000Y180000D02*
D03*
Y240000D02*
D03*
Y300000D02*
D03*
X1492134Y622410D02*
D03*
X760000Y1140000D02*
D03*
Y1190000D02*
D03*
X1430000D02*
D03*
Y1090000D02*
D03*
X1490000Y1140000D02*
D03*
X1380000Y1130000D02*
D03*
X1340000D02*
D03*
X1430000Y1140000D02*
D03*
X1380000Y1090000D02*
D03*
Y1170000D02*
D03*
X1340000D02*
D03*
Y1090000D02*
D03*
X1490000D02*
D03*
Y1190000D02*
D03*
X760000Y1090000D02*
D03*
X610000D02*
D03*
Y1170000D02*
D03*
X650000D02*
D03*
Y1090000D02*
D03*
X700000Y1140000D02*
D03*
X610000Y1130000D02*
D03*
X650000D02*
D03*
X700000Y1090000D02*
D03*
Y1190000D02*
D03*
X1388740Y1419803D02*
D03*
X1310000D02*
D03*
X1480000Y1385000D02*
D03*
Y1450000D02*
D03*
X1430000D02*
D03*
Y1385000D02*
D03*
X1310000Y1525000D02*
D03*
Y1585000D02*
D03*
Y1640000D02*
D03*
X1375000D02*
D03*
Y1585000D02*
D03*
Y1525000D02*
D03*
X830000Y1390000D02*
D03*
Y1455000D02*
D03*
X880000D02*
D03*
Y1390000D02*
D03*
X782480Y1419803D02*
D03*
X703740D02*
D03*
X765000Y1525000D02*
D03*
Y1585000D02*
D03*
Y1640000D02*
D03*
X700000D02*
D03*
Y1585000D02*
D03*
Y1525000D02*
D03*
X150000Y530000D02*
D03*
Y570000D02*
D03*
X115000Y530000D02*
D03*
Y570000D02*
D03*
X76000Y530000D02*
D03*
X80000Y570000D02*
D03*
X210000Y615000D02*
D03*
X130000D02*
D03*
X1820000Y550000D02*
D03*
X1860000D02*
D03*
X1780000D02*
D03*
X1860000Y580000D02*
D03*
X1820000D02*
D03*
X1780000D02*
D03*
X1742134Y622410D02*
D03*
X1822134D02*
D03*
X1230000Y630000D02*
D03*
Y570000D02*
D03*
Y510000D02*
D03*
X1150000D02*
D03*
X1070000D02*
D03*
Y630000D02*
D03*
Y570000D02*
D03*
X1412134Y622410D02*
D03*
X1150000Y615000D02*
D03*
X1221260Y385197D02*
D03*
X1142520D02*
D03*
X1141260Y180000D02*
D03*
Y240000D02*
D03*
Y300000D02*
D03*
X1221260Y180000D02*
D03*
Y240000D02*
D03*
Y300000D02*
D03*
X841239Y614918D02*
D03*
X840000Y570000D02*
D03*
Y660000D02*
D03*
X770000D02*
D03*
Y570000D02*
D03*
X690000Y560000D02*
D03*
X650000Y520000D02*
D03*
X610000Y480000D02*
D03*
X640000Y600000D02*
D03*
X600000Y560000D02*
D03*
X560000Y520000D02*
D03*
X770000Y615000D02*
D03*
X540000D02*
D03*
X620000Y385197D02*
D03*
X541260D02*
D03*
X620000Y300000D02*
D03*
Y240000D02*
D03*
Y180000D02*
D03*
X540000Y300000D02*
D03*
Y240000D02*
D03*
Y180000D02*
D03*
D36*
X205000Y20000D02*
D03*
X285000D02*
D03*
X365000D02*
D03*
X445000D02*
D03*
X765000D02*
D03*
X685000D02*
D03*
X605000D02*
D03*
X525000D02*
D03*
X1165000D02*
D03*
X1245000D02*
D03*
X1325000D02*
D03*
X1405000D02*
D03*
X1085000D02*
D03*
X1005000D02*
D03*
X925000D02*
D03*
X845000D02*
D03*
X1645000D02*
D03*
X1565000D02*
D03*
X1485000D02*
D03*
X1725000D02*
D03*
X20000Y340000D02*
D03*
Y260000D02*
D03*
Y180000D02*
D03*
Y980000D02*
D03*
Y900000D02*
D03*
Y820000D02*
D03*
Y740000D02*
D03*
Y420000D02*
D03*
Y500000D02*
D03*
Y580000D02*
D03*
Y660000D02*
D03*
Y1300000D02*
D03*
Y1220000D02*
D03*
Y1140000D02*
D03*
Y1060000D02*
D03*
Y1380000D02*
D03*
Y1460000D02*
D03*
Y1540000D02*
D03*
Y1620000D02*
D03*
X1840000Y1770000D02*
D03*
Y1650000D02*
D03*
X1775000Y1705000D02*
D03*
X1900000Y1710000D02*
D03*
X1885000Y1755000D02*
D03*
X1795000D02*
D03*
Y1665000D02*
D03*
X1885000D02*
D03*
X1840000Y160000D02*
D03*
Y40000D02*
D03*
X1775000Y95000D02*
D03*
X1900000Y100000D02*
D03*
X1885000Y145000D02*
D03*
X1795000D02*
D03*
Y55000D02*
D03*
X1885000D02*
D03*
X100000Y160000D02*
D03*
Y40000D02*
D03*
X35000Y95000D02*
D03*
X160000Y100000D02*
D03*
X145000Y145000D02*
D03*
X55000D02*
D03*
Y55000D02*
D03*
X145000D02*
D03*
X1925000Y1630000D02*
D03*
Y1550000D02*
D03*
Y1470000D02*
D03*
Y1390000D02*
D03*
Y1070000D02*
D03*
Y1150000D02*
D03*
Y1230000D02*
D03*
Y1310000D02*
D03*
Y670000D02*
D03*
Y590000D02*
D03*
Y510000D02*
D03*
Y430000D02*
D03*
Y750000D02*
D03*
Y830000D02*
D03*
Y910000D02*
D03*
Y990000D02*
D03*
Y190000D02*
D03*
Y270000D02*
D03*
Y350000D02*
D03*
X1725000Y1795000D02*
D03*
X1485000D02*
D03*
X1565000D02*
D03*
X1645000D02*
D03*
X845000D02*
D03*
X925000D02*
D03*
X1005000D02*
D03*
X1085000D02*
D03*
X1405000D02*
D03*
X1325000D02*
D03*
X1245000D02*
D03*
X1165000D02*
D03*
X525000D02*
D03*
X605000D02*
D03*
X685000D02*
D03*
X765000D02*
D03*
X445000D02*
D03*
X365000D02*
D03*
X285000D02*
D03*
X145000Y1665000D02*
D03*
X55000D02*
D03*
Y1755000D02*
D03*
X145000D02*
D03*
X160000Y1710000D02*
D03*
X35000Y1705000D02*
D03*
X100000Y1650000D02*
D03*
Y1770000D02*
D03*
X205000Y1795000D02*
D03*
D37*
X1125000Y1000000D02*
D03*
X380000Y1025000D02*
D03*
X1670000Y1665000D02*
D03*
X260000D02*
D03*
X965000Y1549000D02*
D03*
Y1694528D02*
D03*
X1670000Y1433500D02*
D03*
X1600000Y1635945D02*
D03*
X270000Y1433500D02*
D03*
X325000Y1640945D02*
D03*
X380000Y1100000D02*
D03*
X1120000Y1080000D02*
D03*
X1657134Y932410D02*
D03*
X1682134D02*
D03*
X1707134D02*
D03*
X1728540Y932063D02*
D03*
X1740701Y912410D02*
D03*
X1632134Y932410D02*
D03*
X1607134D02*
D03*
X1582134D02*
D03*
X1557134D02*
D03*
X1492134Y837410D02*
D03*
Y862410D02*
D03*
Y887410D02*
D03*
X1740701Y837410D02*
D03*
Y862410D02*
D03*
Y887410D02*
D03*
X1532134Y932410D02*
D03*
X1507134D02*
D03*
X1492134Y912410D02*
D03*
X1552134Y722410D02*
D03*
X1532134Y742410D02*
D03*
X1512134Y762410D02*
D03*
X1497134Y782410D02*
D03*
X1492134Y812410D02*
D03*
X1740701D02*
D03*
X1737134Y782410D02*
D03*
X1720701Y762410D02*
D03*
X1700701Y742410D02*
D03*
X1680701Y722410D02*
D03*
X446406Y924654D02*
D03*
X398567Y715000D02*
D03*
X418567Y735000D02*
D03*
X438567Y755000D02*
D03*
X455000Y775000D02*
D03*
X458567Y805000D02*
D03*
Y830000D02*
D03*
Y855000D02*
D03*
Y880000D02*
D03*
Y905000D02*
D03*
X425000Y925000D02*
D03*
X400000D02*
D03*
X375000D02*
D03*
X350000D02*
D03*
X325000D02*
D03*
X300000D02*
D03*
X275000D02*
D03*
X250000D02*
D03*
X225000D02*
D03*
X210000Y905000D02*
D03*
Y880000D02*
D03*
Y855000D02*
D03*
Y830000D02*
D03*
Y805000D02*
D03*
X215000Y775000D02*
D03*
X230000Y755000D02*
D03*
X250000Y735000D02*
D03*
X270000Y715000D02*
D03*
%TF.MD5,2371f566e1926e87beef02cdea98e713*%
M02*
