%TF.GenerationSoftware,Altium Limited,Altium Designer,25.1.2 (22)*%
G04 Layer_Color=255*
%FSLAX26Y26*%
%MOIN*%
%TF.SameCoordinates,B55DE1B5-5D27-457A-AB8C-2CA5C84F2FA2*%
%TF.FilePolarity,Positive*%
%TF.FileFunction,Pads,Top*%
%TF.Part,Single*%
G01*
G75*
%TA.AperFunction,SMDPad,CuDef*%
%ADD10R,0.212598X0.114173*%
%TA.AperFunction,SMDPad,SMDef*%
%ADD11R,0.071000X0.150000*%
%TA.AperFunction,SMDPad,CuDef*%
%ADD12R,0.039000X0.106000*%
%ADD13R,0.031496X0.031496*%
%ADD14R,0.019685X0.019685*%
%ADD15R,0.019685X0.019685*%
%ADD16R,0.062992X0.125984*%
%ADD17R,0.022000X0.035000*%
%ADD18R,0.075000X0.063000*%
%ADD19R,0.057000X0.022000*%
G04:AMPARAMS|DCode=20|XSize=15.748mil|YSize=15.748mil|CornerRadius=3.937mil|HoleSize=0mil|Usage=FLASHONLY|Rotation=0.000|XOffset=0mil|YOffset=0mil|HoleType=Round|Shape=RoundedRectangle|*
%AMROUNDEDRECTD20*
21,1,0.015748,0.007874,0,0,0.0*
21,1,0.007874,0.015748,0,0,0.0*
1,1,0.007874,0.003937,-0.003937*
1,1,0.007874,-0.003937,-0.003937*
1,1,0.007874,-0.003937,0.003937*
1,1,0.007874,0.003937,0.003937*
%
%ADD20ROUNDEDRECTD20*%
G04:AMPARAMS|DCode=21|XSize=42.323mil|YSize=15.748mil|CornerRadius=3.937mil|HoleSize=0mil|Usage=FLASHONLY|Rotation=0.000|XOffset=0mil|YOffset=0mil|HoleType=Round|Shape=RoundedRectangle|*
%AMROUNDEDRECTD21*
21,1,0.042323,0.007874,0,0,0.0*
21,1,0.034449,0.015748,0,0,0.0*
1,1,0.007874,0.017224,-0.003937*
1,1,0.007874,-0.017224,-0.003937*
1,1,0.007874,-0.017224,0.003937*
1,1,0.007874,0.017224,0.003937*
%
%ADD21ROUNDEDRECTD21*%
G04:AMPARAMS|DCode=22|XSize=32.48mil|YSize=9.842mil|CornerRadius=2.461mil|HoleSize=0mil|Usage=FLASHONLY|Rotation=0.000|XOffset=0mil|YOffset=0mil|HoleType=Round|Shape=RoundedRectangle|*
%AMROUNDEDRECTD22*
21,1,0.032480,0.004921,0,0,0.0*
21,1,0.027559,0.009842,0,0,0.0*
1,1,0.004921,0.013780,-0.002461*
1,1,0.004921,-0.013780,-0.002461*
1,1,0.004921,-0.013780,0.002461*
1,1,0.004921,0.013780,0.002461*
%
%ADD22ROUNDEDRECTD22*%
G04:AMPARAMS|DCode=23|XSize=32.48mil|YSize=9.842mil|CornerRadius=2.51mil|HoleSize=0mil|Usage=FLASHONLY|Rotation=0.000|XOffset=0mil|YOffset=0mil|HoleType=Round|Shape=RoundedRectangle|*
%AMROUNDEDRECTD23*
21,1,0.032480,0.004823,0,0,0.0*
21,1,0.027461,0.009842,0,0,0.0*
1,1,0.005020,0.013730,-0.002412*
1,1,0.005020,-0.013730,-0.002412*
1,1,0.005020,-0.013730,0.002412*
1,1,0.005020,0.013730,0.002412*
%
%ADD23ROUNDEDRECTD23*%
G04:AMPARAMS|DCode=24|XSize=11.811mil|YSize=11.811mil|CornerRadius=2.953mil|HoleSize=0mil|Usage=FLASHONLY|Rotation=0.000|XOffset=0mil|YOffset=0mil|HoleType=Round|Shape=RoundedRectangle|*
%AMROUNDEDRECTD24*
21,1,0.011811,0.005905,0,0,0.0*
21,1,0.005905,0.011811,0,0,0.0*
1,1,0.005906,0.002953,-0.002953*
1,1,0.005906,-0.002953,-0.002953*
1,1,0.005906,-0.002953,0.002953*
1,1,0.005906,0.002953,0.002953*
%
%ADD24ROUNDEDRECTD24*%
G04:AMPARAMS|DCode=25|XSize=9.842mil|YSize=26.575mil|CornerRadius=2.461mil|HoleSize=0mil|Usage=FLASHONLY|Rotation=0.000|XOffset=0mil|YOffset=0mil|HoleType=Round|Shape=RoundedRectangle|*
%AMROUNDEDRECTD25*
21,1,0.009842,0.021654,0,0,0.0*
21,1,0.004921,0.026575,0,0,0.0*
1,1,0.004921,0.002461,-0.010827*
1,1,0.004921,-0.002461,-0.010827*
1,1,0.004921,-0.002461,0.010827*
1,1,0.004921,0.002461,0.010827*
%
%ADD25ROUNDEDRECTD25*%
G04:AMPARAMS|DCode=26|XSize=9.842mil|YSize=32.48mil|CornerRadius=2.461mil|HoleSize=0mil|Usage=FLASHONLY|Rotation=0.000|XOffset=0mil|YOffset=0mil|HoleType=Round|Shape=RoundedRectangle|*
%AMROUNDEDRECTD26*
21,1,0.009842,0.027559,0,0,0.0*
21,1,0.004921,0.032480,0,0,0.0*
1,1,0.004921,0.002461,-0.013780*
1,1,0.004921,-0.002461,-0.013780*
1,1,0.004921,-0.002461,0.013780*
1,1,0.004921,0.002461,0.013780*
%
%ADD26ROUNDEDRECTD26*%
G04:AMPARAMS|DCode=27|XSize=13.78mil|YSize=117.126mil|CornerRadius=3.445mil|HoleSize=0mil|Usage=FLASHONLY|Rotation=0.000|XOffset=0mil|YOffset=0mil|HoleType=Round|Shape=RoundedRectangle|*
%AMROUNDEDRECTD27*
21,1,0.013780,0.110236,0,0,0.0*
21,1,0.006890,0.117126,0,0,0.0*
1,1,0.006890,0.003445,-0.055118*
1,1,0.006890,-0.003445,-0.055118*
1,1,0.006890,-0.003445,0.055118*
1,1,0.006890,0.003445,0.055118*
%
%ADD27ROUNDEDRECTD27*%
%ADD28R,0.035000X0.022000*%
%TA.AperFunction,ViaPad*%
%ADD34C,0.160000*%
D10*
X1616417Y857528D02*
D03*
Y1247292D02*
D03*
X334284Y1239882D02*
D03*
Y850118D02*
D03*
D11*
X453740Y1595000D02*
D03*
X875000D02*
D03*
X870000Y210000D02*
D03*
X448740D02*
D03*
X1471260D02*
D03*
X1050000D02*
D03*
X1060000Y1595000D02*
D03*
X1481260D02*
D03*
D12*
X546260Y1419803D02*
D03*
X625000D02*
D03*
X703740D02*
D03*
X782480D02*
D03*
X777480Y385197D02*
D03*
X698740D02*
D03*
X620000D02*
D03*
X541260D02*
D03*
X1378740D02*
D03*
X1300000D02*
D03*
X1221260D02*
D03*
X1142520D02*
D03*
X1152520Y1419803D02*
D03*
X1231260D02*
D03*
X1310000D02*
D03*
X1388740D02*
D03*
D13*
X1600000Y1635945D02*
D03*
Y1695000D02*
D03*
X965000Y1635472D02*
D03*
Y1694528D02*
D03*
X325000Y1640945D02*
D03*
Y1700000D02*
D03*
D14*
X406000Y450000D02*
D03*
X374000D02*
D03*
X1654000Y460000D02*
D03*
X1686000D02*
D03*
X234843Y355000D02*
D03*
X266842D02*
D03*
X1583000Y370000D02*
D03*
X1551000D02*
D03*
X234843Y400000D02*
D03*
X266842D02*
D03*
X1582000Y415000D02*
D03*
X1550000D02*
D03*
X299842Y400000D02*
D03*
X331842D02*
D03*
X1645000Y415000D02*
D03*
X1613000D02*
D03*
X297842Y355000D02*
D03*
X329842D02*
D03*
X1645000Y370000D02*
D03*
X1613000D02*
D03*
D15*
X445000Y518000D02*
D03*
Y550000D02*
D03*
X1727134Y557410D02*
D03*
Y525410D02*
D03*
X225472Y534299D02*
D03*
Y566299D02*
D03*
X1507606Y573709D02*
D03*
Y541709D02*
D03*
X1645000Y1695000D02*
D03*
Y1663000D02*
D03*
X965000Y1549000D02*
D03*
Y1581000D02*
D03*
X280000Y1700000D02*
D03*
Y1668000D02*
D03*
X193976Y566299D02*
D03*
Y534299D02*
D03*
X1476110Y573709D02*
D03*
Y541709D02*
D03*
D16*
X770000Y1166850D02*
D03*
Y970000D02*
D03*
Y615000D02*
D03*
Y811850D02*
D03*
X1150000Y1166850D02*
D03*
Y970000D02*
D03*
Y615000D02*
D03*
Y811850D02*
D03*
D17*
X263500Y450000D02*
D03*
X336500D02*
D03*
X1620000Y460000D02*
D03*
X1547000D02*
D03*
D18*
X540000Y718000D02*
D03*
Y615000D02*
D03*
X1822134Y622410D02*
D03*
Y725410D02*
D03*
X130000Y718000D02*
D03*
Y615000D02*
D03*
X1412134Y622410D02*
D03*
Y725410D02*
D03*
X355000Y1433500D02*
D03*
Y1536500D02*
D03*
X1840000D02*
D03*
Y1433500D02*
D03*
X270000D02*
D03*
Y1536500D02*
D03*
X1755000D02*
D03*
Y1433500D02*
D03*
X185000D02*
D03*
Y1536500D02*
D03*
X1670000D02*
D03*
Y1433500D02*
D03*
X100000D02*
D03*
Y1536500D02*
D03*
X1585000D02*
D03*
Y1433500D02*
D03*
D19*
X650000Y1230000D02*
D03*
Y1323000D02*
D03*
X890000Y1230000D02*
D03*
Y1323000D02*
D03*
X1030000D02*
D03*
Y1230000D02*
D03*
X1270000Y1323000D02*
D03*
Y1230000D02*
D03*
D20*
X281496Y668150D02*
D03*
X389764D02*
D03*
X1563630Y675559D02*
D03*
X1671898D02*
D03*
D21*
X280000Y615000D02*
D03*
X391260D02*
D03*
X1562134Y622410D02*
D03*
X1673394D02*
D03*
D22*
X275079Y572677D02*
D03*
Y552992D02*
D03*
X396181Y533307D02*
D03*
Y552992D02*
D03*
X1557213Y580087D02*
D03*
Y560402D02*
D03*
X1678315Y540717D02*
D03*
Y560402D02*
D03*
D23*
X275079Y533307D02*
D03*
X396181Y572677D02*
D03*
X1557213Y540717D02*
D03*
X1678315Y580087D02*
D03*
D24*
X280512Y507717D02*
D03*
X390748D02*
D03*
X1562646Y515126D02*
D03*
X1672882D02*
D03*
D25*
X315945Y510158D02*
D03*
X355315D02*
D03*
X1598079Y517567D02*
D03*
X1637449D02*
D03*
D26*
X335630Y513110D02*
D03*
X1617764Y520520D02*
D03*
D27*
X335630Y631260D02*
D03*
X1617764Y638669D02*
D03*
D28*
X460000Y615000D02*
D03*
Y688000D02*
D03*
X210000Y615000D02*
D03*
Y688000D02*
D03*
X1742134Y622410D02*
D03*
Y695410D02*
D03*
X1492134Y622410D02*
D03*
Y695410D02*
D03*
D34*
X1840000Y1710000D02*
D03*
Y100000D02*
D03*
X100000Y1710000D02*
D03*
Y100000D02*
D03*
%TF.MD5,ef9cbc82be50c493b646f6fa1e581081*%
M02*
