%TF.GenerationSoftware,Altium Limited,Altium Designer,25.1.2 (22)*%
G04 Layer_Physical_Order=2*
G04 Layer_Color=32768*
%FSLAX26Y26*%
%MOIN*%
%TF.SameCoordinates,B55DE1B5-5D27-457A-AB8C-2CA5C84F2FA2*%
%TF.FilePolarity,Negative*%
%TF.FileFunction,Copper,L2,Inr,Plane*%
%TF.Part,Single*%
G01*
G75*
%TA.AperFunction,NonConductor*%
%ADD38C,0.050000*%
%TA.AperFunction,ViaPad*%
%ADD39C,0.030000*%
%ADD40C,0.028000*%
%ADD41C,0.026000*%
D38*
X0Y110000D02*
G03*
X110000Y0I110000J0D01*
G01*
X1835000Y0D02*
G03*
X1945000Y110000I0J110000D01*
G01*
X1945000Y1705000D02*
G03*
X1835000Y1815000I-110000J0D01*
G01*
X110000D02*
G03*
X0Y1705000I0J-110000D01*
G01*
X110000Y0D02*
X1835000D01*
X1945000Y1705000D02*
X1945000Y110000D01*
X110000Y1815000D02*
X1835000D01*
X0Y110000D02*
Y1705000D01*
D39*
X1335000Y1280000D02*
D03*
X1365000D02*
D03*
X1305000D02*
D03*
X575000D02*
D03*
X635000D02*
D03*
X605000D02*
D03*
X1148780Y1525000D02*
D03*
Y1585000D02*
D03*
Y1640000D02*
D03*
X1213780D02*
D03*
Y1585000D02*
D03*
Y1525000D02*
D03*
X542520D02*
D03*
Y1585000D02*
D03*
Y1640000D02*
D03*
X607520D02*
D03*
Y1585000D02*
D03*
Y1525000D02*
D03*
X1492134Y622410D02*
D03*
X760000Y1140000D02*
D03*
Y1190000D02*
D03*
X1430000D02*
D03*
Y1090000D02*
D03*
X1490000Y1140000D02*
D03*
X1380000Y1130000D02*
D03*
X1340000D02*
D03*
X1430000Y1140000D02*
D03*
X1380000Y1090000D02*
D03*
Y1170000D02*
D03*
X1340000D02*
D03*
Y1090000D02*
D03*
X1490000D02*
D03*
Y1190000D02*
D03*
X760000Y1090000D02*
D03*
X610000D02*
D03*
Y1170000D02*
D03*
X650000D02*
D03*
Y1090000D02*
D03*
X700000Y1140000D02*
D03*
X610000Y1130000D02*
D03*
X650000D02*
D03*
X700000Y1090000D02*
D03*
Y1190000D02*
D03*
X1388740Y1419803D02*
D03*
X1310000D02*
D03*
X1480000Y1385000D02*
D03*
Y1450000D02*
D03*
X1430000D02*
D03*
Y1385000D02*
D03*
X1310000Y1525000D02*
D03*
Y1585000D02*
D03*
Y1640000D02*
D03*
X1375000D02*
D03*
Y1585000D02*
D03*
Y1525000D02*
D03*
X830000Y1390000D02*
D03*
Y1455000D02*
D03*
X880000D02*
D03*
Y1390000D02*
D03*
X782480Y1419803D02*
D03*
X703740D02*
D03*
X765000Y1525000D02*
D03*
Y1585000D02*
D03*
Y1640000D02*
D03*
X700000D02*
D03*
Y1585000D02*
D03*
Y1525000D02*
D03*
X150000Y530000D02*
D03*
Y570000D02*
D03*
X115000Y530000D02*
D03*
Y570000D02*
D03*
X76000Y530000D02*
D03*
X80000Y570000D02*
D03*
X210000Y615000D02*
D03*
X130000D02*
D03*
X1820000Y550000D02*
D03*
X1860000D02*
D03*
X1780000D02*
D03*
X1860000Y580000D02*
D03*
X1820000D02*
D03*
X1780000D02*
D03*
X1742134Y622410D02*
D03*
X1822134D02*
D03*
X1230000Y630000D02*
D03*
Y570000D02*
D03*
Y510000D02*
D03*
X1150000D02*
D03*
X1070000D02*
D03*
Y630000D02*
D03*
Y570000D02*
D03*
X1412134Y622410D02*
D03*
X1150000Y615000D02*
D03*
X1221260Y385197D02*
D03*
X1142520D02*
D03*
X1141260Y180000D02*
D03*
Y240000D02*
D03*
Y300000D02*
D03*
X1221260Y180000D02*
D03*
Y240000D02*
D03*
Y300000D02*
D03*
X841239Y614918D02*
D03*
X840000Y570000D02*
D03*
Y660000D02*
D03*
X770000D02*
D03*
Y570000D02*
D03*
X690000Y560000D02*
D03*
X650000Y520000D02*
D03*
X610000Y480000D02*
D03*
X640000Y600000D02*
D03*
X600000Y560000D02*
D03*
X560000Y520000D02*
D03*
X770000Y615000D02*
D03*
X540000D02*
D03*
X620000Y385197D02*
D03*
X541260D02*
D03*
X620000Y300000D02*
D03*
Y240000D02*
D03*
Y180000D02*
D03*
X540000Y300000D02*
D03*
Y240000D02*
D03*
Y180000D02*
D03*
D40*
X205000Y20000D02*
D03*
X285000D02*
D03*
X365000D02*
D03*
X445000D02*
D03*
X765000D02*
D03*
X685000D02*
D03*
X605000D02*
D03*
X525000D02*
D03*
X1165000D02*
D03*
X1245000D02*
D03*
X1325000D02*
D03*
X1405000D02*
D03*
X1085000D02*
D03*
X1005000D02*
D03*
X925000D02*
D03*
X845000D02*
D03*
X1645000D02*
D03*
X1565000D02*
D03*
X1485000D02*
D03*
X1725000D02*
D03*
X20000Y340000D02*
D03*
Y260000D02*
D03*
Y180000D02*
D03*
Y980000D02*
D03*
Y900000D02*
D03*
Y820000D02*
D03*
Y740000D02*
D03*
Y420000D02*
D03*
Y500000D02*
D03*
Y580000D02*
D03*
Y660000D02*
D03*
Y1300000D02*
D03*
Y1220000D02*
D03*
Y1140000D02*
D03*
Y1060000D02*
D03*
Y1380000D02*
D03*
Y1460000D02*
D03*
Y1540000D02*
D03*
Y1620000D02*
D03*
X1925000Y1630000D02*
D03*
Y1550000D02*
D03*
Y1470000D02*
D03*
Y1390000D02*
D03*
Y1070000D02*
D03*
Y1150000D02*
D03*
Y1230000D02*
D03*
Y1310000D02*
D03*
Y670000D02*
D03*
Y590000D02*
D03*
Y510000D02*
D03*
Y430000D02*
D03*
Y750000D02*
D03*
Y830000D02*
D03*
Y910000D02*
D03*
Y990000D02*
D03*
Y190000D02*
D03*
Y270000D02*
D03*
Y350000D02*
D03*
X1725000Y1795000D02*
D03*
X1485000D02*
D03*
X1565000D02*
D03*
X1645000D02*
D03*
X845000D02*
D03*
X925000D02*
D03*
X1005000D02*
D03*
X1085000D02*
D03*
X1405000D02*
D03*
X1325000D02*
D03*
X1245000D02*
D03*
X1165000D02*
D03*
X525000D02*
D03*
X605000D02*
D03*
X685000D02*
D03*
X765000D02*
D03*
X445000D02*
D03*
X365000D02*
D03*
X285000D02*
D03*
X205000D02*
D03*
D41*
X965000Y1694528D02*
D03*
X1670000Y1433500D02*
D03*
X1600000Y1635945D02*
D03*
X270000Y1433500D02*
D03*
X325000Y1640945D02*
D03*
X380000Y1100000D02*
D03*
X1120000Y1080000D02*
D03*
%TF.MD5,be7bcaf9954c9fc770655dc2fb6559e1*%
M02*
