%TF.GenerationSoftware,Altium Limited,Altium Designer,25.1.2 (22)*%
G04 Layer_Color=16711935*
%FSLAX26Y26*%
%MOIN*%
%TF.SameCoordinates,66919F27-908D-4247-8532-D1C1A6E3FEAA*%
%TF.FilePolarity,Positive*%
%TF.FileFunction,Other,Mechanical_13*%
%TF.Part,Single*%
G01*
G75*
%TA.AperFunction,NonConductor*%
%ADD46C,0.007874*%
%ADD49C,0.001000*%
%ADD50C,0.005000*%
%ADD64C,0.010000*%
%ADD65C,0.000000*%
%ADD66C,0.002000*%
%ADD67C,0.004000*%
%ADD68C,0.003937*%
G36*
X982720Y1678776D02*
X974885D01*
Y1678782D01*
X954183D01*
Y1678796D01*
X947295D01*
Y1698476D01*
X955141D01*
Y1690600D01*
X958092D01*
Y1687648D01*
X971907D01*
Y1690608D01*
X974885D01*
Y1698507D01*
X982720D01*
Y1678776D01*
D02*
G37*
G36*
X315168Y1698042D02*
X309252D01*
Y1693138D01*
X314145D01*
Y1694123D01*
X316152D01*
Y1693138D01*
X334824D01*
Y1703956D01*
X342748D01*
Y1692157D01*
X342739D01*
Y1684274D01*
X309252D01*
Y1684252D01*
X307276D01*
Y1684274D01*
X307255D01*
Y1693138D01*
X307276D01*
Y1698042D01*
X307254D01*
Y1703966D01*
X315168D01*
Y1698042D01*
D02*
G37*
G36*
X1590168Y1693042D02*
X1584252D01*
Y1688138D01*
X1589145D01*
Y1689123D01*
X1591152D01*
Y1688138D01*
X1609824D01*
Y1698956D01*
X1617748D01*
Y1687157D01*
X1617739D01*
Y1679274D01*
X1584252D01*
Y1679252D01*
X1582276D01*
Y1679274D01*
X1582255D01*
Y1688138D01*
X1582276D01*
Y1693042D01*
X1582254D01*
Y1698966D01*
X1590168D01*
Y1693042D01*
D02*
G37*
G36*
X315115Y1656690D02*
X335817D01*
Y1656676D01*
X342705D01*
Y1636997D01*
X334859D01*
Y1644872D01*
X331908D01*
Y1647825D01*
X318093D01*
Y1644865D01*
X315115D01*
Y1636966D01*
X307280D01*
Y1656697D01*
X315115D01*
Y1656690D01*
D02*
G37*
G36*
X1590115Y1651690D02*
X1610817D01*
Y1651676D01*
X1617705D01*
Y1631997D01*
X1609859D01*
Y1639872D01*
X1606908D01*
Y1642825D01*
X1593093D01*
Y1639865D01*
X1590115D01*
Y1631966D01*
X1582280D01*
Y1651697D01*
X1590115D01*
Y1651690D01*
D02*
G37*
G36*
X982724Y1651198D02*
X982745D01*
Y1642334D01*
X982724D01*
Y1637431D01*
X982746D01*
Y1631506D01*
X974832D01*
Y1637431D01*
X980748D01*
Y1642334D01*
X975855D01*
Y1641349D01*
X973848D01*
Y1642334D01*
X955176D01*
Y1631517D01*
X947252D01*
Y1643315D01*
X947261D01*
Y1651198D01*
X980748D01*
Y1651221D01*
X982724D01*
Y1651198D01*
D02*
G37*
D46*
X1259961Y942772D02*
G03*
X1259961Y942772I-3937J0D01*
G01*
X514961Y985039D02*
G03*
X514961Y985039I-3937J0D01*
G01*
X827087Y1231811D02*
G03*
X827087Y1231811I-3937J0D01*
G01*
X233248Y658150D02*
G03*
X233248Y658150I-3937J0D01*
G01*
X720787Y550039D02*
G03*
X720787Y550039I-3937J0D01*
G01*
X1515382Y665559D02*
G03*
X1515382Y665559I-3937J0D01*
G01*
X1207087Y1231811D02*
G03*
X1207087Y1231811I-3937J0D01*
G01*
X1100787Y550039D02*
G03*
X1100787Y550039I-3937J0D01*
G01*
D49*
X900370Y1386339D02*
Y1780339D01*
X428370Y1386339D02*
X900370D01*
X428370D02*
Y1780339D01*
X900370D01*
X991500Y1255500D02*
X1048500D01*
X991500D02*
Y1263500D01*
X1048500D01*
Y1255500D02*
Y1263500D01*
X991500Y1184500D02*
X1048500D01*
Y1176500D02*
Y1184500D01*
X991500Y1176500D02*
X1048500D01*
X991500D02*
Y1184500D01*
X1048500Y1176500D02*
Y1263500D01*
X991500Y1176500D02*
X1048500D01*
X991500D02*
Y1263500D01*
X1048500D01*
X423370Y24662D02*
Y418661D01*
X895370D01*
Y24662D02*
Y418661D01*
X423370Y24662D02*
X895370D01*
X274500Y432500D02*
Y467500D01*
X266500D02*
X274500D01*
X266500Y432500D02*
Y467500D01*
Y432500D02*
X274500D01*
X325500D02*
Y467500D01*
Y432500D02*
X333500D01*
Y467500D01*
X325500D02*
X333500D01*
X266500Y432500D02*
X333500D01*
Y467500D01*
X266500D02*
X333500D01*
X266500Y432500D02*
Y467500D01*
X1081500Y1128000D02*
X1116500D01*
Y1120000D02*
Y1128000D01*
X1081500Y1120000D02*
X1116500D01*
X1081500D02*
Y1128000D01*
Y1179000D02*
X1116500D01*
X1081500D02*
Y1187000D01*
X1116500D01*
Y1179000D02*
Y1187000D01*
X1081500Y1120000D02*
Y1187000D01*
X1116500D01*
Y1120000D02*
Y1187000D01*
X1081500Y1120000D02*
X1116500D01*
X1024630Y24662D02*
Y418661D01*
X1496630D01*
Y24662D02*
Y418661D01*
X1024630Y24662D02*
X1496630D01*
X502500Y686500D02*
X577500D01*
Y735500D01*
X502500D02*
X577500D01*
X502500Y686500D02*
Y735500D01*
Y646500D02*
X577500D01*
X502500Y597500D02*
Y646500D01*
Y597500D02*
X577500D01*
Y646500D01*
X502500Y597500D02*
Y735500D01*
Y597500D02*
X577500D01*
Y735500D01*
X502500D02*
X577500D01*
X1784634Y742910D02*
X1859634D01*
Y604910D02*
Y742910D01*
X1784634Y604910D02*
X1859634D01*
X1784634D02*
Y742910D01*
X1859634Y604910D02*
Y653910D01*
X1784634Y604910D02*
X1859634D01*
X1784634D02*
Y653910D01*
X1859634D01*
X1784634Y693910D02*
Y742910D01*
X1859634D01*
Y693910D02*
Y742910D01*
X1784634Y693910D02*
X1859634D01*
X92500Y686500D02*
X167500D01*
Y735500D01*
X92500D02*
X167500D01*
X92500Y686500D02*
Y735500D01*
Y646500D02*
X167500D01*
X92500Y597500D02*
Y646500D01*
Y597500D02*
X167500D01*
Y646500D01*
X92500Y597500D02*
Y735500D01*
Y597500D02*
X167500D01*
Y735500D01*
X92500D02*
X167500D01*
X1374634Y742910D02*
X1449634D01*
Y604910D02*
Y742910D01*
X1374634Y604910D02*
X1449634D01*
X1374634D02*
Y742910D01*
X1449634Y604910D02*
Y653910D01*
X1374634Y604910D02*
X1449634D01*
X1374634D02*
Y653910D01*
X1449634D01*
X1374634Y693910D02*
Y742910D01*
X1449634D01*
Y693910D02*
Y742910D01*
X1374634Y693910D02*
X1449634D01*
X317500Y1465000D02*
X392500D01*
X317500Y1416000D02*
Y1465000D01*
Y1416000D02*
X392500D01*
Y1465000D01*
X317500Y1505000D02*
X392500D01*
Y1554000D01*
X317500D02*
X392500D01*
X317500Y1505000D02*
Y1554000D01*
X392500Y1416000D02*
Y1554000D01*
X317500D02*
X392500D01*
X317500Y1416000D02*
Y1554000D01*
Y1416000D02*
X392500D01*
X1802500D02*
X1877500D01*
X1802500D02*
Y1554000D01*
X1877500D01*
Y1416000D02*
Y1554000D01*
X1802500Y1505000D02*
Y1554000D01*
X1877500D01*
Y1505000D02*
Y1554000D01*
X1802500Y1505000D02*
X1877500D01*
Y1416000D02*
Y1465000D01*
X1802500Y1416000D02*
X1877500D01*
X1802500D02*
Y1465000D01*
X1877500D01*
X232500D02*
X307500D01*
X232500Y1416000D02*
Y1465000D01*
Y1416000D02*
X307500D01*
Y1465000D01*
X232500Y1505000D02*
X307500D01*
Y1554000D01*
X232500D02*
X307500D01*
X232500Y1505000D02*
Y1554000D01*
X307500Y1416000D02*
Y1554000D01*
X232500D02*
X307500D01*
X232500Y1416000D02*
Y1554000D01*
Y1416000D02*
X307500D01*
X1717500D02*
X1792500D01*
X1717500D02*
Y1554000D01*
X1792500D01*
Y1416000D02*
Y1554000D01*
X1717500Y1505000D02*
Y1554000D01*
X1792500D01*
Y1505000D02*
Y1554000D01*
X1717500Y1505000D02*
X1792500D01*
Y1416000D02*
Y1465000D01*
X1717500Y1416000D02*
X1792500D01*
X1717500D02*
Y1465000D01*
X1792500D01*
X147500D02*
X222500D01*
X147500Y1416000D02*
Y1465000D01*
Y1416000D02*
X222500D01*
Y1465000D01*
X147500Y1505000D02*
X222500D01*
Y1554000D01*
X147500D02*
X222500D01*
X147500Y1505000D02*
Y1554000D01*
X222500Y1416000D02*
Y1554000D01*
X147500D02*
X222500D01*
X147500Y1416000D02*
Y1554000D01*
Y1416000D02*
X222500D01*
X1632500D02*
X1707500D01*
X1632500D02*
Y1554000D01*
X1707500D01*
Y1416000D02*
Y1554000D01*
X1632500Y1505000D02*
Y1554000D01*
X1707500D01*
Y1505000D02*
Y1554000D01*
X1632500Y1505000D02*
X1707500D01*
Y1416000D02*
Y1465000D01*
X1632500Y1416000D02*
X1707500D01*
X1632500D02*
Y1465000D01*
X1707500D01*
X62500D02*
X137500D01*
X62500Y1416000D02*
Y1465000D01*
Y1416000D02*
X137500D01*
Y1465000D01*
X62500Y1505000D02*
X137500D01*
Y1554000D01*
X62500D02*
X137500D01*
X62500Y1505000D02*
Y1554000D01*
X137500Y1416000D02*
Y1554000D01*
X62500D02*
X137500D01*
X62500Y1416000D02*
Y1554000D01*
Y1416000D02*
X137500D01*
X1547500D02*
X1622500D01*
X1547500D02*
Y1554000D01*
X1622500D01*
Y1416000D02*
Y1554000D01*
X1547500Y1505000D02*
Y1554000D01*
X1622500D01*
Y1505000D02*
Y1554000D01*
X1547500Y1505000D02*
X1622500D01*
Y1416000D02*
Y1465000D01*
X1547500Y1416000D02*
X1622500D01*
X1547500D02*
Y1465000D01*
X1622500D01*
X937500Y1255500D02*
X972500D01*
X937500D02*
Y1263500D01*
X972500D01*
Y1255500D02*
Y1263500D01*
X937500Y1204500D02*
X972500D01*
Y1196500D02*
Y1204500D01*
X937500Y1196500D02*
X972500D01*
X937500D02*
Y1204500D01*
X972500Y1196500D02*
Y1263500D01*
X937500Y1196500D02*
X972500D01*
X937500D02*
Y1263500D01*
X972500D01*
X816500D02*
X873500D01*
X816500Y1176500D02*
Y1263500D01*
Y1176500D02*
X873500D01*
Y1263500D01*
X816500Y1176500D02*
Y1184500D01*
Y1176500D02*
X873500D01*
Y1184500D01*
X816500D02*
X873500D01*
Y1255500D02*
Y1263500D01*
X816500D02*
X873500D01*
X816500Y1255500D02*
Y1263500D01*
Y1255500D02*
X873500D01*
X892500D02*
X927500D01*
X892500D02*
Y1263500D01*
X927500D01*
Y1255500D02*
Y1263500D01*
X892500Y1204500D02*
X927500D01*
Y1196500D02*
Y1204500D01*
X892500Y1196500D02*
X927500D01*
X892500D02*
Y1204500D01*
X927500Y1196500D02*
Y1263500D01*
X892500Y1196500D02*
X927500D01*
X892500D02*
Y1263500D01*
X927500D01*
X621500Y1320000D02*
X678500D01*
Y1233000D02*
Y1320000D01*
X621500Y1233000D02*
X678500D01*
X621500D02*
Y1320000D01*
X678500Y1233000D02*
Y1241000D01*
X621500Y1233000D02*
X678500D01*
X621500D02*
Y1241000D01*
X678500D01*
X621500Y1312000D02*
Y1320000D01*
X678500D01*
Y1312000D02*
Y1320000D01*
X621500Y1312000D02*
X678500D01*
X861500Y1320000D02*
X918500D01*
Y1233000D02*
Y1320000D01*
X861500Y1233000D02*
X918500D01*
X861500D02*
Y1320000D01*
X918500Y1233000D02*
Y1241000D01*
X861500Y1233000D02*
X918500D01*
X861500D02*
Y1241000D01*
X918500D01*
X861500Y1312000D02*
Y1320000D01*
X918500D01*
Y1312000D02*
Y1320000D01*
X861500Y1312000D02*
X918500D01*
X342500Y1138268D02*
X377500D01*
Y1205268D01*
X342500D02*
X377500D01*
X342500Y1138268D02*
Y1205268D01*
X377500Y1197268D02*
Y1205268D01*
X342500D02*
X377500D01*
X342500Y1197268D02*
Y1205268D01*
Y1197268D02*
X377500D01*
X342500Y1138268D02*
Y1146268D01*
Y1138268D02*
X377500D01*
Y1146268D01*
X342500D02*
X377500D01*
X1506630Y1386339D02*
Y1780339D01*
X1034630Y1386339D02*
X1506630D01*
X1034630D02*
Y1780339D01*
X1506630D01*
X442500Y685000D02*
X477500D01*
Y618000D02*
Y685000D01*
X442500Y618000D02*
X477500D01*
X442500D02*
Y685000D01*
X477500Y618000D02*
Y626000D01*
X442500Y618000D02*
X477500D01*
X442500D02*
Y626000D01*
X477500D01*
X442500Y677000D02*
Y685000D01*
X477500D01*
Y677000D02*
Y685000D01*
X442500Y677000D02*
X477500D01*
X192500Y685000D02*
X227500D01*
Y618000D02*
Y685000D01*
X192500Y618000D02*
X227500D01*
X192500D02*
Y685000D01*
X227500Y618000D02*
Y626000D01*
X192500Y618000D02*
X227500D01*
X192500D02*
Y626000D01*
X227500D01*
X192500Y677000D02*
Y685000D01*
X227500D01*
Y677000D02*
Y685000D01*
X192500Y677000D02*
X227500D01*
X1001500Y1312000D02*
X1058500D01*
Y1320000D01*
X1001500D02*
X1058500D01*
X1001500Y1312000D02*
Y1320000D01*
Y1241000D02*
X1058500D01*
X1001500Y1233000D02*
Y1241000D01*
Y1233000D02*
X1058500D01*
Y1241000D01*
X1001500Y1233000D02*
Y1320000D01*
Y1233000D02*
X1058500D01*
Y1320000D01*
X1001500D02*
X1058500D01*
X1241500Y1312000D02*
X1298500D01*
Y1320000D01*
X1241500D02*
X1298500D01*
X1241500Y1312000D02*
Y1320000D01*
Y1241000D02*
X1298500D01*
X1241500Y1233000D02*
Y1241000D01*
Y1233000D02*
X1298500D01*
Y1241000D01*
X1241500Y1233000D02*
Y1320000D01*
Y1233000D02*
X1298500D01*
Y1320000D01*
X1241500D02*
X1298500D01*
X1550000Y442500D02*
Y477500D01*
X1617000D01*
Y442500D02*
Y477500D01*
X1550000Y442500D02*
X1617000D01*
X1609000Y477500D02*
X1617000D01*
Y442500D02*
Y477500D01*
X1609000Y442500D02*
X1617000D01*
X1609000D02*
Y477500D01*
X1550000Y442500D02*
X1558000D01*
X1550000D02*
Y477500D01*
X1558000D01*
Y442500D02*
Y477500D01*
X1724634Y692410D02*
X1759634D01*
Y625410D02*
Y692410D01*
X1724634Y625410D02*
X1759634D01*
X1724634D02*
Y692410D01*
X1759634Y625410D02*
Y633410D01*
X1724634Y625410D02*
X1759634D01*
X1724634D02*
Y633410D01*
X1759634D01*
X1724634Y684410D02*
Y692410D01*
X1759634D01*
Y684410D02*
Y692410D01*
X1724634Y684410D02*
X1759634D01*
X1474634Y692410D02*
X1509634D01*
Y625410D02*
Y692410D01*
X1474634Y625410D02*
X1509634D01*
X1474634D02*
Y692410D01*
X1509634Y625410D02*
Y633410D01*
X1474634Y625410D02*
X1509634D01*
X1474634D02*
Y633410D01*
X1509634D01*
X1474634Y684410D02*
Y692410D01*
X1509634D01*
Y684410D02*
Y692410D01*
X1474634Y684410D02*
X1509634D01*
D50*
X1147559Y1140409D02*
X1265669D01*
X1147559Y1022299D02*
X1265669D01*
X1147559D02*
Y1140409D01*
X1265669Y1022299D02*
Y1140409D01*
X520669Y1064567D02*
Y1182677D01*
X402559Y1064567D02*
Y1182677D01*
Y1064567D02*
X520669D01*
X402559Y1182677D02*
X520669D01*
X679449Y1198347D02*
X860551D01*
X640079Y1158976D02*
X679449Y1198347D01*
X640079Y938504D02*
Y1158976D01*
Y938504D02*
X899921D01*
Y1158976D01*
X860551Y1198347D02*
X899921Y1158976D01*
X266732Y681929D02*
X404527D01*
X266732Y504764D02*
Y681929D01*
Y504764D02*
X404527D01*
Y681929D01*
X679449Y583504D02*
X860551D01*
X899921Y622874D01*
Y843346D01*
X640079D02*
X899921D01*
X640079Y622874D02*
Y843346D01*
Y622874D02*
X679449Y583504D01*
X1548866Y689339D02*
X1686661D01*
X1548866Y512173D02*
Y689339D01*
Y512173D02*
X1686661D01*
Y689339D01*
X1059449Y1198347D02*
X1240551D01*
X1020079Y1158976D02*
X1059449Y1198347D01*
X1020079Y938504D02*
Y1158976D01*
Y938504D02*
X1279921D01*
Y1158976D01*
X1240551Y1198347D02*
X1279921Y1158976D01*
X1059449Y583504D02*
X1240551D01*
X1279921Y622874D01*
Y843346D01*
X1020079D02*
X1279921D01*
X1020079Y622874D02*
Y843346D01*
Y622874D02*
X1059449Y583504D01*
D64*
X1835000Y0D02*
G03*
X1945000Y110000I0J110000D01*
G01*
X0D02*
G03*
X110000Y-0I110000J-0D01*
G01*
X1945000Y1705000D02*
G03*
X1835000Y1815000I-110000J0D01*
G01*
X110000Y1815000D02*
G03*
X-0Y1705000I-0J-110000D01*
G01*
X1945000Y110000D02*
Y1705000D01*
X110000Y1815000D02*
X1835000D01*
X110000Y0D02*
X1835000D01*
X0Y110000D02*
Y1705000D01*
D65*
X1023000Y1261500D02*
G03*
X1023000Y1261500I-3000J0D01*
G01*
X271500Y450000D02*
G03*
X271500Y450000I-3000J0D01*
G01*
X1102000Y1122000D02*
G03*
X1102000Y1122000I-3000J0D01*
G01*
X543000Y713000D02*
G03*
X543000Y713000I-3000J0D01*
G01*
X1825134Y720410D02*
G03*
X1825134Y720410I-3000J0D01*
G01*
X133000Y713000D02*
G03*
X133000Y713000I-3000J0D01*
G01*
X1415134Y720410D02*
G03*
X1415134Y720410I-3000J0D01*
G01*
X358000Y1438500D02*
G03*
X358000Y1438500I-3000J0D01*
G01*
X1843000D02*
G03*
X1843000Y1438500I-3000J0D01*
G01*
X273000D02*
G03*
X273000Y1438500I-3000J0D01*
G01*
X1758000D02*
G03*
X1758000Y1438500I-3000J0D01*
G01*
X188000D02*
G03*
X188000Y1438500I-3000J0D01*
G01*
X1673000D02*
G03*
X1673000Y1438500I-3000J0D01*
G01*
X103000D02*
G03*
X103000Y1438500I-3000J0D01*
G01*
X1588000D02*
G03*
X1588000Y1438500I-3000J0D01*
G01*
X958000Y1261500D02*
G03*
X958000Y1261500I-3000J0D01*
G01*
X848000D02*
G03*
X848000Y1261500I-3000J0D01*
G01*
X913000D02*
G03*
X913000Y1261500I-3000J0D01*
G01*
X653000Y1318000D02*
G03*
X653000Y1318000I-3000J0D01*
G01*
X893000D02*
G03*
X893000Y1318000I-3000J0D01*
G01*
X363000Y1140268D02*
G03*
X363000Y1140268I-3000J0D01*
G01*
X463000Y683000D02*
G03*
X463000Y683000I-3000J0D01*
G01*
X213000D02*
G03*
X213000Y683000I-3000J0D01*
G01*
X1033000Y1318000D02*
G03*
X1033000Y1318000I-3000J0D01*
G01*
X1273000D02*
G03*
X1273000Y1318000I-3000J0D01*
G01*
X1555000Y460000D02*
G03*
X1555000Y460000I-3000J0D01*
G01*
X1745134Y690410D02*
G03*
X1745134Y690410I-3000J0D01*
G01*
X1495134D02*
G03*
X1495134Y690410I-3000J0D01*
G01*
D66*
X1610827Y1632992D02*
G03*
X1589173Y1632992I-10827J0D01*
G01*
X1589173Y1690079D02*
G03*
X1589173Y1690079I-2953J0D01*
G01*
X981732Y1640394D02*
G03*
X981732Y1640394I-2953J0D01*
G01*
X954173Y1697480D02*
G03*
X975827Y1697480I10827J0D01*
G01*
X335827Y1637992D02*
G03*
X314173Y1637992I-10827J0D01*
G01*
X314173Y1695079D02*
G03*
X314173Y1695079I-2953J0D01*
G01*
D67*
X1588189Y1696963D02*
G03*
X1611811Y1696963I11810J1033D01*
G01*
X976811Y1633510D02*
G03*
X953189Y1633510I-11810J-1033D01*
G01*
X313190Y1701963D02*
G03*
X336810Y1701963I11810J1033D01*
G01*
X1615748Y1651693D02*
Y1679252D01*
X1584252Y1651693D02*
Y1680236D01*
X980748Y1650236D02*
Y1678780D01*
X949252Y1651220D02*
Y1678780D01*
X340748Y1656693D02*
Y1684252D01*
X309252Y1656693D02*
Y1685236D01*
D68*
X1270158Y1200223D02*
X1400079D01*
Y1330144D01*
X1270158D02*
X1400079D01*
X1270158Y1200223D02*
Y1330144D01*
X541654Y1200394D02*
Y1330315D01*
X671575D01*
Y1200394D02*
Y1330315D01*
X541654Y1200394D02*
X671575D01*
%TF.MD5,4d2a5a3f9c2c0ada2458890720e25fb6*%
M02*
