%TF.GenerationSoftware,Altium Limited,Altium Designer,25.1.2 (22)*%
G04 Layer_Color=8421504*
%FSLAX26Y26*%
%MOIN*%
%TF.SameCoordinates,66919F27-908D-4247-8532-D1C1A6E3FEAA*%
%TF.FilePolarity,Positive*%
%TF.FileFunction,Paste,Top*%
%TF.Part,Single*%
G01*
G75*
%TA.AperFunction,SMDPad,CuDef*%
%ADD10R,0.212598X0.114173*%
%ADD12R,0.039000X0.106000*%
%ADD13R,0.031496X0.031496*%
%ADD14R,0.019685X0.019685*%
%ADD15R,0.019685X0.019685*%
%ADD16R,0.062992X0.125984*%
%ADD17R,0.022000X0.035000*%
%ADD18R,0.075000X0.063000*%
%ADD19R,0.057000X0.022000*%
G04:AMPARAMS|DCode=21|XSize=42.323mil|YSize=15.748mil|CornerRadius=3.937mil|HoleSize=0mil|Usage=FLASHONLY|Rotation=0.000|XOffset=0mil|YOffset=0mil|HoleType=Round|Shape=RoundedRectangle|*
%AMROUNDEDRECTD21*
21,1,0.042323,0.007874,0,0,0.0*
21,1,0.034449,0.015748,0,0,0.0*
1,1,0.007874,0.017224,-0.003937*
1,1,0.007874,-0.017224,-0.003937*
1,1,0.007874,-0.017224,0.003937*
1,1,0.007874,0.017224,0.003937*
%
%ADD21ROUNDEDRECTD21*%
G04:AMPARAMS|DCode=22|XSize=32.48mil|YSize=9.842mil|CornerRadius=2.461mil|HoleSize=0mil|Usage=FLASHONLY|Rotation=0.000|XOffset=0mil|YOffset=0mil|HoleType=Round|Shape=RoundedRectangle|*
%AMROUNDEDRECTD22*
21,1,0.032480,0.004921,0,0,0.0*
21,1,0.027559,0.009842,0,0,0.0*
1,1,0.004921,0.013780,-0.002461*
1,1,0.004921,-0.013780,-0.002461*
1,1,0.004921,-0.013780,0.002461*
1,1,0.004921,0.013780,0.002461*
%
%ADD22ROUNDEDRECTD22*%
G04:AMPARAMS|DCode=23|XSize=32.48mil|YSize=9.842mil|CornerRadius=2.51mil|HoleSize=0mil|Usage=FLASHONLY|Rotation=0.000|XOffset=0mil|YOffset=0mil|HoleType=Round|Shape=RoundedRectangle|*
%AMROUNDEDRECTD23*
21,1,0.032480,0.004823,0,0,0.0*
21,1,0.027461,0.009842,0,0,0.0*
1,1,0.005020,0.013730,-0.002412*
1,1,0.005020,-0.013730,-0.002412*
1,1,0.005020,-0.013730,0.002412*
1,1,0.005020,0.013730,0.002412*
%
%ADD23ROUNDEDRECTD23*%
G04:AMPARAMS|DCode=25|XSize=9.842mil|YSize=26.575mil|CornerRadius=2.461mil|HoleSize=0mil|Usage=FLASHONLY|Rotation=0.000|XOffset=0mil|YOffset=0mil|HoleType=Round|Shape=RoundedRectangle|*
%AMROUNDEDRECTD25*
21,1,0.009842,0.021654,0,0,0.0*
21,1,0.004921,0.026575,0,0,0.0*
1,1,0.004921,0.002461,-0.010827*
1,1,0.004921,-0.002461,-0.010827*
1,1,0.004921,-0.002461,0.010827*
1,1,0.004921,0.002461,0.010827*
%
%ADD25ROUNDEDRECTD25*%
G04:AMPARAMS|DCode=26|XSize=9.842mil|YSize=32.48mil|CornerRadius=2.461mil|HoleSize=0mil|Usage=FLASHONLY|Rotation=0.000|XOffset=0mil|YOffset=0mil|HoleType=Round|Shape=RoundedRectangle|*
%AMROUNDEDRECTD26*
21,1,0.009842,0.027559,0,0,0.0*
21,1,0.004921,0.032480,0,0,0.0*
1,1,0.004921,0.002461,-0.013780*
1,1,0.004921,-0.002461,-0.013780*
1,1,0.004921,-0.002461,0.013780*
1,1,0.004921,0.002461,0.013780*
%
%ADD26ROUNDEDRECTD26*%
G04:AMPARAMS|DCode=27|XSize=13.78mil|YSize=117.126mil|CornerRadius=3.445mil|HoleSize=0mil|Usage=FLASHONLY|Rotation=0.000|XOffset=0mil|YOffset=0mil|HoleType=Round|Shape=RoundedRectangle|*
%AMROUNDEDRECTD27*
21,1,0.013780,0.110236,0,0,0.0*
21,1,0.006890,0.117126,0,0,0.0*
1,1,0.006890,0.003445,-0.055118*
1,1,0.006890,-0.003445,-0.055118*
1,1,0.006890,-0.003445,0.055118*
1,1,0.006890,0.003445,0.055118*
%
%ADD27ROUNDEDRECTD27*%
%ADD28R,0.035000X0.022000*%
G36*
X300512Y518504D02*
X300591D01*
X300709Y518465D01*
X300787D01*
X300906Y518425D01*
X300984Y518386D01*
X301102Y518346D01*
X301181Y518268D01*
X301260Y518228D01*
X301339Y518150D01*
X301417Y518110D01*
X301496Y518032D01*
X301575Y517953D01*
X301654Y517874D01*
X301732Y517795D01*
X301772Y517717D01*
X301850Y517638D01*
X301890Y517559D01*
X301969Y517480D01*
X302008Y517362D01*
X302047Y517284D01*
X302087Y517165D01*
Y517087D01*
X302126Y516968D01*
Y516890D01*
X302165Y516772D01*
Y516693D01*
Y516575D01*
Y500827D01*
Y500709D01*
Y500630D01*
X302126Y500512D01*
Y500433D01*
X302087Y500315D01*
Y500236D01*
X302047Y500118D01*
X302008Y500039D01*
X301969Y499921D01*
X301890Y499843D01*
X301850Y499764D01*
X301772Y499685D01*
X301732Y499606D01*
X301654Y499528D01*
X301575Y499449D01*
X301496Y499370D01*
X301417Y499291D01*
X301339Y499252D01*
X301260Y499173D01*
X301181Y499134D01*
X301102Y499055D01*
X300984Y499016D01*
X300906Y498976D01*
X300787Y498937D01*
X300709D01*
X300591Y498898D01*
X300512D01*
X300394Y498858D01*
X275591D01*
X275472Y498898D01*
X275394D01*
X275276Y498937D01*
X275197D01*
X275079Y498976D01*
X275000Y499016D01*
X274882Y499055D01*
X274803Y499134D01*
X274724Y499173D01*
X274646Y499252D01*
X274567Y499291D01*
X274488Y499370D01*
X274409Y499449D01*
X274331Y499528D01*
X274252Y499606D01*
X274213Y499685D01*
X274134Y499764D01*
X274094Y499843D01*
X274016Y499921D01*
X273976Y500039D01*
X273937Y500118D01*
X273898Y500236D01*
Y500315D01*
X273858Y500433D01*
Y500512D01*
X273819Y500630D01*
Y500709D01*
Y500827D01*
Y508701D01*
Y508819D01*
Y508898D01*
X273779Y509016D01*
Y509094D01*
X273740Y509213D01*
Y509291D01*
X273701Y509409D01*
X273661Y509488D01*
X273622Y509606D01*
X273543Y509685D01*
X273504Y509764D01*
X273425Y509843D01*
X273386Y509921D01*
X273307Y510000D01*
X273228Y510079D01*
X273150Y510158D01*
X273071Y510236D01*
X272992Y510276D01*
X272913Y510354D01*
X272835Y510394D01*
X272756Y510473D01*
X272638Y510512D01*
X272559Y510551D01*
X272441Y510591D01*
X272362D01*
X272244Y510630D01*
X272165D01*
X272047Y510669D01*
X260630D01*
X260512Y510709D01*
X260433D01*
X260315Y510748D01*
X260236D01*
X260118Y510787D01*
X260039Y510827D01*
X259921Y510866D01*
X259842Y510945D01*
X259764Y510984D01*
X259685Y511063D01*
X259606Y511102D01*
X259527Y511181D01*
X259449Y511260D01*
X259370Y511339D01*
X259291Y511417D01*
X259252Y511496D01*
X259173Y511575D01*
X259134Y511654D01*
X259055Y511732D01*
X259016Y511850D01*
X258976Y511929D01*
X258937Y512047D01*
Y512126D01*
X258898Y512244D01*
Y512323D01*
X258858Y512441D01*
Y512520D01*
Y512638D01*
Y516575D01*
Y516693D01*
Y516772D01*
X258898Y516890D01*
Y516968D01*
X258937Y517087D01*
Y517165D01*
X258976Y517284D01*
X259016Y517362D01*
X259055Y517480D01*
X259134Y517559D01*
X259173Y517638D01*
X259252Y517717D01*
X259291Y517795D01*
X259370Y517874D01*
X259449Y517953D01*
X259527Y518032D01*
X259606Y518110D01*
X259685Y518150D01*
X259764Y518228D01*
X259842Y518268D01*
X259921Y518346D01*
X260039Y518386D01*
X260118Y518425D01*
X260236Y518465D01*
X260315D01*
X260433Y518504D01*
X260512D01*
X260630Y518543D01*
X300394D01*
X300512Y518504D01*
D02*
G37*
G36*
X410748D02*
X410827D01*
X410945Y518465D01*
X411024D01*
X411142Y518425D01*
X411221Y518386D01*
X411339Y518346D01*
X411417Y518268D01*
X411496Y518228D01*
X411575Y518150D01*
X411654Y518110D01*
X411732Y518032D01*
X411811Y517953D01*
X411890Y517874D01*
X411969Y517795D01*
X412008Y517717D01*
X412087Y517638D01*
X412126Y517559D01*
X412205Y517480D01*
X412244Y517362D01*
X412283Y517284D01*
X412323Y517165D01*
Y517087D01*
X412362Y516968D01*
Y516890D01*
X412402Y516772D01*
Y516693D01*
Y516575D01*
Y512638D01*
Y512520D01*
Y512441D01*
X412362Y512323D01*
Y512244D01*
X412323Y512126D01*
Y512047D01*
X412283Y511929D01*
X412244Y511850D01*
X412205Y511732D01*
X412126Y511654D01*
X412087Y511575D01*
X412008Y511496D01*
X411969Y511417D01*
X411890Y511339D01*
X411811Y511260D01*
X411732Y511181D01*
X411654Y511102D01*
X411575Y511063D01*
X411496Y510984D01*
X411417Y510945D01*
X411339Y510866D01*
X411221Y510827D01*
X411142Y510787D01*
X411024Y510748D01*
X410945D01*
X410827Y510709D01*
X410748D01*
X410630Y510669D01*
X399213D01*
X399094Y510630D01*
X399016D01*
X398898Y510591D01*
X398819D01*
X398701Y510551D01*
X398622Y510512D01*
X398504Y510473D01*
X398425Y510394D01*
X398346Y510354D01*
X398268Y510276D01*
X398189Y510236D01*
X398110Y510158D01*
X398031Y510079D01*
X397953Y510000D01*
X397874Y509921D01*
X397835Y509843D01*
X397756Y509764D01*
X397716Y509685D01*
X397638Y509606D01*
X397598Y509488D01*
X397559Y509409D01*
X397520Y509291D01*
Y509213D01*
X397480Y509094D01*
Y509016D01*
X397441Y508898D01*
Y508819D01*
Y508701D01*
Y500827D01*
Y500709D01*
Y500630D01*
X397402Y500512D01*
Y500433D01*
X397362Y500315D01*
Y500236D01*
X397323Y500118D01*
X397283Y500039D01*
X397244Y499921D01*
X397165Y499843D01*
X397126Y499764D01*
X397047Y499685D01*
X397008Y499606D01*
X396929Y499528D01*
X396850Y499449D01*
X396772Y499370D01*
X396693Y499291D01*
X396614Y499252D01*
X396535Y499173D01*
X396457Y499134D01*
X396378Y499055D01*
X396260Y499016D01*
X396181Y498976D01*
X396063Y498937D01*
X395984D01*
X395866Y498898D01*
X395787D01*
X395669Y498858D01*
X370866D01*
X370748Y498898D01*
X370669D01*
X370551Y498937D01*
X370472D01*
X370354Y498976D01*
X370276Y499016D01*
X370158Y499055D01*
X370079Y499134D01*
X370000Y499173D01*
X369921Y499252D01*
X369842Y499291D01*
X369764Y499370D01*
X369685Y499449D01*
X369606Y499528D01*
X369527Y499606D01*
X369488Y499685D01*
X369409Y499764D01*
X369370Y499843D01*
X369291Y499921D01*
X369252Y500039D01*
X369213Y500118D01*
X369173Y500236D01*
Y500315D01*
X369134Y500433D01*
Y500512D01*
X369094Y500630D01*
Y500709D01*
Y500827D01*
Y516575D01*
Y516693D01*
Y516772D01*
X369134Y516890D01*
Y516968D01*
X369173Y517087D01*
Y517165D01*
X369213Y517284D01*
X369252Y517362D01*
X369291Y517480D01*
X369370Y517559D01*
X369409Y517638D01*
X369488Y517717D01*
X369527Y517795D01*
X369606Y517874D01*
X369685Y517953D01*
X369764Y518032D01*
X369842Y518110D01*
X369921Y518150D01*
X370000Y518228D01*
X370079Y518268D01*
X370158Y518346D01*
X370276Y518386D01*
X370354Y518425D01*
X370472Y518465D01*
X370551D01*
X370669Y518504D01*
X370748D01*
X370866Y518543D01*
X410630D01*
X410748Y518504D01*
D02*
G37*
G36*
X302480Y687402D02*
X302559D01*
X302677Y687362D01*
X302756D01*
X302874Y687323D01*
X302953Y687284D01*
X303071Y687244D01*
X303150Y687165D01*
X303228Y687126D01*
X303307Y687047D01*
X303386Y687008D01*
X303464Y686929D01*
X303543Y686850D01*
X303622Y686772D01*
X303701Y686693D01*
X303740Y686614D01*
X303819Y686535D01*
X303858Y686457D01*
X303937Y686378D01*
X303976Y686260D01*
X304016Y686181D01*
X304055Y686063D01*
Y685984D01*
X304094Y685866D01*
Y685787D01*
X304134Y685669D01*
Y685591D01*
Y685472D01*
Y648465D01*
Y648346D01*
Y648268D01*
X304094Y648150D01*
Y648071D01*
X304055Y647953D01*
Y647874D01*
X304016Y647756D01*
X303976Y647677D01*
X303937Y647559D01*
X303858Y647480D01*
X303819Y647402D01*
X303740Y647323D01*
X303701Y647244D01*
X303622Y647165D01*
X303543Y647087D01*
X303464Y647008D01*
X303386Y646929D01*
X303307Y646890D01*
X303228Y646811D01*
X303150Y646772D01*
X303071Y646693D01*
X302953Y646654D01*
X302874Y646614D01*
X302756Y646575D01*
X302677D01*
X302559Y646535D01*
X302480D01*
X302362Y646496D01*
X264961D01*
X264842Y646535D01*
X264764D01*
X264646Y646575D01*
X264567D01*
X264449Y646614D01*
X264370Y646654D01*
X264252Y646693D01*
X264173Y646772D01*
X264094Y646811D01*
X264016Y646890D01*
X263937Y646929D01*
X263858Y647008D01*
X263779Y647087D01*
X263701Y647165D01*
X263622Y647244D01*
X263583Y647323D01*
X263504Y647402D01*
X263464Y647480D01*
X263386Y647559D01*
X263346Y647677D01*
X263307Y647756D01*
X263268Y647874D01*
Y647953D01*
X263228Y648071D01*
Y648150D01*
X263189Y648268D01*
Y648346D01*
Y648465D01*
Y671693D01*
Y671811D01*
Y671890D01*
X263228Y672008D01*
Y672087D01*
X263268Y672205D01*
Y672284D01*
X263307Y672402D01*
X263346Y672480D01*
X263386Y672598D01*
X263464Y672677D01*
X263504Y672756D01*
X263583Y672835D01*
X263622Y672913D01*
X263701Y672992D01*
X263779Y673071D01*
X263858Y673150D01*
X263937Y673228D01*
X264016Y673268D01*
X264094Y673346D01*
X264173Y673386D01*
X264252Y673465D01*
X264370Y673504D01*
X264449Y673543D01*
X264567Y673583D01*
X264646D01*
X264764Y673622D01*
X264842D01*
X264961Y673662D01*
X270906D01*
X271102Y673701D01*
X271339D01*
X271575Y673740D01*
X271772Y673819D01*
X272008Y673858D01*
X272205Y673937D01*
X272441Y674055D01*
X272638Y674134D01*
X272835Y674252D01*
X273031Y674370D01*
X273228Y674488D01*
X273386Y674646D01*
X273583Y674764D01*
X273740Y674921D01*
X273898Y675079D01*
X274016Y675276D01*
X274173Y675433D01*
X274291Y675630D01*
X274409Y675827D01*
X274527Y676024D01*
X274606Y676221D01*
X274724Y676457D01*
X274803Y676654D01*
X274842Y676890D01*
X274921Y677087D01*
X274961Y677323D01*
Y677559D01*
X275000Y677756D01*
Y677992D01*
Y685472D01*
Y685591D01*
Y685669D01*
X275039Y685787D01*
Y685866D01*
X275079Y685984D01*
Y686063D01*
X275118Y686181D01*
X275158Y686260D01*
X275197Y686378D01*
X275276Y686457D01*
X275315Y686535D01*
X275394Y686614D01*
X275433Y686693D01*
X275512Y686772D01*
X275591Y686850D01*
X275669Y686929D01*
X275748Y687008D01*
X275827Y687047D01*
X275906Y687126D01*
X275984Y687165D01*
X276063Y687244D01*
X276181Y687284D01*
X276260Y687323D01*
X276378Y687362D01*
X276457D01*
X276575Y687402D01*
X276654D01*
X276772Y687441D01*
X302362D01*
X302480Y687402D01*
D02*
G37*
G36*
X394606D02*
X394685D01*
X394803Y687362D01*
X394882D01*
X395000Y687323D01*
X395079Y687284D01*
X395197Y687244D01*
X395276Y687165D01*
X395354Y687126D01*
X395433Y687047D01*
X395512Y687008D01*
X395591Y686929D01*
X395669Y686850D01*
X395748Y686772D01*
X395827Y686693D01*
X395866Y686614D01*
X395945Y686535D01*
X395984Y686457D01*
X396063Y686378D01*
X396102Y686260D01*
X396142Y686181D01*
X396181Y686063D01*
Y685984D01*
X396221Y685866D01*
Y685787D01*
X396260Y685669D01*
Y685591D01*
Y685472D01*
Y677992D01*
Y677756D01*
X396299Y677559D01*
Y677323D01*
X396339Y677087D01*
X396417Y676890D01*
X396457Y676654D01*
X396535Y676457D01*
X396654Y676221D01*
X396732Y676024D01*
X396850Y675827D01*
X396969Y675630D01*
X397087Y675433D01*
X397244Y675276D01*
X397362Y675079D01*
X397520Y674921D01*
X397677Y674764D01*
X397874Y674646D01*
X398031Y674488D01*
X398228Y674370D01*
X398425Y674252D01*
X398622Y674134D01*
X398819Y674055D01*
X399055Y673937D01*
X399252Y673858D01*
X399488Y673819D01*
X399685Y673740D01*
X399921Y673701D01*
X400158D01*
X400354Y673662D01*
X406299D01*
X406417Y673622D01*
X406496D01*
X406614Y673583D01*
X406693D01*
X406811Y673543D01*
X406890Y673504D01*
X407008Y673465D01*
X407087Y673386D01*
X407165Y673346D01*
X407244Y673268D01*
X407323Y673228D01*
X407402Y673150D01*
X407480Y673071D01*
X407559Y672992D01*
X407638Y672913D01*
X407677Y672835D01*
X407756Y672756D01*
X407795Y672677D01*
X407874Y672598D01*
X407913Y672480D01*
X407953Y672402D01*
X407992Y672284D01*
Y672205D01*
X408031Y672087D01*
Y672008D01*
X408071Y671890D01*
Y671811D01*
Y671693D01*
Y648465D01*
Y648346D01*
Y648268D01*
X408031Y648150D01*
Y648071D01*
X407992Y647953D01*
Y647874D01*
X407953Y647756D01*
X407913Y647677D01*
X407874Y647559D01*
X407795Y647480D01*
X407756Y647402D01*
X407677Y647323D01*
X407638Y647244D01*
X407559Y647165D01*
X407480Y647087D01*
X407402Y647008D01*
X407323Y646929D01*
X407244Y646890D01*
X407165Y646811D01*
X407087Y646772D01*
X407008Y646693D01*
X406890Y646654D01*
X406811Y646614D01*
X406693Y646575D01*
X406614D01*
X406496Y646535D01*
X406417D01*
X406299Y646496D01*
X368898D01*
X368779Y646535D01*
X368701D01*
X368583Y646575D01*
X368504D01*
X368386Y646614D01*
X368307Y646654D01*
X368189Y646693D01*
X368110Y646772D01*
X368031Y646811D01*
X367953Y646890D01*
X367874Y646929D01*
X367795Y647008D01*
X367716Y647087D01*
X367638Y647165D01*
X367559Y647244D01*
X367520Y647323D01*
X367441Y647402D01*
X367402Y647480D01*
X367323Y647559D01*
X367283Y647677D01*
X367244Y647756D01*
X367205Y647874D01*
Y647953D01*
X367165Y648071D01*
Y648150D01*
X367126Y648268D01*
Y648346D01*
Y648465D01*
Y685472D01*
Y685591D01*
Y685669D01*
X367165Y685787D01*
Y685866D01*
X367205Y685984D01*
Y686063D01*
X367244Y686181D01*
X367283Y686260D01*
X367323Y686378D01*
X367402Y686457D01*
X367441Y686535D01*
X367520Y686614D01*
X367559Y686693D01*
X367638Y686772D01*
X367716Y686850D01*
X367795Y686929D01*
X367874Y687008D01*
X367953Y687047D01*
X368031Y687126D01*
X368110Y687165D01*
X368189Y687244D01*
X368307Y687284D01*
X368386Y687323D01*
X368504Y687362D01*
X368583D01*
X368701Y687402D01*
X368779D01*
X368898Y687441D01*
X394488D01*
X394606Y687402D01*
D02*
G37*
G36*
X1582646Y525914D02*
X1582724D01*
X1582842Y525874D01*
X1582921D01*
X1583039Y525835D01*
X1583118Y525795D01*
X1583236Y525756D01*
X1583315Y525677D01*
X1583394Y525638D01*
X1583472Y525559D01*
X1583551Y525520D01*
X1583630Y525441D01*
X1583709Y525362D01*
X1583787Y525284D01*
X1583866Y525205D01*
X1583905Y525126D01*
X1583984Y525047D01*
X1584024Y524969D01*
X1584102Y524890D01*
X1584142Y524772D01*
X1584181Y524693D01*
X1584220Y524575D01*
Y524496D01*
X1584260Y524378D01*
Y524299D01*
X1584299Y524181D01*
Y524103D01*
Y523984D01*
Y508236D01*
Y508118D01*
Y508040D01*
X1584260Y507921D01*
Y507843D01*
X1584220Y507725D01*
Y507646D01*
X1584181Y507528D01*
X1584142Y507449D01*
X1584102Y507331D01*
X1584024Y507252D01*
X1583984Y507173D01*
X1583905Y507095D01*
X1583866Y507016D01*
X1583787Y506937D01*
X1583709Y506858D01*
X1583630Y506780D01*
X1583551Y506701D01*
X1583472Y506662D01*
X1583394Y506583D01*
X1583315Y506543D01*
X1583236Y506465D01*
X1583118Y506425D01*
X1583039Y506386D01*
X1582921Y506347D01*
X1582842D01*
X1582724Y506307D01*
X1582646D01*
X1582527Y506268D01*
X1557724D01*
X1557606Y506307D01*
X1557527D01*
X1557409Y506347D01*
X1557331D01*
X1557213Y506386D01*
X1557134Y506425D01*
X1557016Y506465D01*
X1556937Y506543D01*
X1556858Y506583D01*
X1556779Y506662D01*
X1556701Y506701D01*
X1556622Y506780D01*
X1556543Y506858D01*
X1556465Y506937D01*
X1556386Y507016D01*
X1556346Y507095D01*
X1556268Y507173D01*
X1556228Y507252D01*
X1556149Y507331D01*
X1556110Y507449D01*
X1556071Y507528D01*
X1556031Y507646D01*
Y507725D01*
X1555992Y507843D01*
Y507921D01*
X1555953Y508040D01*
Y508118D01*
Y508236D01*
Y516110D01*
Y516229D01*
Y516307D01*
X1555913Y516425D01*
Y516504D01*
X1555874Y516622D01*
Y516701D01*
X1555835Y516819D01*
X1555795Y516898D01*
X1555756Y517016D01*
X1555677Y517095D01*
X1555638Y517173D01*
X1555559Y517252D01*
X1555520Y517331D01*
X1555441Y517410D01*
X1555362Y517488D01*
X1555283Y517567D01*
X1555205Y517646D01*
X1555126Y517685D01*
X1555047Y517764D01*
X1554968Y517803D01*
X1554890Y517882D01*
X1554772Y517922D01*
X1554693Y517961D01*
X1554575Y518000D01*
X1554496D01*
X1554378Y518040D01*
X1554299D01*
X1554181Y518079D01*
X1542764D01*
X1542646Y518118D01*
X1542567D01*
X1542449Y518158D01*
X1542370D01*
X1542252Y518197D01*
X1542173Y518236D01*
X1542055Y518276D01*
X1541976Y518355D01*
X1541898Y518394D01*
X1541819Y518473D01*
X1541740Y518512D01*
X1541661Y518591D01*
X1541583Y518669D01*
X1541504Y518748D01*
X1541425Y518827D01*
X1541386Y518906D01*
X1541307Y518984D01*
X1541268Y519063D01*
X1541189Y519142D01*
X1541149Y519260D01*
X1541110Y519339D01*
X1541071Y519457D01*
Y519536D01*
X1541031Y519654D01*
Y519732D01*
X1540992Y519851D01*
Y519929D01*
Y520047D01*
Y523984D01*
Y524103D01*
Y524181D01*
X1541031Y524299D01*
Y524378D01*
X1541071Y524496D01*
Y524575D01*
X1541110Y524693D01*
X1541149Y524772D01*
X1541189Y524890D01*
X1541268Y524969D01*
X1541307Y525047D01*
X1541386Y525126D01*
X1541425Y525205D01*
X1541504Y525284D01*
X1541583Y525362D01*
X1541661Y525441D01*
X1541740Y525520D01*
X1541819Y525559D01*
X1541898Y525638D01*
X1541976Y525677D01*
X1542055Y525756D01*
X1542173Y525795D01*
X1542252Y525835D01*
X1542370Y525874D01*
X1542449D01*
X1542567Y525914D01*
X1542646D01*
X1542764Y525953D01*
X1582527D01*
X1582646Y525914D01*
D02*
G37*
G36*
X1692882D02*
X1692961D01*
X1693079Y525874D01*
X1693157D01*
X1693275Y525835D01*
X1693354Y525795D01*
X1693472Y525756D01*
X1693551Y525677D01*
X1693630Y525638D01*
X1693709Y525559D01*
X1693787Y525520D01*
X1693866Y525441D01*
X1693945Y525362D01*
X1694024Y525284D01*
X1694102Y525205D01*
X1694142Y525126D01*
X1694220Y525047D01*
X1694260Y524969D01*
X1694339Y524890D01*
X1694378Y524772D01*
X1694417Y524693D01*
X1694457Y524575D01*
Y524496D01*
X1694496Y524378D01*
Y524299D01*
X1694535Y524181D01*
Y524103D01*
Y523984D01*
Y520047D01*
Y519929D01*
Y519851D01*
X1694496Y519732D01*
Y519654D01*
X1694457Y519536D01*
Y519457D01*
X1694417Y519339D01*
X1694378Y519260D01*
X1694339Y519142D01*
X1694260Y519063D01*
X1694220Y518984D01*
X1694142Y518906D01*
X1694102Y518827D01*
X1694024Y518748D01*
X1693945Y518669D01*
X1693866Y518591D01*
X1693787Y518512D01*
X1693709Y518473D01*
X1693630Y518394D01*
X1693551Y518355D01*
X1693472Y518276D01*
X1693354Y518236D01*
X1693275Y518197D01*
X1693157Y518158D01*
X1693079D01*
X1692961Y518118D01*
X1692882D01*
X1692764Y518079D01*
X1681346D01*
X1681228Y518040D01*
X1681149D01*
X1681031Y518000D01*
X1680953D01*
X1680835Y517961D01*
X1680756Y517922D01*
X1680638Y517882D01*
X1680559Y517803D01*
X1680480Y517764D01*
X1680401Y517685D01*
X1680323Y517646D01*
X1680244Y517567D01*
X1680165Y517488D01*
X1680086Y517410D01*
X1680008Y517331D01*
X1679968Y517252D01*
X1679890Y517173D01*
X1679850Y517095D01*
X1679772Y517016D01*
X1679732Y516898D01*
X1679693Y516819D01*
X1679653Y516701D01*
Y516622D01*
X1679614Y516504D01*
Y516425D01*
X1679575Y516307D01*
Y516229D01*
Y516110D01*
Y508236D01*
Y508118D01*
Y508040D01*
X1679535Y507921D01*
Y507843D01*
X1679496Y507725D01*
Y507646D01*
X1679457Y507528D01*
X1679417Y507449D01*
X1679378Y507331D01*
X1679299Y507252D01*
X1679260Y507173D01*
X1679181Y507095D01*
X1679142Y507016D01*
X1679063Y506937D01*
X1678984Y506858D01*
X1678905Y506780D01*
X1678827Y506701D01*
X1678748Y506662D01*
X1678669Y506583D01*
X1678591Y506543D01*
X1678512Y506465D01*
X1678394Y506425D01*
X1678315Y506386D01*
X1678197Y506347D01*
X1678118D01*
X1678000Y506307D01*
X1677921D01*
X1677803Y506268D01*
X1653000D01*
X1652882Y506307D01*
X1652803D01*
X1652685Y506347D01*
X1652606D01*
X1652488Y506386D01*
X1652409Y506425D01*
X1652291Y506465D01*
X1652213Y506543D01*
X1652134Y506583D01*
X1652055Y506662D01*
X1651976Y506701D01*
X1651898Y506780D01*
X1651819Y506858D01*
X1651740Y506937D01*
X1651661Y507016D01*
X1651622Y507095D01*
X1651543Y507173D01*
X1651504Y507252D01*
X1651425Y507331D01*
X1651386Y507449D01*
X1651346Y507528D01*
X1651307Y507646D01*
Y507725D01*
X1651268Y507843D01*
Y507921D01*
X1651228Y508040D01*
Y508118D01*
Y508236D01*
Y523984D01*
Y524103D01*
Y524181D01*
X1651268Y524299D01*
Y524378D01*
X1651307Y524496D01*
Y524575D01*
X1651346Y524693D01*
X1651386Y524772D01*
X1651425Y524890D01*
X1651504Y524969D01*
X1651543Y525047D01*
X1651622Y525126D01*
X1651661Y525205D01*
X1651740Y525284D01*
X1651819Y525362D01*
X1651898Y525441D01*
X1651976Y525520D01*
X1652055Y525559D01*
X1652134Y525638D01*
X1652213Y525677D01*
X1652291Y525756D01*
X1652409Y525795D01*
X1652488Y525835D01*
X1652606Y525874D01*
X1652685D01*
X1652803Y525914D01*
X1652882D01*
X1653000Y525953D01*
X1692764D01*
X1692882Y525914D01*
D02*
G37*
G36*
X1584614Y694811D02*
X1584693D01*
X1584811Y694772D01*
X1584890D01*
X1585008Y694732D01*
X1585086Y694693D01*
X1585205Y694654D01*
X1585283Y694575D01*
X1585362Y694536D01*
X1585441Y694457D01*
X1585520Y694418D01*
X1585598Y694339D01*
X1585677Y694260D01*
X1585756Y694181D01*
X1585835Y694103D01*
X1585874Y694024D01*
X1585953Y693945D01*
X1585992Y693866D01*
X1586071Y693788D01*
X1586110Y693669D01*
X1586149Y693591D01*
X1586189Y693473D01*
Y693394D01*
X1586228Y693276D01*
Y693197D01*
X1586268Y693079D01*
Y693000D01*
Y692882D01*
Y655874D01*
Y655756D01*
Y655677D01*
X1586228Y655559D01*
Y655481D01*
X1586189Y655362D01*
Y655284D01*
X1586149Y655165D01*
X1586110Y655087D01*
X1586071Y654969D01*
X1585992Y654890D01*
X1585953Y654811D01*
X1585874Y654732D01*
X1585835Y654654D01*
X1585756Y654575D01*
X1585677Y654496D01*
X1585598Y654418D01*
X1585520Y654339D01*
X1585441Y654299D01*
X1585362Y654221D01*
X1585283Y654181D01*
X1585205Y654103D01*
X1585086Y654063D01*
X1585008Y654024D01*
X1584890Y653984D01*
X1584811D01*
X1584693Y653945D01*
X1584614D01*
X1584496Y653906D01*
X1547094D01*
X1546976Y653945D01*
X1546898D01*
X1546779Y653984D01*
X1546701D01*
X1546583Y654024D01*
X1546504Y654063D01*
X1546386Y654103D01*
X1546307Y654181D01*
X1546228Y654221D01*
X1546149Y654299D01*
X1546071Y654339D01*
X1545992Y654418D01*
X1545913Y654496D01*
X1545835Y654575D01*
X1545756Y654654D01*
X1545716Y654732D01*
X1545638Y654811D01*
X1545598Y654890D01*
X1545520Y654969D01*
X1545480Y655087D01*
X1545441Y655165D01*
X1545401Y655284D01*
Y655362D01*
X1545362Y655481D01*
Y655559D01*
X1545323Y655677D01*
Y655756D01*
Y655874D01*
Y679103D01*
Y679221D01*
Y679299D01*
X1545362Y679418D01*
Y679496D01*
X1545401Y679614D01*
Y679693D01*
X1545441Y679811D01*
X1545480Y679890D01*
X1545520Y680008D01*
X1545598Y680087D01*
X1545638Y680165D01*
X1545716Y680244D01*
X1545756Y680323D01*
X1545835Y680402D01*
X1545913Y680481D01*
X1545992Y680559D01*
X1546071Y680638D01*
X1546149Y680677D01*
X1546228Y680756D01*
X1546307Y680795D01*
X1546386Y680874D01*
X1546504Y680914D01*
X1546583Y680953D01*
X1546701Y680992D01*
X1546779D01*
X1546898Y681032D01*
X1546976D01*
X1547094Y681071D01*
X1553039D01*
X1553236Y681110D01*
X1553472D01*
X1553709Y681150D01*
X1553905Y681229D01*
X1554142Y681268D01*
X1554339Y681347D01*
X1554575Y681465D01*
X1554772Y681543D01*
X1554968Y681662D01*
X1555165Y681780D01*
X1555362Y681898D01*
X1555520Y682055D01*
X1555716Y682173D01*
X1555874Y682331D01*
X1556031Y682488D01*
X1556149Y682685D01*
X1556307Y682843D01*
X1556425Y683040D01*
X1556543Y683236D01*
X1556661Y683433D01*
X1556740Y683630D01*
X1556858Y683866D01*
X1556937Y684063D01*
X1556976Y684299D01*
X1557055Y684496D01*
X1557094Y684732D01*
Y684969D01*
X1557134Y685165D01*
Y685402D01*
Y692882D01*
Y693000D01*
Y693079D01*
X1557173Y693197D01*
Y693276D01*
X1557213Y693394D01*
Y693473D01*
X1557252Y693591D01*
X1557291Y693669D01*
X1557331Y693788D01*
X1557409Y693866D01*
X1557449Y693945D01*
X1557527Y694024D01*
X1557567Y694103D01*
X1557646Y694181D01*
X1557724Y694260D01*
X1557803Y694339D01*
X1557882Y694418D01*
X1557961Y694457D01*
X1558039Y694536D01*
X1558118Y694575D01*
X1558197Y694654D01*
X1558315Y694693D01*
X1558394Y694732D01*
X1558512Y694772D01*
X1558591D01*
X1558709Y694811D01*
X1558787D01*
X1558905Y694851D01*
X1584496D01*
X1584614Y694811D01*
D02*
G37*
G36*
X1676740D02*
X1676819D01*
X1676937Y694772D01*
X1677016D01*
X1677134Y694732D01*
X1677213Y694693D01*
X1677331Y694654D01*
X1677409Y694575D01*
X1677488Y694536D01*
X1677567Y694457D01*
X1677646Y694418D01*
X1677724Y694339D01*
X1677803Y694260D01*
X1677882Y694181D01*
X1677961Y694103D01*
X1678000Y694024D01*
X1678079Y693945D01*
X1678118Y693866D01*
X1678197Y693788D01*
X1678236Y693669D01*
X1678275Y693591D01*
X1678315Y693473D01*
Y693394D01*
X1678354Y693276D01*
Y693197D01*
X1678394Y693079D01*
Y693000D01*
Y692882D01*
Y685402D01*
Y685165D01*
X1678433Y684969D01*
Y684732D01*
X1678472Y684496D01*
X1678551Y684299D01*
X1678591Y684063D01*
X1678669Y683866D01*
X1678787Y683630D01*
X1678866Y683433D01*
X1678984Y683236D01*
X1679102Y683040D01*
X1679220Y682843D01*
X1679378Y682685D01*
X1679496Y682488D01*
X1679653Y682331D01*
X1679811Y682173D01*
X1680008Y682055D01*
X1680165Y681898D01*
X1680362Y681780D01*
X1680559Y681662D01*
X1680756Y681543D01*
X1680953Y681465D01*
X1681189Y681347D01*
X1681386Y681268D01*
X1681622Y681229D01*
X1681819Y681150D01*
X1682055Y681110D01*
X1682291D01*
X1682488Y681071D01*
X1688433D01*
X1688551Y681032D01*
X1688630D01*
X1688748Y680992D01*
X1688827D01*
X1688945Y680953D01*
X1689024Y680914D01*
X1689142Y680874D01*
X1689220Y680795D01*
X1689299Y680756D01*
X1689378Y680677D01*
X1689457Y680638D01*
X1689535Y680559D01*
X1689614Y680481D01*
X1689693Y680402D01*
X1689772Y680323D01*
X1689811Y680244D01*
X1689890Y680165D01*
X1689929Y680087D01*
X1690008Y680008D01*
X1690047Y679890D01*
X1690086Y679811D01*
X1690126Y679693D01*
Y679614D01*
X1690165Y679496D01*
Y679418D01*
X1690205Y679299D01*
Y679221D01*
Y679103D01*
Y655874D01*
Y655756D01*
Y655677D01*
X1690165Y655559D01*
Y655481D01*
X1690126Y655362D01*
Y655284D01*
X1690086Y655165D01*
X1690047Y655087D01*
X1690008Y654969D01*
X1689929Y654890D01*
X1689890Y654811D01*
X1689811Y654732D01*
X1689772Y654654D01*
X1689693Y654575D01*
X1689614Y654496D01*
X1689535Y654418D01*
X1689457Y654339D01*
X1689378Y654299D01*
X1689299Y654221D01*
X1689220Y654181D01*
X1689142Y654103D01*
X1689024Y654063D01*
X1688945Y654024D01*
X1688827Y653984D01*
X1688748D01*
X1688630Y653945D01*
X1688551D01*
X1688433Y653906D01*
X1651031D01*
X1650913Y653945D01*
X1650835D01*
X1650716Y653984D01*
X1650638D01*
X1650520Y654024D01*
X1650441Y654063D01*
X1650323Y654103D01*
X1650244Y654181D01*
X1650165Y654221D01*
X1650086Y654299D01*
X1650008Y654339D01*
X1649929Y654418D01*
X1649850Y654496D01*
X1649772Y654575D01*
X1649693Y654654D01*
X1649653Y654732D01*
X1649575Y654811D01*
X1649535Y654890D01*
X1649457Y654969D01*
X1649417Y655087D01*
X1649378Y655165D01*
X1649339Y655284D01*
Y655362D01*
X1649299Y655481D01*
Y655559D01*
X1649260Y655677D01*
Y655756D01*
Y655874D01*
Y692882D01*
Y693000D01*
Y693079D01*
X1649299Y693197D01*
Y693276D01*
X1649339Y693394D01*
Y693473D01*
X1649378Y693591D01*
X1649417Y693669D01*
X1649457Y693788D01*
X1649535Y693866D01*
X1649575Y693945D01*
X1649653Y694024D01*
X1649693Y694103D01*
X1649772Y694181D01*
X1649850Y694260D01*
X1649929Y694339D01*
X1650008Y694418D01*
X1650086Y694457D01*
X1650165Y694536D01*
X1650244Y694575D01*
X1650323Y694654D01*
X1650441Y694693D01*
X1650520Y694732D01*
X1650638Y694772D01*
X1650716D01*
X1650835Y694811D01*
X1650913D01*
X1651031Y694851D01*
X1676622D01*
X1676740Y694811D01*
D02*
G37*
D10*
X1616417Y857528D02*
D03*
Y1247292D02*
D03*
X334284Y1239882D02*
D03*
Y850118D02*
D03*
D12*
X546260Y1419803D02*
D03*
X625000D02*
D03*
X703740D02*
D03*
X782480D02*
D03*
X777480Y385197D02*
D03*
X698740D02*
D03*
X620000D02*
D03*
X541260D02*
D03*
X1378740D02*
D03*
X1300000D02*
D03*
X1221260D02*
D03*
X1142520D02*
D03*
X1152520Y1419803D02*
D03*
X1231260D02*
D03*
X1310000D02*
D03*
X1388740D02*
D03*
D13*
X1600000Y1635945D02*
D03*
Y1695000D02*
D03*
X965000Y1635472D02*
D03*
Y1694528D02*
D03*
X325000Y1640945D02*
D03*
Y1700000D02*
D03*
D14*
X406000Y450000D02*
D03*
X374000D02*
D03*
X1654000Y460000D02*
D03*
X1686000D02*
D03*
X234843Y355000D02*
D03*
X266842D02*
D03*
X1583000Y370000D02*
D03*
X1551000D02*
D03*
X234843Y400000D02*
D03*
X266842D02*
D03*
X1582000Y415000D02*
D03*
X1550000D02*
D03*
X299842Y400000D02*
D03*
X331842D02*
D03*
X1645000Y415000D02*
D03*
X1613000D02*
D03*
X297842Y355000D02*
D03*
X329842D02*
D03*
X1645000Y370000D02*
D03*
X1613000D02*
D03*
D15*
X445000Y518000D02*
D03*
Y550000D02*
D03*
X1727134Y557410D02*
D03*
Y525410D02*
D03*
X225472Y534299D02*
D03*
Y566299D02*
D03*
X1507606Y573709D02*
D03*
Y541709D02*
D03*
X1645000Y1695000D02*
D03*
Y1663000D02*
D03*
X965000Y1549000D02*
D03*
Y1581000D02*
D03*
X280000Y1700000D02*
D03*
Y1668000D02*
D03*
X193976Y566299D02*
D03*
Y534299D02*
D03*
X1476110Y573709D02*
D03*
Y541709D02*
D03*
D16*
X770000Y1166850D02*
D03*
Y970000D02*
D03*
Y615000D02*
D03*
Y811850D02*
D03*
X1150000Y1166850D02*
D03*
Y970000D02*
D03*
Y615000D02*
D03*
Y811850D02*
D03*
D17*
X263500Y450000D02*
D03*
X336500D02*
D03*
X1620000Y460000D02*
D03*
X1547000D02*
D03*
D18*
X540000Y718000D02*
D03*
Y615000D02*
D03*
X1822134Y622410D02*
D03*
Y725410D02*
D03*
X130000Y718000D02*
D03*
Y615000D02*
D03*
X1412134Y622410D02*
D03*
Y725410D02*
D03*
X355000Y1433500D02*
D03*
Y1536500D02*
D03*
X1840000D02*
D03*
Y1433500D02*
D03*
X270000D02*
D03*
Y1536500D02*
D03*
X1755000D02*
D03*
Y1433500D02*
D03*
X185000D02*
D03*
Y1536500D02*
D03*
X1670000D02*
D03*
Y1433500D02*
D03*
X100000D02*
D03*
Y1536500D02*
D03*
X1585000D02*
D03*
Y1433500D02*
D03*
D19*
X650000Y1230000D02*
D03*
Y1323000D02*
D03*
X890000Y1230000D02*
D03*
Y1323000D02*
D03*
X1030000D02*
D03*
Y1230000D02*
D03*
X1270000Y1323000D02*
D03*
Y1230000D02*
D03*
D21*
X280000Y615000D02*
D03*
X391260D02*
D03*
X1562134Y622410D02*
D03*
X1673394D02*
D03*
D22*
X275079Y572677D02*
D03*
Y552992D02*
D03*
X396181Y533307D02*
D03*
Y552992D02*
D03*
X1557213Y580087D02*
D03*
Y560402D02*
D03*
X1678315Y540717D02*
D03*
Y560402D02*
D03*
D23*
X275079Y533307D02*
D03*
X396181Y572677D02*
D03*
X1557213Y540717D02*
D03*
X1678315Y580087D02*
D03*
D25*
X315945Y510158D02*
D03*
X355315D02*
D03*
X1598079Y517567D02*
D03*
X1637449D02*
D03*
D26*
X335630Y513110D02*
D03*
X1617764Y520520D02*
D03*
D27*
X335630Y631260D02*
D03*
X1617764Y638669D02*
D03*
D28*
X460000Y615000D02*
D03*
Y688000D02*
D03*
X210000Y615000D02*
D03*
Y688000D02*
D03*
X1742134Y622410D02*
D03*
Y695410D02*
D03*
X1492134Y622410D02*
D03*
Y695410D02*
D03*
%TF.MD5,7875a943a7528a243ada580821121e12*%
M02*
